<svg xmlns="http://www.w3.org/2000/svg" width="720" height="400" viewBox="0 0 720 400"><rect width="720" height="400" fill="#1a1a19"/><line x1="64" y1="348.0" x2="696" y2="348.0" stroke="#33322f" stroke-width="0.8"/><text x="54" y="352.0" font-size="11" fill="#c3c2b7" text-anchor="end" font-weight="400" font-family="ui-sans-serif, system-ui, sans-serif">0</text><line x1="64" y1="274.0" x2="696" y2="274.0" stroke="#33322f" stroke-width="0.8"/><text x="54" y="278.0" font-size="11" fill="#c3c2b7" text-anchor="end" font-weight="400" font-family="ui-sans-serif, system-ui, sans-serif">200</text><line x1="64" y1="200.0" x2="696" y2="200.0" stroke="#33322f" stroke-width="0.8"/><text x="54" y="204.0" font-size="11" fill="#c3c2b7" text-anchor="end" font-weight="400" font-family="ui-sans-serif, system-ui, sans-serif">400</text><line x1="64" y1="126.0" x2="696" y2="126.0" stroke="#33322f" stroke-width="0.8"/><text x="54" y="130.0" font-size="11" fill="#c3c2b7" text-anchor="end" font-weight="400" font-family="ui-sans-serif, system-ui, sans-serif">600</text><line x1="64" y1="52.0" x2="696" y2="52.0" stroke="#33322f" stroke-width="0.8"/><text x="54" y="56.0" font-size="11" fill="#c3c2b7" text-anchor="end" font-weight="400" font-family="ui-sans-serif, system-ui, sans-serif">800</text><polyline points="64.0,142.3 74.0,149.0 94.1,68.6 134.2,153.9 214.5,144.6 375.0,149.1 696.0,142.5" fill="none" stroke="#33322f" stroke-width="1.6" stroke-dasharray="5 4"/><polyline points="64.0,162.1 74.0,160.9 94.1,166.8 134.2,166.1 214.5,168.0 375.0,158.6 696.0,156.3" fill="none" stroke="#3987e5" stroke-width="2.4" stroke-linejoin="round"/><circle cx="64.0" cy="162.1" r="4" fill="#3987e5" stroke="#1a1a19" stroke-width="2"/><circle cx="74.0" cy="160.9" r="4" fill="#3987e5" stroke="#1a1a19" stroke-width="2"/><circle cx="94.1" cy="166.8" r="4" fill="#3987e5" stroke="#1a1a19" stroke-width="2"/><circle cx="134.2" cy="166.1" r="4" fill="#3987e5" stroke="#1a1a19" stroke-width="2"/><circle cx="214.5" cy="168.0" r="4" fill="#3987e5" stroke="#1a1a19" stroke-width="2"/><circle cx="375.0" cy="158.6" r="4" fill="#3987e5" stroke="#1a1a19" stroke-width="2"/><circle cx="696.0" cy="156.3" r="4" fill="#3987e5" stroke="#1a1a19" stroke-width="2"/><line x1="64" y1="348" x2="696" y2="348" stroke="#33322f" stroke-width="1"/><text x="64.0" y="368" font-size="11" fill="#c3c2b7" text-anchor="middle" font-weight="400" font-family="ui-sans-serif, system-ui, sans-serif">1</text><text x="74.03174603174602" y="368" font-size="11" fill="#c3c2b7" text-anchor="middle" font-weight="400" font-family="ui-sans-serif, system-ui, sans-serif">2</text><text x="94.0952380952381" y="368" font-size="11" fill="#c3c2b7" text-anchor="middle" font-weight="400" font-family="ui-sans-serif, system-ui, sans-serif">4</text><text x="134.22222222222223" y="368" font-size="11" fill="#c3c2b7" text-anchor="middle" font-weight="400" font-family="ui-sans-serif, system-ui, sans-serif">8</text><text x="214.47619047619048" y="368" font-size="11" fill="#c3c2b7" text-anchor="middle" font-weight="400" font-family="ui-sans-serif, system-ui, sans-serif">16</text><text x="374.984126984127" y="368" font-size="11" fill="#c3c2b7" text-anchor="middle" font-weight="400" font-family="ui-sans-serif, system-ui, sans-serif">32</text><text x="696.0" y="368" font-size="11" fill="#c3c2b7" text-anchor="middle" font-weight="400" font-family="ui-sans-serif, system-ui, sans-serif">64</text><text x="380.0" y="388" font-size="11.5" fill="#c3c2b7" text-anchor="middle" font-weight="400" font-family="ui-sans-serif, system-ui, sans-serif">questions in one call</text><text x="20" y="200.0" font-size="11.5" fill="#c3c2b7" text-anchor="middle" transform="rotate(-90 20 200.0)" font-family="ui-sans-serif, system-ui, sans-serif">wall-clock ms</text><text x="64" y="26" font-size="13" fill="#ffffff" text-anchor="start" font-weight="600" font-family="ui-sans-serif, system-ui, sans-serif">Jev latency vs question count — 1 to 64 questions costs +16ms (p50; p95 dashed)</text><text x="72.0" y="148.149" font-size="11.5" fill="#ffffff" text-anchor="start" font-weight="400" font-family="ui-sans-serif, system-ui, sans-serif">502ms</text><text x="688.0" y="142.303" font-size="11.5" fill="#ffffff" text-anchor="end" font-weight="400" font-family="ui-sans-serif, system-ui, sans-serif">518ms</text></svg>