<svg xmlns="http://www.w3.org/2000/svg" width="116" height="165" fill="none" viewBox="0 0 116 165"><path fill="#152e45" d="M55.516 151.768c13.053-9.955 11.811-19.623 11.811-19.623s-7.967-.871-11.254-13.113c-7.916 5.235-16.402 7.281-20.944 8.05l-.014-.037c10.901-4.885 14.304-11.264 14.304-11.264s-10.66 3.846-18.13 2.38c-5.393-1.057-10.478-7.785-10.478-7.785s-2.868 5.891-.637 12.181c3.28 9.25 17.896 22.414 17.896 22.414s-4.63-1.442-10.439-5.976c2.593 19.776 26.253 25.599 26.253 25.599s-.049-.017-.135-.052l.135.052c7.295-2.148 7.955-12.826 7.955-12.826s-1.86.186-6.323 0"/><path fill="#fff" d="M34.298 108.457c4.682 1.861 10.213.718 10.213.718l-6.699-4.692-12.355-4.471s4.118 6.568 8.84 8.445m46.463 0c-4.683 1.861-10.214.718-10.214.718l6.699-4.692 12.355-4.471s-4.117 6.568-8.84 8.445"/><path fill="#637996" d="M32.099 115.534c6.156 1.413 13.917-3.699 13.917-3.699s-7.627.673-13.08-.252c-4.738-.804-10.406-4.612-10.406-4.612s3.412 7.151 9.569 8.563"/><path fill="#152e45" d="M41.36 101.261a96 96 0 0 1-6.001-1.446 103 103 0 0 1-10.59-3.557c-7.366-4.4-12.266-12.14-15.37-19.064 4.143 2.025 8.096 3.7 11.64 5.066 5.84 2.255 10.58 3.666 13.23 4.389 1.429 5.255 3.127 10.034 4.985 12.294a33 33 0 0 0 2.106 2.318m-7.9-17.738a108 108 0 0 1-8.749-2.817c-1.01-.368-1.985-.746-2.937-1.124-9.391-4.538-14.164-12.06-16.189-16.19 3.528 1.698 7.338 3.333 10.98 4.784 6.058 2.41 11.652 4.309 14.703 5.146.574 3.04 1.326 6.638 2.192 10.2M80.462 63.26s-4.04 26.992-9.34 33.428c-5.707 6.942-13.109 9.85-13.567 10.028q-.024.008-.023.006s-5.078-1.893-10.143-6.437l-.012-.011a33 33 0 0 1-3.442-3.586c-5.294-6.436-9.34-33.428-9.34-33.428z"/><path fill="#e51641" d="M69.045 111.835s7.762 5.112 13.918 3.699c6.155-1.412 9.568-8.562 9.568-8.562s-5.668 3.807-10.405 4.61c-5.453.926-13.081.253-13.081.253"/><path fill="#e51641" d="M94.887 122.557c2.231-6.29-.637-12.181-.637-12.181s-5.086 6.728-10.477 7.785c-7.471 1.466-18.131-2.38-18.131-2.38s3.403 6.379 14.304 11.263c-6.182 18.213-15.464 24.484-15.464 24.484s9.269-1.038 12.458-3.419c-5.467 12.73-15.762 16.485-15.762 16.485s23.66-5.823 26.252-25.599c-5.808 4.534-10.439 5.976-10.439 5.976s14.617-13.164 17.896-22.414"/><path fill="#637996" d="M53.855 164.583c-.678-.165-13.08-3.425-20.665-12.781-2.759-3.408-4.882-7.63-5.558-12.805 5.622 4.389 10.148 5.88 10.43 5.967-.442-.408-14.659-13.298-17.889-22.408-2.231-6.288.637-12.18.637-12.18s5.09 6.73 10.482 7.785c2.972.586 6.453.322 9.563-.194 4.704-.792 8.565-2.187 8.565-2.187s-3.402 6.38-14.302 11.262c6.179 18.214 15.461 24.485 15.461 24.485s-9.271-1.039-12.455-3.419c5.29 12.334 15.123 16.246 15.73 16.475"/><path fill="#0f1124" d="M105.664 77.195c-1.492 3.316-3.392 6.826-5.783 10.062-2.588 3.51-5.754 6.712-9.593 9.001-4.864 1.928-10.486 3.752-16.584 5.003a34 34 0 0 0 2.105-2.318c1.853-2.26 3.557-7.039 4.98-12.294 3.9-1.067 12.294-3.608 22.092-8.135.918-.418 1.841-.86 2.783-1.32m3.815-13.802a36.2 36.2 0 0 1-6.511 9.208 34.3 34.3 0 0 1-9.684 6.982 111 111 0 0 1-11.686 3.94c.872-3.562 1.617-7.16 2.197-10.2 4.102-1.124 12.787-4.17 21.031-7.796a145 145 0 0 0 4.653-2.134"/><path fill="#152e45" d="M113.701 44.828c-.683 3.35-2.719 6.259-5.645 8.009l-12.661 7.566c-.028.017-.063.035-.086.052l-.138.086-.063.04q-.017.008-.017.006l-3.953 2.364c.689-.505 11.732-8.784 15.151-20.44 0 0-4.636 3.613-12.455 6.464 3.597-16.763-11.216-28.242-11.216-28.242s.97 14.4-13.911 26.504c0 0 3.132-17.147-11.176-38.763-14.307 21.616-11.18 38.763-11.18 38.763C31.47 35.133 32.439 20.733 32.439 20.733s-14.807 11.48-11.21 28.242c-7.82-2.85-12.46-6.465-12.46-6.465 2.931 9.976 11.444 17.48 14.267 19.752.476.379.792.614.89.689L7.008 52.837a12.14 12.14 0 0 1-5.652-8.01C.41 40.165-.53 32.994.353 25.203 4.06 29.362 13.76 35.827 13.76 35.827S12.125 25.42 19.75 18.41c7.63-7.016 19.074-11.067 19.074-11.067s.465 3.85 1.865 7.929c.441 1.296.98 2.616 1.629 3.843.069.133.143.265.212.39C50.05 6.467 57.53 0 57.53 0s7.481 6.466 14.996 19.506c2.863-5.124 3.707-12.163 3.707-12.163s11.445 4.05 19.075 11.067c7.63 7.01 5.995 17.417 5.995 17.417s9.7-6.466 13.406-10.625c.883 7.791-.058 14.962-1.009 19.626"/><path fill="#0f1124" d="M46.016 61.346s21.343 25.352 10.653 45.625c5.288 4.276 13.946-4.234 13.946-4.234l7.842-20.363 3.142-21.877z"/><path fill="#0f1124" d="m79.7 64.676-.037-.279-.013-.1-.057-.086-.159-.244-.229-.342-.085-.127-.08-.026-.043-.054-.133-.167h-.484l-4.1-1.366-1.188-.397-.446-.148-.124.452L72.189 63l-.392 1.425-.331 1.26-.648 2.487-1.295 4.956-.168.624c-.378 1.396-.768 2.841-1.184 4.234-.478 1.618-.954 3.19-1.513 4.662a56 56 0 0 1-1.913 4.48c-.368.768-.76 1.522-1.1 2.167-.129.218-.263.456-.399.694-.275.483-.533.938-.813 1.367-.933 1.505-1.86 2.775-2.838 3.894-.175.205-.342.387-.509.568l-.302.332c-.072.068-.162.159-.252.249a10 10 0 0 1-.268.257q-.167.157-.323.315c-1.017 1.054-3.216 3.479-3.238 3.504l-.565.624.833.116c.014.002.327.045.833.045 1.118 0 3.293-.212 5.309-1.627q.123-.084.253-.159l.077-.046.037-.022.013-.008.013-.009.034-.024.348-.241c.266-.183.526-.362.787-.559l.005-.004.02-.015c.128-.103.243-.193.358-.284.248-.195.496-.39.736-.595l1.027-.904.024-.022.042-.04c.649-.638 1.32-1.3 1.938-2.01 1.307-1.43 2.404-2.97 3.393-4.418l.003-.005.014-.021c1.13-1.767 2.008-3.29 2.775-4.811 1.804-3.686 3.06-7.351 3.954-10.134.493-1.526.971-3.148 1.505-5.102l.135-.517c.177-.675.36-1.37.527-2.068l.302-1.276.147-.663.07-.317.01-.051c.023-.1.075-.338.04-.632"/><path fill="#0f1124" d="m79.7 58.107-.04-.29-.013-.106-.058-.089-.167-.255-.239-.357-.088-.132-.083-.028-.046-.056-.139-.173h-.504l-4.28-1.427-1.24-.413-.464-.156-.13.473-.347 1.26-.41 1.487-.345 1.315-.676 2.595-1.351 5.172-.176.65a179 179 0 0 1-1.234 4.419c-.5 1.688-.997 3.33-1.58 4.866a59 59 0 0 1-1.997 4.674 66 66 0 0 1-1.148 2.262c-.133.227-.275.475-.416.724-.287.504-.557.979-.848 1.427-.974 1.57-1.941 2.896-2.962 4.063-.182.214-.356.403-.53.593-.115.124-.485.512-.58.606-.1.1-.19.185-.278.27q-.176.163-.338.327c-1.061 1.1-3.356 3.631-3.379 3.657l-.59.65.87.122c.014.002.34.047.87.047 1.166 0 3.435-.221 5.54-1.698.084-.06.174-.112.263-.166l.08-.048.038-.023.014-.008.013-.01.037-.025q.181-.127.362-.251c.279-.192.55-.378.823-.584l.004-.003.021-.016c.134-.108.253-.201.374-.296.258-.204.518-.408.768-.621l1.072-.944.026-.022.043-.042c.677-.667 1.377-1.356 2.022-2.099 1.364-1.491 2.508-3.098 3.54-4.61l.004-.005.014-.021c1.18-1.844 2.096-3.435 2.895-5.021 1.884-3.846 3.195-7.672 4.127-10.575a116 116 0 0 0 1.57-5.324l.142-.541c.185-.704.376-1.43.55-2.158l.315-1.33.153-.693.072-.33.012-.054c.023-.104.078-.352.041-.66"/><path fill="#fff" d="M53.025 78.174h-3.39l-4.27 6.817 4.27 6.817h3.39l-4.269-6.817zm9.012 13.634h3.39l4.268-6.817-4.267-6.817h-3.391l4.268 6.817zm-21.704 54.423c-6.19-.24-10.171-4.251-10.171-4.251s.097 4.481 3.028 9.822c-2.759-3.408-4.882-7.63-5.558-12.805 5.622 4.389 10.148 5.88 10.43 5.967-.443-.407-14.659-13.298-17.889-22.408-2.231-6.288.637-12.18.637-12.18s5.089 6.73 10.482 7.785c2.971.586 6.453.321 9.563-.194-1.997 1.594-5.926 4.285-10.693 5.197 0 7.647 4.824 17.847 10.17 23.067"/><path fill="#e51641" d="M113.701 44.828c-.683 3.35-2.719 6.259-5.645 8.009l-12.661 7.566c1.922-1.181 12.224-7.785 14.084-14.549 2.047-7.463 1.588-12.287 1.588-12.287s-7.348 5.741-13.664 8.495c1.961-7.893 1.239-15.896-5.893-22.51-6.729-6.242-12.5-8.783-12.5-8.783s-1.577 16.681-5.87 26.015C71.72 18.123 57.531 3.253 57.531 3.253c-13.624 13.94-16.48 30.428-16.48 30.428s-2.198-5.894 1.479-14.176C50.05 6.466 57.532 0 57.532 0s7.48 6.466 14.995 19.505c2.863-5.123 3.707-12.162 3.707-12.162s11.445 4.05 19.075 11.067c7.63 7.01 5.995 17.417 5.995 17.417s9.7-6.466 13.406-10.625c.883 7.791-.058 14.962-1.009 19.626"/><path fill="#637996" d="M40.689 15.272c-1.096-1.027-2.668-2.696-3.77-4.682 0 0-11.898 4.813-17.192 15.662-3.74 7.659-.483 18.811-.483 18.811S10.18 42.172 3.147 32.901c0 11.691 6.379 21.398 19.89 29.361.476.378.79.614.889.688L7.006 52.837a12.14 12.14 0 0 1-5.65-8.01C.41 40.165-.531 32.994.353 25.203 4.06 29.362 13.76 35.827 13.76 35.827S12.125 25.42 19.75 18.41c7.63-7.017 19.074-11.067 19.074-11.067s.465 3.85 1.865 7.929"/><path fill="#e51641" d="M80.462 63.26s-4.04 26.992-9.34 33.428c-5.707 6.942-13.109 9.85-13.567 10.028q-.024.008-.023.006s8.823-6.907 11.514-13.533 7.931-28.065 7.931-28.065L61.811 63.26z"/><path fill="#637996" d="M38.388 65.55s3.402 26.021 8.99 34.724a33 33 0 0 1-3.443-3.585c-5.294-6.437-9.339-33.43-9.339-33.43h12.908zM33.46 83.523a108 108 0 0 1-8.749-2.817c-4.681-2.788-7.59-6.362-7.59-6.362s4.328 2.618 9.97 3.408c-8.128-5.074-10.526-9.576-10.526-9.576 6.058 2.41 11.652 4.309 14.703 5.146.574 3.04 1.326 6.638 2.192 10.2m7.9 17.739a96 96 0 0 1-6.001-1.446c-8.955-3.792-16.12-11.365-16.396-11.657.235.12 5.708 2.92 13.935 4.141-5.106-2.144-10.39-8.255-11.859-10.039 5.84 2.255 10.58 3.666 13.23 4.389 1.429 5.255 3.127 10.034 4.985 12.294a33 33 0 0 0 2.106 2.318"/><path fill="#e51641" d="M81.603 83.523a107 107 0 0 0 8.749-2.817c4.681-2.788 7.59-6.362 7.59-6.362s-4.327 2.618-9.97 3.408c8.128-5.074 10.526-9.576 10.526-9.576-6.058 2.41-11.651 4.309-14.704 5.146a205 205 0 0 1-2.19 10.2m-7.9 17.739a96 96 0 0 0 6-1.446C88.66 96.023 95.825 88.45 96.1 88.158c-.236.12-5.709 2.92-13.935 4.141 5.105-2.144 10.389-8.255 11.858-10.039-5.84 2.255-10.58 3.666-13.23 4.389-1.428 5.255-3.126 10.034-4.985 12.294a33 33 0 0 1-2.105 2.318"/></svg>