<svg xmlns="http://www.w3.org/2000/svg" width="915" height="614" fill="none" viewBox="0 0 915 614"><path fill="#b1b1b1" d="m513.078 420.108-12.177 31.87-7.187 36.875 14.5-35.276z"/><path fill="#0f1123" d="m651.047 249.733-47.735-43.604s3.636-55.505-2.598-88.344C570.62 54.874 528.906 21.77 528.906 21.77 503.896 10.76 496.583 8.097 462.807.472a19.2 19.2 0 0 0-8.468 0C420.562 8.098 413.25 10.759 388.24 21.77c0 0-41.709 33.104-71.808 96.015-6.229 32.839-2.599 88.344-2.599 88.344l-47.729 43.604-61.557 40.182c11.354 6.203 133.599 87.516 133.599 87.516l12.448 17.422 107.979 70.078 107.979-70.078 12.453-17.422s122.245-81.313 133.599-87.516"/><path fill="#142d45" d="M454.865 343.993c24.026-18.328 21.744-36.125 21.744-36.125s-14.666-1.598-20.718-24.135c-14.573 9.635-30.193 13.401-38.552 14.818q-.017-.038-.027-.068c20.068-8.995 26.329-20.734 26.329-20.734s-19.62 7.078-33.37 4.38c-9.927-1.948-19.292-14.328-19.292-14.328s-5.276 10.844-1.172 22.422c6.037 17.026 32.943 41.255 32.943 41.255s-8.521-2.651-19.214-11c4.771 36.406 48.323 47.125 48.323 47.125s-.088-.031-.244-.094c.083.026.161.063.244.094 13.433-3.953 14.646-23.61 14.646-23.61s-3.422.339-11.64 0"/><path fill="#fff" d="M415.807 264.264c8.62 3.427 18.802 1.323 18.802 1.323l-12.333-8.635-22.745-8.229s7.584 12.088 16.276 15.541m85.526 0c-8.619 3.427-18.802 1.323-18.802 1.323l12.334-8.635 22.744-8.229s-7.578 12.088-16.276 15.541"/><path fill="#627995" d="M411.76 277.295c11.329 2.599 25.615-6.812 25.615-6.812s-14.036 1.239-24.078-.464c-8.719-1.479-19.151-8.489-19.151-8.489s6.281 13.166 17.614 15.765"/><path fill="#142d45" d="M425.172 374.462c2.021 6.974 12.635 43.583 15.25 52.021 2.51 8.109 5.193 13.385 6.781 16.114.594 1.021 2.089.912 2.537-.182 1.203-2.906 2.911-8.141 2.781-14.078-.167-7.229-2.547-31.62-3.505-41.214-10-3.192-17.891-7.791-23.844-12.661m3.635-123.443a174 174 0 0 1-11.047-2.661 190 190 0 0 1-19.494-6.547c-13.558-8.099-22.578-22.344-28.292-35.094a269 269 0 0 0 21.427 9.328c10.75 4.151 19.474 6.745 24.354 8.079 2.63 9.671 5.755 18.468 9.177 22.63a59 59 0 0 0 3.875 4.265m-14.541-32.651a197 197 0 0 1-16.105-5.187 177 177 0 0 1-5.406-2.068c-17.291-8.354-26.073-22.198-29.802-29.802 6.495 3.125 13.505 6.135 20.214 8.807 11.151 4.433 21.448 7.933 27.062 9.469a380 380 0 0 0 4.037 18.781"/><path fill="#142d45" d="M345.417 105.681s-15.167 16.557-16.063 29.718c-3.088 45.667-.979 72.62 4.87 122.073 2.88 24.355 8.318 47.464 14.146 67.183.458 1.317 16.854 48.25 23.781 48.25 5.38 0-7.901-47.24-7.901-47.24v.01a559 559 0 0 1-6.885-27.125c23.849 65.428 45.177 110.855 45.177 110.855l31.948 26.057s-57.516-112.141-72.776-171.682c-12.365-48.235-16.297-158.099-16.297-158.099m-11.334 251.312a567 567 0 0 0-8.672-6.588c-23.531-17.662-60.213-43.099-95.349-58.985 28.282-17.906 33.349-20.843 33.349-20.843 25.829 11.817 43.349 25.734 54.704 37.224a137 137 0 0 1 6.776 7.375c2.187 12.786 5.177 26.755 9.192 41.817m-12.411-64.145a170 170 0 0 0-12.938-13.094 167 167 0 0 0-7.307-6.302 179 179 0 0 0-16.391-11.917c15.834-12.88 31.527-27.167 35.287-30.609-.891 8.932-1.839 25.901.135 49.692.308 3.719.677 7.594 1.151 11.631zm179.115-111.782s-7.438 49.688-17.193 61.537c-10.505 12.776-24.13 18.13-24.974 18.458-.031.011-.047.011-.047.011s-9.344-3.485-18.667-11.849l-.021-.021a61 61 0 0 1-6.338-6.599c-9.745-11.849-17.193-61.537-17.193-61.537"/><path fill="#e41541" d="M479.771 270.483s14.286 9.411 25.62 6.812c11.328-2.604 17.614-15.765 17.614-15.765s-10.437 7.01-19.156 8.489c-10.036 1.703-24.078.464-24.078.464"/><path fill="#e41541" d="M527.339 290.223c4.109-11.584-1.172-22.422-1.172-22.422s-9.36 12.38-19.287 14.328c-13.755 2.698-33.375-4.38-33.375-4.38s6.266 11.739 26.328 20.734c-11.38 33.526-28.463 45.068-28.463 45.068s17.062-1.912 22.932-6.292c-10.062 23.432-29.016 30.344-29.016 30.344s43.553-10.719 48.329-47.125c-10.693 8.349-19.219 11-19.219 11s26.906-24.229 32.943-41.255"/><path fill="#627995" d="M451.807 367.582c-1.25-.307-24.078-6.307-38.041-23.526-5.078-6.271-8.985-14.047-10.229-23.573 10.348 8.078 18.682 10.823 19.197 10.984-.812-.75-26.979-24.479-32.927-41.25-4.109-11.572 1.172-22.416 1.172-22.416s9.365 12.385 19.297 14.328c5.469 1.078 11.875.594 17.599-.359 8.662-1.459 15.771-4.021 15.771-4.021s-6.266 11.739-26.328 20.729c11.37 33.531 28.458 45.073 28.458 45.073s-17.068-1.912-22.927-6.297c9.74 22.703 27.839 29.906 28.958 30.328"/><path fill="#142d45" d="M491.979 374.457c-1.364 4.708-6.667 22.979-10.75 36.932-1.974 6.672-3.656 12.365-4.5 15.089-2.51 8.109-5.198 13.39-6.781 16.114a1.42 1.42 0 0 1-2.547-.177c-1.187-2.906-2.901-8.13-2.776-14.078.036-1.552.172-3.885.38-6.682.74-10.307 2.37-26.984 3.125-34.537 10-3.187 17.891-7.791 23.849-12.661"/><path fill="#0f1123" d="M547.177 206.717c-2.745 6.104-6.245 12.568-10.646 18.526-4.76 6.459-10.593 12.354-17.656 16.568-8.953 3.547-19.307 6.906-30.531 9.208a60 60 0 0 0 3.875-4.265c3.411-4.162 6.547-12.959 9.166-22.63 7.183-1.964 22.631-6.646 40.667-14.974a203 203 0 0 0 5.125-2.433m7.021-25.406c-2.13 4.349-5.912 10.719-11.984 16.948a63.2 63.2 0 0 1-17.823 12.854c-6.49 2.583-13.73 5.12-21.516 7.255 1.609-6.557 2.979-13.182 4.047-18.781 7.552-2.068 23.536-7.672 38.713-14.349a264 264 0 0 0 8.563-3.927"/><path fill="#142d45" d="M561.974 147.139c-1.26 6.167-5.01 11.521-10.391 14.74l-23.307 13.927c-.052.036-.12.067-.161.099l-.25.156-.12.078c-.021.01-.031.01-.031.01l-7.276 4.349c1.27-.927 21.598-16.172 27.89-37.625 0 0-8.536 6.651-22.927 11.901 6.62-30.859-20.646-51.989-20.646-51.989s1.787 26.505-25.609 48.786c0 0 5.765-31.562-20.573-71.354-26.333 39.792-20.578 71.354-20.578 71.354-27.396-22.281-25.61-48.786-25.61-48.786s-27.255 21.13-20.635 51.989c-14.396-5.25-22.937-11.901-22.937-11.901 5.395 18.365 21.067 32.177 26.265 36.355.875.697 1.458 1.135 1.636 1.27l-31.141-18.619c-5.385-3.219-9.146-8.573-10.406-14.74-1.74-8.589-3.469-21.786-1.844-36.13 6.823 7.656 24.677 19.562 24.677 19.562s-3.01-19.156 11.026-32.062c14.047-12.917 35.115-20.37 35.115-20.37s.854 7.083 3.432 14.594c.812 2.385 1.802 4.812 2.995 7.073.13.244.265.489.39.718 13.849-24 27.615-35.906 27.615-35.906s13.771 11.906 27.604 35.906C491.448 91.092 493 78.139 493 78.139s21.068 7.453 35.115 20.37c14.046 12.906 11.036 32.062 11.036 32.062s17.854-11.906 24.677-19.562c1.625 14.344-.104 27.541-1.854 36.13"/><path fill="#142d45" d="M582.922 257.472c-2.88 24.349-8.307 47.438-14.141 67.151 0 0-.047.532-.474 1.334-8.677 16.281-19.422 26.833-18.317 16.474.52-4.907 4.786-16.453 16.567-68.729-28.422 85.755-67.156 127.859-67.156 127.859s7.563-13.479 28.766-62.995c11.416-26.667 21.937-53.943 27.271-74.792 12.364-48.229 16.291-158.093 16.291-158.093s15.167 16.557 16.063 29.724c3.093 45.661.984 72.614-4.87 122.067M515.411 55.129c-14.479-10.307-28.671-14.651-41.765-16.297-5.219-.656-10.255-.875-15.073-.875-10.844 0-21.839 1.76-34.276 6.416-6.979 2.6-14.427 6.115-22.557 10.756 23.161-3.75 42.77-.667 51.692 1.276-19.843.896-38.989 6.843-55.359 14.067-28.37 12.5-48.375 28.85-48.995 29.355 7.031-13.177 38.224-52.854 53.813-63.854 6.359-4.51 16.833-7.797 26.984-10.13 8.234-1.88 16.26-3.126 21.719-3.865 4.281-.573 6.979-.823 6.979-.823L460 21.3c7.266.791 40.427 4.89 54.26 14.671 15.573 11 46.802 50.698 53.829 63.865 0 0-49.605-40.953-104.37-43.432 8.911-1.943 28.536-5.026 51.692-1.276M653.74 270.571c-31.667 14.5-50.844 32.13-61.485 44.599-2.187 12.792-5.172 26.766-9.187 41.818 22.396-17.297 64.203-47.568 104.021-65.563-28.287-17.916-33.349-20.854-33.349-20.854m-21.636-9.041c-15.828-12.881-31.521-27.167-35.281-30.615 1.042 10.406 2.141 31.693-1.354 61.932 7.161-8.104 19.401-20.224 36.635-31.317"/><path fill="#0f1123" d="M437.38 177.545s39.287 46.667 19.61 83.985c9.729 7.875 25.671-7.792 25.671-7.792l14.433-37.484 5.786-40.271"/><path fill="#0f1123" d="m499.38 183.676-.062-.516-.026-.182-.104-.162-.292-.448-.422-.63-.156-.229-.146-.052-.083-.099-.245-.307h-.891l-9.734-3.245-.818-.271-.229.833-.615 2.219-.724 2.625-.609 2.318-1.193 4.578-2.38 9.125-.312 1.146c-.693 2.573-1.412 5.234-2.178 7.797-.88 2.979-1.755 5.875-2.786 8.583-1.141 3-2.323 5.771-3.521 8.245a115 115 0 0 1-2.026 3.989c-.234.402-.484.839-.734 1.277-.505.89-.979 1.729-1.495 2.52-1.719 2.766-3.422 5.105-5.224 7.167-.323.375-.63.708-.937 1.042-.198.218-.381.416-.558.614-.13.125-.297.292-.463.459-.177.171-.334.328-.49.474-.208.192-.406.38-.599.578-1.87 1.937-5.922 6.406-5.958 6.448l-1.042 1.151 1.537.213c.02 0 .599.084 1.531.084 2.057 0 6.062-.391 9.771-2.995a9 9 0 0 1 .463-.292l.146-.088.068-.042.021-.011.026-.015.062-.047q.32-.225.641-.443c.489-.338.968-.666 1.448-1.031l.01-.005.037-.026c.239-.193.447-.36.661-.526.453-.36.911-.719 1.354-1.094l1.891-1.667.047-.036.073-.078c1.192-1.172 2.432-2.391 3.567-3.698 2.407-2.63 4.427-5.464 6.245-8.13l.011-.011.02-.042c2.084-3.25 3.698-6.057 5.11-8.854 3.323-6.786 5.635-13.531 7.281-18.656.906-2.807 1.786-5.792 2.766-9.391l.25-.953c.328-1.239.666-2.521.974-3.807l.552-2.344.27-1.224.131-.583.015-.094c.042-.182.141-.62.073-1.161"/><path fill="#0f1123" d="m499.38 171.582-.068-.536-.026-.193-.109-.162-.307-.474-.438-.656-.161-.239-.156-.052-.084-.105-.255-.317h-.927l-7.88-2.631-2.281-.755-.855-.286-.239.87-.641 2.317-.755 2.735-.63 2.422-1.245 4.781-2.49 9.515-.323 1.198c-.724 2.683-1.474 5.459-2.27 8.136-.922 3.104-1.839 6.13-2.912 8.958a108 108 0 0 1-3.672 8.604 132 132 0 0 1-2.114 4.162c-.245.422-.506.875-.766 1.333-.526.927-1.026 1.802-1.562 2.625-1.792 2.891-3.573 5.333-5.454 7.479-.333.396-.656.745-.974 1.094-.213.229-.895.943-1.067 1.115a22 22 0 0 1-.511.494c-.218.203-.427.401-.625.604-1.953 2.021-6.177 6.688-6.218 6.735l-1.084 1.193 1.599.224c.026.005.625.088 1.599.088 2.146 0 6.328-.406 10.198-3.125.156-.109.323-.208.484-.307l.151-.084.068-.046.052-.032.063-.047c.224-.156.448-.307.672-.463.51-.349 1.01-.693 1.51-1.073l.011-.005.036-.031.693-.547c.474-.37.948-.75 1.411-1.141l1.969-1.74.052-.041.078-.073c1.245-1.229 2.537-2.495 3.724-3.865 2.51-2.745 4.615-5.703 6.516-8.484l.01-.011.021-.041c2.172-3.396 3.859-6.323 5.333-9.24 3.464-7.083 5.875-14.12 7.594-19.469.948-2.932 1.87-6.046 2.891-9.796l.26-1c.344-1.292.693-2.631 1.016-3.969l.578-2.453.281-1.271.135-.609.021-.099c.042-.193.141-.646.073-1.214"/><path fill="#fff" d="M450.281 208.52h-6.244l-7.855 12.552 7.855 12.546h6.244l-7.859-12.546m24.448 12.546h6.239l7.855-12.546-7.855-12.552h-6.239l7.854 12.552"/><path fill="#627995" d="M348.844 325.957c-.307-.859-.474-1.333-.474-1.333-5.833-19.714-11.261-42.803-14.141-67.151-1.416-11.99-2.609-22.641-3.573-32.568-2.5-25.938-3.364-46.86-2.203-73.224 3.735-7.787 9.417-16.573 17.985-24.167.927 17.672 2.572 43.787 5.14 69.745 2.464 24.812 5.776 49.505 10.141 66.516 5.328 20.849 15.849 48.125 27.265 74.791-15.395-30.416-39.864-74.823-47.552-126.39-5.692 27.911 3.516 88.151 7.412 113.781"/><path fill="#e41541" d="M568.307 325.957c.308-.859.474-1.333.474-1.333 5.834-19.714 11.261-42.803 14.146-67.151 5.12-43.297 7.38-69.339 5.776-105.792-3.739-7.787-9.422-16.573-17.984-24.167-1.828 34.557-6.36 101.453-15.281 136.261-5.334 20.849-15.855 48.125-27.266 74.791 15.396-30.416 39.864-74.823 47.552-126.39 5.693 27.911-3.516 88.151-7.417 113.781"/><path fill="#fff" d="M351.578 197.259c-3.318-6.833-8.755-18.453-13.661-30.745-5.907 22.792-7.047 48.662-7.255 58.391-2.506-25.938-3.37-46.859-2.209-73.224 3.735-7.786 9.417-16.573 17.985-24.161.927 17.666 2.578 43.781 5.14 69.739"/><path fill="#e41541" d="M491.979 374.457c-1.364 4.708-6.666 22.979-10.75 36.932-.437-3.656-1.312-16.369-2.927-22.271-6.463 14.381-10.963 28.954-13.297 32.537.74-10.307 2.37-26.984 3.125-34.537 10-3.187 17.891-7.791 23.849-12.661"/><path fill="#627995" d="M425.172 374.457c1.359 4.708 6.661 22.979 10.75 36.932.432-3.656 1.307-16.369 2.927-22.271 6.464 14.381 10.958 28.954 13.292 32.537-.74-10.307-2.365-26.984-3.125-34.537-10-3.187-17.891-7.791-23.844-12.661m-99.761-24.052c-12.692-9.531-29.208-21.313-47.255-32.646-15.401-9.682-31.916-19.016-48.094-26.333 28.282-17.912 33.349-20.849 33.349-20.849 10.61 4.859 19.834 10.073 27.787 15.323 11.401 7.531 20.234 15.135 26.917 21.901 0 0-24.776-12.631-55.105-18.365 42.907 33.339 62.401 60.969 62.401 60.969"/><path fill="#e41541" d="M591.74 350.405c23.531-17.662 60.213-43.099 95.349-58.979-28.276-17.912-33.349-20.849-33.349-20.849-25.829 11.817-43.349 25.734-54.704 37.224 0 0 24.771-12.625 55.11-18.365-42.912 33.339-62.406 60.969-62.406 60.969"/><path fill="#627995" d="M321.609 292.249c-7.953-12.761-11.437-29.678-11.437-29.678l-8.745 10.881a178 178 0 0 0-9.323-7.131 183 183 0 0 0-7.068-4.786c15.834-12.88 31.527-27.172 35.287-30.615-.542 5.474-1.109 13.954-1.016 25.167.063 7.109.391 15.302 1.151 24.531.308 3.719.677 7.594 1.151 11.631"/><path fill="#e41541" d="M595.5 292.249c7.953-12.756 11.438-29.678 11.438-29.678l8.744 10.881a179 179 0 0 1 16.391-11.917c-15.833-12.88-31.521-27.172-35.281-30.615.885 8.938 1.838 25.907-.141 49.698a326 326 0 0 1-1.151 11.631"/><path fill="#fff" d="M252.682 284.431c8.141 9.724 19.948 25.745 25.474 33.328-15.401-9.682-31.916-19.016-48.094-26.339 28.282-17.906 33.349-20.843 33.349-20.843 10.615 4.859 19.834 10.073 27.787 15.323-7.51-1.318-23.234-3.454-38.516-1.469m66.625-28.344-4.953-10.74-22.25 20.974a177 177 0 0 0-7.068-4.786c15.834-12.88 31.527-27.172 35.282-30.615-.537 5.474-1.104 13.954-1.011 25.167m107.61 77.714c-11.396-.443-18.724-7.828-18.724-7.828s.177 8.25 5.573 18.083c-5.078-6.271-8.985-14.047-10.229-23.573 10.348 8.078 18.682 10.823 19.197 10.984-.812-.75-26.979-24.479-32.927-41.25-4.109-11.572 1.172-22.416 1.172-22.416s9.37 12.385 19.297 14.328c5.469 1.078 11.875.588 17.599-.359-3.672 2.937-10.906 7.89-19.682 9.567 0 14.078 8.88 32.854 18.724 42.464"/><path fill="#627995" d="M381.214 69.316s4.75.964 16.859 1.151c-28.828 12.709-49.005 29.37-49.005 29.37 7.021-13.167 38.239-52.865 53.823-63.87 6.359-4.505 16.833-7.791 26.984-10.125-33.635 16.084-48.661 43.474-48.661 43.474"/><path fill="#e41541" d="M535.974 69.316s-4.755.964-16.865 1.151c28.829 12.709 49.006 29.37 49.006 29.37-7.021-13.167-38.235-52.865-53.823-63.87-6.36-4.505-16.834-7.791-26.98-10.125 33.631 16.084 48.662 43.474 48.662 43.474m26 77.823c-1.26 6.167-5.01 11.521-10.391 14.74l-23.307 13.927c3.536-2.172 22.5-14.328 25.922-26.776 3.771-13.74 2.927-22.62 2.927-22.62s-13.526 10.568-25.156 15.635c3.614-14.526 2.281-29.26-10.844-41.437-12.391-11.49-23.01-16.167-23.01-16.167s-2.907 30.708-10.803 47.891c-2.619-34.354-28.739-61.724-28.739-61.724-25.078 25.661-30.339 56.01-30.339 56.01s-4.041-10.849 2.724-26.094c13.849-24 27.615-35.906 27.615-35.906s13.771 11.906 27.604 35.906C491.448 91.092 493 78.139 493 78.139s21.068 7.453 35.115 20.37c14.046 12.906 11.036 32.062 11.036 32.062s17.854-11.906 24.677-19.562c1.625 14.344-.104 27.541-1.854 36.13"/><path fill="#627995" d="M427.573 92.733c-2.021-1.89-4.912-4.964-6.943-8.62 0 0-21.901 8.86-31.646 28.828-6.885 14.099-.885 34.63-.885 34.63s-16.688-5.323-29.635-22.39c0 21.52 11.744 39.39 36.614 54.052.875.692 1.458 1.13 1.636 1.265l-31.141-18.619c-5.385-3.219-9.146-8.573-10.401-14.74-1.745-8.589-3.474-21.786-1.849-36.13 6.823 7.656 24.677 19.557 24.677 19.557s-3.01-19.156 11.026-32.057c14.047-12.917 35.115-20.375 35.115-20.375s.854 7.088 3.432 14.599M460 21.3l13.646 17.532c-5.219-.656-10.255-.875-15.073-.875-10.844 0-21.833 1.76-34.276 6.417 10.349-13.084 20.411-19.323 27.297-22.396"/><path fill="#e41541" d="M500.787 181.066s-7.438 49.688-17.193 61.537c-10.505 12.776-24.13 18.13-24.974 18.458-.031.011-.047.011-.047.011s16.245-12.714 21.198-24.912 14.599-51.661 14.599-51.661l-27.917-3.433"/><path fill="#627995" d="M423.333 185.285s6.266 47.896 16.552 63.917a61 61 0 0 1-6.338-6.599c-9.745-11.849-17.193-61.537-17.193-61.537h23.761m-25.849 37.302a197 197 0 0 1-16.105-5.187c-8.619-5.131-13.973-11.709-13.973-11.709s7.968 4.818 18.354 6.271c-14.964-9.338-19.375-17.625-19.375-17.625 11.151 4.432 21.448 7.932 27.062 9.469a380 380 0 0 0 4.037 18.781m14.541 32.651a174 174 0 0 1-11.047-2.661c-16.484-6.979-29.671-20.922-30.182-21.458.432.224 10.511 5.375 25.651 7.625-9.396-3.948-19.125-15.198-21.828-18.48 10.75 4.151 19.474 6.745 24.354 8.079 2.63 9.671 5.755 18.468 9.177 22.63a59 59 0 0 0 3.875 4.265"/><path fill="#e41541" d="M502.885 218.368a197 197 0 0 0 16.105-5.187c8.619-5.131 13.974-11.709 13.974-11.709s-7.969 4.818-18.355 6.271c14.964-9.338 19.381-17.625 19.381-17.625-11.157 4.432-21.453 7.932-27.068 9.469a380 380 0 0 1-4.037 18.781m-14.541 32.651a174 174 0 0 0 11.047-2.661c16.484-6.979 29.677-20.922 30.182-21.458-.432.224-10.511 5.375-25.651 7.625 9.396-3.948 19.125-15.198 21.828-18.48-10.75 4.151-19.474 6.745-24.354 8.079-2.63 9.671-5.755 18.468-9.177 22.63a59 59 0 0 1-3.875 4.265"/><path fill="#e41541" d="m517.609 426.618 47.542-33.927-.693.667 12.448-17.427.282-.385.39-.261 66.589-44.099 33.38-21.927 16.75-10.896 8.422-5.396c2.828-1.776 5.635-3.562 8.646-5.312l-.172 4.417-61.552-40.177-.177-.12-.157-.141-47.734-43.599-.906-.833.078-1.24v-.005c.531-7.292.885-14.661 1.151-22 .245-7.354.411-14.708.37-22.057-.052-7.349-.177-14.698-.646-22.021-.464-7.318-1.136-14.625-2.365-21.818l.12.365-3.297-6.75c-1.114-2.24-2.151-4.526-3.38-6.709-2.391-4.401-4.677-8.864-7.297-13.14-4.979-8.703-10.583-17.042-16.391-25.224-5.843-8.162-12.161-15.984-18.796-23.526-6.667-7.51-13.662-14.771-21.308-21.307 7.808 6.349 14.99 13.442 21.86 20.807 6.838 7.396 13.369 15.088 19.437 23.14 6.037 8.079 11.875 16.323 17.109 24.959 2.74 4.245 5.157 8.682 7.678 13.057 1.291 2.172 2.39 4.448 3.572 6.682l3.495 6.73.073.145.042.219c1.443 7.328 2.302 14.719 2.958 22.115.651 7.396.959 14.807 1.198 22.213.224 7.406.234 14.813.172 22.224-.083 7.412-.26 14.792-.615 22.235v.005l-.833-2.073 47.729 43.604-.328-.255 61.557 40.182 3.495 2.281-3.672 2.136c-2.739 1.599-5.552 3.375-8.354 5.14l-8.39 5.375-16.724 10.881L647 335.483l-66.573 44.094.672-.651-12.453 17.427-.37.469-.323.192"/><path fill="#627995" d="m399.542 426.618-50.349-29.604-.323-.192-.37-.469-12.453-17.427.672.651-66.573-44.094-33.365-21.911-16.724-10.881-8.385-5.375c-2.807-1.765-5.615-3.541-8.359-5.14l-3.667-2.136 3.495-2.281 61.552-40.182-.328.255 47.734-43.604-.833 2.073v-.005c-.36-7.443-.537-14.823-.615-22.235-.068-7.411-.052-14.818.172-22.224.234-7.406.542-14.817 1.198-22.213.651-7.396 1.515-14.787 2.953-22.115l.042-.219.078-.145 3.495-6.73c1.177-2.234 2.276-4.51 3.567-6.682 2.521-4.375 4.938-8.812 7.683-13.057 5.229-8.636 11.067-16.88 17.104-24.959 6.067-8.052 12.604-15.744 19.437-23.14 6.87-7.365 14.052-14.458 21.86-20.807-7.646 6.536-14.641 13.796-21.308 21.307-6.635 7.541-12.953 15.364-18.791 23.526-5.813 8.182-11.412 16.52-16.396 25.224-2.615 4.276-4.906 8.739-7.297 13.14-1.229 2.183-2.26 4.469-3.38 6.709l-3.297 6.75.12-.365c-1.23 7.193-1.896 14.5-2.365 21.818-.469 7.323-.588 14.672-.641 22.021-.041 7.349.125 14.703.37 22.057.261 7.339.62 14.708 1.151 22v.005l.078 1.24-.911.833-47.734 43.599-.157.141-.172.12-61.557 40.177-.172-4.417c3.011 1.75 5.818 3.536 8.646 5.312l8.422 5.396 16.75 10.896 33.385 21.927 66.589 44.099.391.261.276.385 12.448 17.427-.688-.667"/><path fill="#e41541" d="m914.938 571.504-68.256 41.698 54.985-46.703"/><path fill="#0f1123" d="M122.995 504.431c-1.375-5.38-2.745-10.76-4.115-16.161a3996 3996 0 0 1-4.047-16.209 10836 10836 0 0 1-4.01-16.255h1.838q-.375.783-.75 1.589c.766 2.812 1.532 5.614 2.282 8.406.817 3.067 1.656 6.13 2.495 9.198 1.619 5.859 3.223 11.724 4.843 17.583.266.948.537 1.891.802 2.833 1.375 4.917 2.745 9.839 4.115 14.756 1.661 5.859 3.318 11.724 4.99 17.567-2.615.323-5.235.625-7.855.927 1.193-2.729 2.37-5.416 3.563-8.109a3838 3838 0 0 1-4.151-16.125m140.51-48.625 1.177 2.927 2.063 5.13h-.229c-1.407.052-2.818.125-4.224.177-.818.037-1.641.073-2.459.105.177-2.797.355-5.558.537-8.339zm71.912 0c-.146 3.318-.266 6.63-.412 9.964-.229 5.968-.463 11.953-.713 17.958l7.448 27.385q-7.213.297-14.433.641c.021-.287.021-.589.037-.87.39-9.318.786-18.568 1.177-27.781.39-9.141.765-18.245 1.156-27.297zm31.927 42.302 7.557-.109c1.208-.016 2.422-.037 3.635-.052-.109 3.958-.213 7.911-.322 11.885-4.792.141-9.605.302-14.396.464-.729-3.938-1.604-8-2.568-12.099 2.031-.037 4.063-.073 6.094-.089m21.187-19.245-.198 8.323-1.281-8.323zm-99.937 20.922c1.229-.042 2.437-.073 3.651-.109 1.208-.037 2.437-.052 3.651-.089l.265-4.974c.073-1.656.162-3.297.25-4.953.073-1.281.146-2.583.198-3.864l.375 1.031c-.036.64-.052 1.265-.088 1.911-.214 4.078-.432 8.177-.641 12.292-.213 4.115-.427 8.229-.646 12.365-1.708.104-3.437.213-5.145.322l-5.454-13.828q1.788-.056 3.584-.104M185.536 521.77c.125-1.428.23-2.855.355-4.277l2.708 4.167c-1.036.11-2.047.214-3.083.302 0-.067.02-.14.02-.192m4.521-54.079c.058-.567.11-1.156.146-1.729l.958 1.677c-.369.016-.729.037-1.104.052m200.948 61.401c-.567.016-1.156.037-1.724.037.068-3.156.141-6.292.193-9.443zm25.448-73.286c-.109 7.234-.198 14.505-.302 21.812-.146 10.402-.271 20.865-.411 31.396-2.334.032-4.651.068-6.985.12-2.317.037-4.651.073-6.969.125-1.281.037-2.567.057-3.864.089.177-9.032.354-17.995.531-26.922s.339-17.797.521-26.62zm36.844 0c0 2.745-.016 5.474-.016 8.234 0 5.823-.021 11.688-.021 17.552.089 9.047.162 18.084.25 27.115-1.369 0-2.744 0-4.114.021-2.672 0-5.344.015-8.016.015-2.677.021-5.349.037-8.021.073-1.119 0-2.244.016-3.364.016 0-.625.015-1.245.015-1.854.089-8.266.141-16.495.214-24.708.089-8.875.161-17.698.25-26.464zm.573 22.828h10.864c1.198.016 2.407.016 3.62.016v2.958h-6.63c-1.406-.016-2.813-.016-4.24-.016h-3.614zm16.265-14.578c0-2.745-.015-5.505-.036-8.25h21.615c.088 8.786.192 17.604.281 26.495.109 8.823.219 17.692.307 26.62-1.427-.016-2.854-.037-4.297-.053-3.401-.036-6.802-.072-10.187-.088-2.802-.016-5.578-.037-8.36-.052l.75-27.099c-.02-5.886-.036-11.745-.073-17.573m83.938-8.25-4.667 23.219c.052 1.583.104 3.172.146 4.76.052 1.583.104 3.167.141 4.771.052 1.589.104 3.187.14 4.776.052 1.604.11 3.208.162 4.813l3.635.052c.802.015 1.604.015 2.406.036l-2.729 12.13q-.584-.021-1.177-.052c-2.312-.073-4.646-.161-6.963-.229-2.334-.073-4.651-.146-6.969-.198-.281-10.62-.552-21.146-.833-31.625-.198-7.521-.396-15.005-.573-22.453zm9.104 66.464c.75.015 1.484.031 2.229.052.089 2.692.177 5.395.287 8.088a425 425 0 0 1-4.542-.177zm11.781-66.464H586.5c.396 9.052.786 18.156 1.161 27.318.391 9.208.782 18.474 1.193 27.776 0 .302.021.609.037.906l-5.667-.266c-.177-4.224-.339-8.427-.516-12.63 0-.177-.02-.338-.02-.515a7469 7469 0 0 0-.48-12.032c-.161-4.166-.338-8.317-.5-12.453-.156-4.135-.317-8.25-.494-12.364l-4.209-.11c-1.14-.031-2.26-.052-3.401-.088zm43.063 0c.375 7.219.75 14.469 1.125 21.76.39 7.318.765 14.662 1.156 22.058.25 4.593.479 9.244.734 13.875-.072 0-.161 0-.234-.016-.573-10.922-1.141-21.771-1.693-32.568a6549 6549 0 0 1-.838-16.02c-.162-3.032-.323-6.058-.479-9.089zm83.995 0-2.547 4.99-.308.588c-.14-1.854-.281-3.724-.427-5.578zm5.13 46.771-4.24 7.359c-.198-2.526-.39-5.057-.573-7.573q2.407.11 4.813.214m81.338 7.594c1.657-5.865 3.282-11.724 4.917-17.589 1.62-5.859 3.245-11.724 4.849-17.583a5726 5726 0 0 0 4.771-17.604c-.25-.537-.495-1.068-.745-1.589h1.833q-2.006 8.155-4.005 16.255a4796 4796 0 0 1-4.047 16.209c-1.375 5.401-2.729 10.781-4.119 16.161-1.37 5.38-2.761 10.76-4.152 16.125a2463 2463 0 0 1 3.584 8.109c-2.62-.302-5.24-.604-7.86-.927 1.662-5.843 3.318-11.708 4.974-17.567m104.912 52.291-21.74-3.239c-2.812-.427-5.666-.839-8.5-1.266-2.849-.411-5.703-.818-8.531-1.229h-.057l17.942-17.214a3919 3919 0 0 0-9.281-20.739 4710 4710 0 0 0-9.156-20.224 4779 4779 0 0 0-9.021-19.74c-1.495-3.245-2.974-6.469-4.469-9.677a4213 4213 0 0 0-4.437-9.583c1.515-6.026 3.01-12.084 4.51-18.141a5019 5019 0 0 0 4.417-18.156 4363 4363 0 0 0 4.365-18.172 5055 5055 0 0 0 4.296-18.214h-32.25l-11.442 17.323c-.641-1.338-1.282-2.671-1.922-4.01-1.068-2.224-2.141-4.453-3.209-6.682-1.067-2.209-2.119-4.417-3.187-6.631h-32.25l-5.151 9.089a49 49 0 0 0-.177-1.797 800 800 0 0 0-.714-7.292h-69.989l-17.068 39.823-2.818-39.75-.833-11.614-.448-6.417-7.198 19.031-3.51 9.282-16.073 42.515.359 5.735.641 10.39 1.89 30.86c-.447-.021-.89-.037-1.338-.073a21079 21079 0 0 0-1.552-25.516c-.516-8.427-1.011-16.802-1.511-25.141-.52-8.286-1.015-16.531-1.515-24.75-.479-8.156-.979-16.281-1.464-24.375h-26.797l-7.875 27.641c-.067-1.588-.14-3.193-.229-4.776-.125-2.672-.25-5.349-.39-8-.256-4.953-.485-9.927-.735-14.865h-69.984l-9.714 68.938c.198 8.839.391 17.729.604 26.677.198 8.995.412 18.031.61 27.115.14 6.489.281 13.01.443 19.547l-1.849-.053-7.042-.213-6.359-.089-13.563-.198c-.583-.015-1.172-.015-1.781-.015l1.875-19.584a17188 17188 0 0 1-.412-31.375 16540 16540 0 0 1-.411-30.807c-.141-10.156-.266-20.224-.391-30.255-.14-9.943-.271-19.849-.39-29.688h-70.006c-.109 9.839-.218 19.73-.307 29.667-.104 10.016-.213 20.083-.318 30.203-.109 10.214-.213 20.474-.323 30.792-.104 10.385-.213 20.844-.317 31.354l1.458 19.583c-.463 0-.927.021-1.391.021l-3.864.032c.073-6.448.161-12.896.229-19.292.109-9.021.198-17.995.307-26.927.105-8.87.214-17.709.318-26.495l-5.021-68.938h-26.781c-.234 9.891-.448 19.834-.677 29.829-.146 6.151-.271 12.312-.412 18.494-.072 3.011-.14 6.042-.213 9.073l-7.927-57.396h-69.99c-.463 9.25-.906 18.537-1.37 27.886l-7.859-27.886h-70.005c-.391 5.297-.787 10.605-1.177 15.933-.073.838-.125 1.672-.198 2.51l-7.854-18.443h-70.006c-.359 3.745-.734 7.485-1.088 11.23l-6.359-11.23h-32.235l-3.208 6.631-3.203 6.682c-.646 1.339-1.266 2.672-1.912 4.01l-11.453-17.323h-32.25a4049 4049 0 0 0 8.662 36.386 3455 3455 0 0 0 4.416 18.156 5151 5151 0 0 0 4.505 18.141 4477 4477 0 0 0-8.89 19.26 5466 5466 0 0 0-18.187 39.964c-3.084 6.843-6.167 13.755-9.287 20.739l17.943 17.214h-.037c-2.849.411-5.703.818-8.536 1.229-2.85.427-5.683.839-8.516 1.266l-21.734 3.239-12.084 1.802 58.802 48.943 10.474-1.583 18.834-2.87c2.458-.375 4.916-.729 7.375-1.104 2.458-.354 4.937-.729 7.396-1.084 2.479-.359 4.937-.713 7.395-1.052 2.474-.359 4.917-.698 7.375-1.052l9.068-1.25 9.016-1.192a877 877 0 0 1 7.343-.943q3.688-.486 7.375-.948l7.375-.906c2.443-.302 4.902-.605 7.323-.891l3.443-.411 3.365-.391c5.291-.604 10.604-1.214 15.911-1.797 5.313-.573 10.636-1.146 15.964-1.698 5.312-.531 10.64-1.068 15.948-1.583 5.291-.516 10.604-.995 15.875-1.479l4.239-.375 4.136-.355c2.031-.177 4.046-.359 6.078-.515 2.031-.162 4.062-.339 6.093-.5 2.032-.162 4.063-.323 6.073-.485 2.032-.156 4.047-.317 6.058-.458l7.536-.573 7.36-.515c2.031-.146 4.046-.287 6.078-.427 2.031-.125 4.062-.271 6.093-.396 2.032-.125 4.042-.245 6.079-.37 2.01-.125 4.041-.25 6.036-.375l4.203-.25 4.156-.234c5.256-.282 10.532-.568 15.823-.834 5.271-.25 10.563-.5 15.854-.713 5.292-.235 10.584-.427 15.86-.625 5.291-.198 10.547-.355 15.802-.516l4.208-.125 4.13-.089c2.016-.057 4.032-.109 6.058-.161 2.015-.036 4.047-.089 6.062-.125l6.073-.109c2.016-.032 4.026-.068 6.042-.105l4.166-.072 4.172-.037c2.297-.031 4.631-.052 6.948-.088 2.334-.016 4.667-.032 6.985-.032a777 777 0 0 1 6.984-.036c2.333-.021 4.651-.021 6.969-.021 2.937 0 5.88 0 8.838.021 2.938.015 5.896.036 8.854.052 2.938.016 5.896.052 8.855.088l8.817.11 11.818.177 5.521.088 6.13.178 11.245.338c2.01.057 4.026.109 6.057.177 2.011.073 4.042.125 6.057.198 2.032.073 4.042.141 6.073.234 2.016.068 4.032.141 6.042.23l7.464.286 7.395.354c2.016.089 4.026.177 6.058.287 2.015.088 4.047.192 6.062.302 2.026.088 4.063.193 6.073.302 2.031.109 4.047.229 6.057.338l4.188.235 4.167.265c5.26.303 10.552.641 15.843.995 5.292.339 10.584.714 15.891 1.104 5.297.396 10.604.787 15.896 1.214 5.307.427 10.583.854 15.854 1.318l4.208.375 4.188.375c5.271.463 10.562.963 15.875 1.479 5.312.515 10.62 1.052 15.948 1.604 5.307.552 10.635 1.12 15.942 1.693 5.334.588 10.62 1.192 15.912 1.817l5.526.641c2.443.286 4.88.589 7.323.891l7.375.906c2.463.307 4.917.625 7.375.948 2.463.302 4.901.62 7.344.943l10.76 1.427 7.323 1.015c2.458.354 4.917.693 7.38 1.052 2.458.339 4.917.693 7.396 1.052 2.453.355 4.932.73 7.391 1.084 2.474.375 4.937.729 7.395 1.104l18.813 2.87 10.479 1.583 58.797-48.943"/><path fill="#0f1123" d="m113.229 386.874 43.115 68.927q-1.36 2.952-2.719 5.921-1.365 2.977-2.729 5.969-1.37 3-2.74 6.016-1.374 3.016-2.75 6.057l-45.052-66.042q1.616-3.407 3.24-6.791c1.073-2.255 2.151-4.5 3.224-6.74 1.073-2.239 2.14-4.469 3.213-6.687 1.068-2.219 2.13-4.427 3.198-6.63m160.516 26.896 23.177 66.036q-.124 2.453-.255 4.922c-.084 1.64-.167 3.292-.256 4.937-.083 1.646-.171 3.297-.255 4.948l-.26 4.969-23.485-63.615c.11-1.859.224-3.724.334-5.578.114-1.854.224-3.708.338-5.557l.328-5.542z"/><path fill="#0f1123" d="m152.917 386.874 38.14 68.927-2.531 30.239-2.578 30.797c-.875 10.396-1.75 20.849-2.63 31.375-.886 10.589-1.782 21.24-2.677 31.964l-41.36-53.344c1.183-12.125 2.36-24.162 3.521-36.115 1.151-11.864 2.302-23.646 3.443-35.349l3.37-34.604z"/><path fill="#898989" d="m299.734 433.587 20.006 63.875c-1.151 1.161-2.313 2.328-3.469 3.5l-3.479 3.526c-1.162 1.177-2.318 2.359-3.485 3.547-1.161 1.193-2.328 2.38-3.494 3.573l-22.136-62.12a1692 1692 0 0 1 4.031-4.016c1.344-1.333 2.683-2.666 4.021-3.989l4.005-3.964a1468 1468 0 0 1 4-3.932"/><path fill="#0f1123" d="m61.203 386.874 49.63 68.927a4255 4255 0 0 0 3.995 16.26 5726 5726 0 0 0 4.052 16.208 5349 5349 0 0 0 4.11 16.162q2.068 8.085 4.161 16.125l-48.364-61a7013 7013 0 0 1-4.5-18.136 5376 5376 0 0 1-4.433-18.156 5180 5180 0 0 1-4.36-18.182 4092 4092 0 0 1-4.29-18.208m284.421 47.562 14.187 63.781q-.087 2.962-.182 5.933l-.187 5.953q-.101 2.985-.193 5.979-.1 2.994-.193 5.995l-14.416-60.808.25-6.75.25-6.724c.083-2.234.161-4.463.244-6.692.079-2.229.162-4.448.24-6.667m-113.484-47.562 28.224 68.927q-.907 14.172-1.813 28.515c-.609 9.615-1.224 19.281-1.844 29.011-.619 9.781-1.244 19.625-1.875 29.521q-.945 14.935-1.906 30.052l-30.484-54.297c.838-11.386 1.672-22.698 2.5-33.927.817-11.162 1.635-22.245 2.442-33.256q1.213-16.406 2.401-32.593 1.181-16.078 2.355-31.953m38.599 76.817 23.869 60.537c-.192 3.76-.39 7.521-.588 11.297-.193 3.781-.391 7.567-.589 11.37s-.396 7.619-.593 11.442c-.198 3.834-.401 7.672-.599 11.526l-24.605-54.692q.397-6.523.787-13.021c.26-4.318.521-8.62.776-12.917.26-4.286.516-8.557.771-12.823.255-4.25.515-8.489.771-12.719m155.864-76.817 3.865 68.927-.235 26.468c-.078 8.922-.161 17.886-.244 26.901-.084 9.068-.162 18.178-.245 27.344-.084 9.214-.162 18.474-.25 27.787l-4.151-55.412c.104-10.521.213-20.974.317-31.364q.166-15.486.323-30.776l.313-30.214q.157-14.92.307-29.661"/><path fill="#0f1123" d="m352.021 461.098 13.474 60.828-.141 4.88q-.072 2.443-.151 4.896-.07 2.453-.146 4.906l-.14 4.922-13.651-58.344.187-5.547q.1-2.772.193-5.536.1-2.76.193-5.511.095-2.75.182-5.494m38.578-74.224 8.375 68.927c-.177 8.828-.349 17.698-.526 26.619q-.26 13.452-.526 27.052l-.531 27.49c-.183 9.266-.36 18.583-.542 27.948l-9.01-55.333c.234-10.578.474-21.094.703-31.542.234-10.38.463-20.698.698-30.953.224-10.188.453-20.318.682-30.38.224-10.006.453-19.948.677-29.828m-79.224 0 18.297 68.927-1.151 27.307c-.391 9.208-.776 18.463-1.167 27.766q-.594 14.038-1.187 28.234c-.401 9.516-.797 19.088-1.203 28.708l-19.714-54.953q.79-16.313 1.573-32.406.775-16.002 1.542-31.792.765-15.695 1.515-31.187c.5-10.266 1-20.464 1.495-30.604M78.787 459.556l48.364 61a4416 4416 0 0 0-7.51 17.099 4631 4631 0 0 0-7.605 17.494 5985 5985 0 0 0-7.697 17.901 5687 5687 0 0 0-7.792 18.334l-54.125-51.86a5523 5523 0 0 1 36.365-79.968"/><path fill="#0f1123" d="m90.234 504.426 47.459 55.927q.819 3.045 1.646 6.083.818 3.045 1.645 6.084l1.657 6.072c.557 2.026 1.109 4.047 1.666 6.063l-46.86-52.75q-.912-3.43-1.817-6.859c-.604-2.287-1.203-4.579-1.807-6.87l-1.797-6.875c-.599-2.292-1.193-4.584-1.792-6.875"/><path fill="#0f1123" d="m90.234 504.426 47.459 55.927q.819 3.045 1.646 6.083.818 3.045 1.645 6.084l1.657 6.072c.557 2.026 1.109 4.047 1.666 6.063l-46.86-52.75q-.912-3.43-1.817-6.859c-.604-2.287-1.203-4.579-1.807-6.87l-1.797-6.875c-.599-2.292-1.193-4.584-1.792-6.875"/><path fill="#142d45" d="M729.167 491.993v-.015c3.744.286 7.468.588 11.208.875-3.724-.287-7.464-.573-11.208-.86m-190.985 17.891c-.265-10.62-.536-21.146-.817-31.625.281 10.479.552 21.005.833 31.625zm362.339 43.406-8.839-19.583a7184 7184 0 0 0-8.552-18.833 4616 4616 0 0 0-8.552-18.657 8523 8523 0 0 0-8.515-18.421c-2.834-6.079-5.646-12.115-8.464-18.12 1.354-5.63 2.708-11.261 4.062-16.912 1.334-5.63 2.672-11.26 3.99-16.869 1.323-5.615 2.62-11.209 3.901-16.787 1.302-5.578 2.568-11.12 3.833-16.641l3.438-15.182 1.906-8.375H672.276l.448 6.417.833 11.614 4.37 61.901c-1.12-.052-2.245-.109-3.354-.161a561 561 0 0 1-3.26-.161 714 714 0 0 1-3.204-.162 174 174 0 0 1-3.031-.141h-.104l-.802-12.276-2.604-38.718-.693-10.407-.766-11.526-.432-6.38H36.203l1.906 8.375 3.459 15.182c1.265 5.521 2.531 11.063 3.812 16.641a3656 3656 0 0 0 3.901 16.787c1.318 5.609 2.657 11.239 3.99 16.869 1.36 5.651 2.708 11.282 4.068 16.912-2.803 5.984-5.636 12.026-8.448 18.12a4412 4412 0 0 0-8.516 18.406 2534 2534 0 0 0-8.552 18.656 5173 5173 0 0 0-8.573 18.849l-8.838 19.583-4.954 10.974 12.084-1.797 21.734-3.244c2.833-.427 5.667-.839 8.52-1.266 2.834-.411 5.683-.818 8.532-1.229h.057c2.813-.412 5.646-.802 8.464-1.193q4.275-.615 8.495-1.177l10.463-1.427 10.386-1.354c2.812-.375 5.646-.729 8.479-1.089 2.177-.265 4.364-.552 6.557-.817.412-.053.839-.105 1.25-.141.229-.037.443-.057.677-.089 2.828-.359 5.662-.698 8.495-1.036 1.177-.141 2.37-.281 3.547-.427 1.641-.193 3.281-.391 4.901-.589l3.953-.463 3.886-.443q6.711-.774 13.416-1.5c1.62-.177 3.261-.354 4.901-.531 6.13-.662 12.261-1.302 18.386-1.906 2.406-.25 4.812-.48 7.218-.735 3.704-.354 7.427-.729 11.136-1.068.677-.067 1.354-.119 2.031-.192 5.438-.521 10.849-1 16.25-1.479l4.865-.448 4.776-.412c2.333-.177 4.666-.37 7.005-.567 1.026-.089 2.042-.162 3.078-.25 1.302-.105 2.62-.214 3.922-.318 2.333-.177 4.667-.36 7-.537 2.318-.177 4.651-.354 6.969-.536l4.401-.318 4.239-.323 8.5-.588c2.318-.157 4.651-.318 6.985-.464.39-.036.802-.052 1.192-.068 1.943-.145 3.865-.27 5.808-.39 2.317-.146 4.651-.287 6.984-.432 1.714-.105 3.443-.214 5.151-.303.604-.036 1.193-.072 1.797-.104l4.828-.286 4.776-.266c2.193-.13 4.401-.25 6.594-.359q5.803-.29 11.599-.589c.911-.036 1.838-.088 2.745-.125 5.166-.25 10.333-.463 15.5-.692 6.078-.25 12.171-.485 18.229-.698.656-.016 1.333-.052 1.995-.068 1.015-.036 2.031-.073 3.046-.089 4.386-.161 8.771-.307 13.131-.432l4.828-.14 4.76-.105c.427-.02.875-.02 1.302-.036.568 0 1.157-.021 1.724-.037 1.302-.036 2.62-.052 3.922-.088l2.62-.052c1.458-.037 2.901-.073 4.364-.094 2.318-.052 4.652-.104 6.969-.141l6.948-.109 4.792-.068.927-.015 3.87-.037c.458 0 .922-.021 1.39-.021.995-.015 1.99-.015 3.006-.036 1.192-.016 2.406-.031 3.604-.031 2.672-.021 5.343-.037 8.015-.058 2.688-.015 5.365-.036 8.037-.036 2.672-.016 5.344-.016 8-.016 3.364 0 6.75 0 10.156.016 3.385.021 6.771.036 10.172.057 3.401.037 6.792.052 10.177.104 2.792.037 5.594.058 8.37.11.609 0 1.192 0 1.786.015l13.558.198 6.359.089 7.042.213 1.849.053 11.083.322 6.953.214c2.333.068 4.646.141 6.979.229 2.318.073 4.651.162 6.969.25q3.501.11 6.948.266l8.588.323 8.516.39 6.948.323c2.333.11 4.651.229 6.984.339 2.334.125 4.651.25 6.985.354l6.968.375 4.813.271 4.792.302c6.057.354 12.114.729 18.208 1.12 6.094.411 12.193.817 18.281 1.265 2.708.198 5.417.391 8.125.589 3.386.25 6.787.515 10.177.781 6.089.484 12.188.984 18.24 1.5l4.849.406 4.812.433c6.058.531 12.167 1.104 18.266 1.671 6.109.589 12.239 1.198 18.364 1.818 6.115.625 12.245 1.266 18.375 1.927 6.11.677 12.24 1.354 18.334 2.047l3.166.36 3.172.369 8.448 1.016c2.834.338 5.667.677 8.5 1.036 2.834.339 5.667.693 8.5 1.047 2.813.36 5.646.714 8.464 1.089l12.401 1.62 8.443 1.161q4.226.562 8.5 1.177c2.817.391 5.651.781 8.484 1.193h.052c2.828.411 5.682.818 8.531 1.229 2.834.427 5.688.839 8.5 1.266l21.74 3.244 12.078 1.797"/><path fill="#142d45" d="M579.688 423.79c-.073-1.797-.141-3.593-.214-5.385l-.219-5.37q-2.068-.014-4.146-.036l-4.14-.032q-2.07-.022-4.141-.036c-1.385-.01-2.765-.026-4.146-.036l.188 5.333q.087 2.673.182 5.354l.188 5.375c.062 1.797.13 3.594.192 5.396q2.087.024 4.172.057l4.167.063c1.396.02 2.786.047 4.177.067q2.092.04 4.177.073l-.219-5.416zm-314.24-9.895q-2.076.029-4.151.067c-1.38.021-2.766.042-4.146.068-.12 1.849-.245 3.708-.365 5.568-.119 1.859-.244 3.724-.364 5.588-.12 1.87-.245 3.74-.365 5.61-.125 1.875-.245 3.75-.369 5.625q2.093-.054 4.187-.115c1.391-.036 2.786-.078 4.177-.115 1.391-.041 2.787-.078 4.177-.114l4.182-.11q.166-2.788.339-5.578.163-2.782.333-5.557.163-2.775.334-5.542l.328-5.52-4.151.062zm204.62 32.781-.078-17.193q-.033-8.54-.073-17.016c-1.375 0-2.761-.005-4.141-.005l-4.135-.005h-8.287c-.005 5.651-.01 11.328-.021 17.016-.01 5.713-.015 11.442-.026 17.192-.01 5.771-.015 11.563-.026 17.375-.01 5.834-.015 11.688-.026 17.558h8.479c1.412.005 2.823.005 4.24.01l4.234.016c-.02-5.875-.047-11.729-.067-17.568-.026-5.813-.047-11.604-.073-17.38"/><path fill="#e41541" d="M804.828 545.842c30.542 3.297 61.026 7.407 91.422 11.521-13.979-32.088-28.042-64.083-42.5-95.937l-.594-1.308.318-1.416c6.354-28.057 12.359-56.151 18.302-84.318l-405.922-5.479 412.776-5.573 7.11-.094-1.677 6.907c-7.23 29.703-14.542 59.468-22.209 89.098 16.531 34.079 32.646 68.402 48.63 102.709l4.454 9.552-10.391-1.698c-33.609-5.49-67.083-11.042-100.76-15.615-33.657-4.708-67.402-8.708-101.214-12.218-67.625-6.953-135.542-11.375-203.563-13.365 68.047.125 136.131 2.677 204.063 7.776 33.953 2.583 67.891 5.662 101.755 9.458"/><path fill="#627995" d="M110.109 545.842c-30.541 3.297-61.026 7.407-91.416 11.521 13.974-32.088 28.036-64.083 42.495-95.937l.593-1.308-.317-1.416c-6.355-28.057-12.36-56.151-18.303-84.318l405.922-5.479-412.776-5.573-7.11-.094 1.678 6.907c7.23 29.703 14.542 59.468 22.208 89.098-16.526 34.079-32.645 68.402-48.63 102.709L0 571.504l10.39-1.698c33.61-5.49 67.084-11.042 100.761-15.615 33.656-4.708 67.401-8.708 101.214-12.218 67.625-6.953 135.541-11.375 203.562-13.365-68.047.125-136.13 2.677-204.062 7.776-33.954 2.583-67.891 5.662-101.756 9.458"/><path fill="#fff" d="M451.911 479.874h-12.093c0-5.573.021-11.146.021-16.678 0-5.526.026-11.031.026-16.515 0-4.922.02-9.828.02-14.729v-1.62c.021-5.412.021-10.802.021-16.167h11.823c1.292 0 2.61 0 3.932.021.021 5.37.047 10.755.068 16.167v1.666c.021 4.86.047 9.761.068 14.662.026 5.484.047 10.989.073 16.515.021 5.553.041 11.125.068 16.698-1.344 0-2.683 0-4.027-.02m30.23-3.797c-.115-9.802-.256-19.563-.37-29.276-.068-4.834-.141-9.646-.208-14.459-.047-4.76-.115-9.526-.183-14.271-.12-9.453-.234-18.869-.375-28.213H414.49c-.089 9.344-.183 18.734-.302 28.193-.042 4.671-.089 9.343-.136 14.036-.047 4.859-.094 9.76-.161 14.667-.094 9.687-.188 19.448-.302 29.255-.094 9.875-.209 19.797-.303 29.792 2.547-.026 5.089-.047 7.61-.068 2.547-.026 5.088-.052 7.635-.052 2.521-.021 5.063-.021 7.61-.042h7.609c3.234 0 6.474 0 9.714.021 3.213 0 6.453.021 9.687.047 3.219.026 6.453.047 9.693.094 3.239.02 6.453.067 9.692.114-.14-10.015-.255-19.958-.395-29.838m-76.417-86.219c-.135 9.344-.25 18.76-.391 28.219-.047 4.692-.114 9.411-.187 14.13-.068 4.854-.136 9.713-.208 14.614-.115 9.693-.256 19.454-.391 29.282-.115 9.875-.255 19.817-.396 29.838-2.198.021-4.417.068-6.615.089-2.218.047-4.416.094-6.635.135-2.198.052-4.417.099-6.615.141-2.218.047-4.442.094-6.635.166.229-10.062.438-20.052.667-29.979.234-9.875.442-19.677.672-29.416.093-4.808.208-9.599.323-14.36.093-4.859.208-9.692.328-14.505.203-9.505.411-18.963.619-28.354m-8.765 0c-.047 2.036-.089 4.073-.162 6.109l-.135 6.104c-.073 2.058-.115 4.089-.167 6.151a636 636 0 0 0-.161 6.172c-3.443.026-6.912.047-10.36.073-3.447.021-6.895.047-10.359.068l-10.338.073c-3.469.047-6.917.068-10.365.088-.229 5.506-.438 11.011-.672 16.537-.042 1.135-.088 2.266-.135 3.427-.162 4.417-.349 8.833-.511 13.276-.229 5.615-.463 11.24-.692 16.906-.209 5.667-.443 11.354-.672 17.068l4.026-.141 4.047-.14c1.343-.042 2.682-.089 4.026-.115a899 899 0 0 1 4.02-.135c.073-1.761.115-3.516.188-5.276.068-1.735.115-3.495.182-5.25.073-1.756.115-3.49.188-5.25.047-1.735.114-3.469.161-5.203-.578 0-1.156.02-1.734.02-.599.021-1.182.021-1.761.047-.599.026-1.177.026-1.755.047-.578 0-1.182.026-1.755.047.068-2.151.156-4.276.229-6.427.094-2.13.162-4.255.255-6.385a520 520 0 0 1 .23-6.365c.072-2.099.14-4.229.208-6.333 2.755-.047 5.479-.068 8.213-.115 2.75-.047 5.48-.094 8.209-.115 2.729-.046 5.479-.072 8.208-.114 2.729-.026 5.458-.073 8.214-.099-.162 5.88-.302 11.797-.464 17.719-.161 5.942-.302 11.937-.463 17.927q-.213 9.015-.464 18.109c-.161 6.104-.297 12.208-.464 18.339-5.781.161-11.562.349-17.322.552-5.782.213-11.563.422-17.344.672-5.781.234-11.563.489-17.323.765-5.781.276-11.563.578-17.37.901.51-10.338 1.016-20.604 1.505-30.807.485-10.13.969-20.214 1.453-30.203.214-4.162.422-8.328.605-12.469.302-5.755.578-11.469.854-17.182.463-9.735.948-19.453 1.411-29.073m282.334 45.333c-1.323-.026-2.646-.046-3.99-.073l-3.964-.067c-1.322-.021-2.64-.047-3.989-.068a201 201 0 0 0-3.964-.047c0-.208-.021-.416-.021-.63-.067-1.505-.093-3.01-.161-4.516a351 351 0 0 0-.187-5.125c-.047-1.692-.115-3.406-.162-5.099-.068-1.692-.115-3.385-.187-5.078 1.322.021 2.645.021 3.968.047 1.297 0 2.615 0 3.938.026 1.323 0 2.62.021 3.943.021 1.317.021 2.619.021 3.937.047.073 1.693.141 3.406.208 5.099.073 1.713.141 3.432.214 5.146.068 1.713.135 3.432.208 5.146.068 1.671.136 3.364.209 5.057zm28.046 43.693c-.484-10.151-.994-20.255-1.484-30.297-.182-4.01-.391-8.021-.599-12.005-.281-5.937-.557-11.823-.859-17.714-.464-9.781-.953-19.494-1.438-29.161h-66.672c.256 9.432.511 18.917.745 28.469.136 5.005.255 10.036.417 15.088.094 4.636.229 9.276.349 13.933.25 9.786.505 19.635.76 29.557.255 9.969.537 20.01.792 30.114 2.198.068 4.427.141 6.63.209 2.224.073 4.448.14 6.651.208 2.224.073 4.427.162 6.656.235 2.198.088 4.422.161 6.651.255-.14-3.99-.281-7.974-.416-11.964q-.213-5.945-.417-11.89c-.141-3.943-.281-7.86-.417-11.782l-.421-11.703c1.343.021 2.692.068 4.036.094 1.323.021 2.667.068 4.01.088 1.323.047 2.667.073 4.011.12 1.323.021 2.666.068 4.01.089.162 3.922.302 7.838.464 11.781.161 3.938.323 7.901.489 11.865.157 3.968.297 7.953.464 11.942l.484 12.052c2.224.094 4.453.188 6.651.303 2.224.093 4.453.208 6.657.322 2.224.12 4.447.235 6.651.349 2.229.115 4.453.235 6.677.349-.511-10.364-1.021-20.656-1.532-30.906m80.396 36.422c-5.817-.484-11.635-.974-17.432-1.411a2170 2170 0 0 0-34.865-2.506c-5.797-.369-11.593-.744-17.411-1.088-.531-10.412-1.068-20.75-1.599-31.016-.531-10.203-1.068-20.359-1.599-30.443-.208-3.916-.396-7.812-.604-11.682-.302-6.073-.625-12.146-.948-18.172-.511-9.807-1-19.593-1.511-29.281h25.5c.464 7.698.954 15.438 1.417 23.229.464 7.813.948 15.672 1.438 23.573.047.839.088 1.672.161 2.526.396 7.099.833 14.24 1.276 21.401.485 8.063.974 16.182 1.485 24.318 1.343.068 2.687.141 4.031.208 1.37.094 2.713.162 4.057.235 1.344.067 2.688.161 4.057.229 1.344.067 2.688.161 4.058.234-.115-1.651-.235-3.297-.323-4.943l-.349-4.937c-.094-1.62-.209-3.266-.302-4.891-.115-1.646-.229-3.271-.328-4.89 2.182.093 4.359.187 6.562.302 2.182.094 4.359.208 6.563.323 2.177.093 4.359.208 6.562.328 2.177.114 4.38.208 6.557.323.302 3.963.578 7.901.881 11.87.302 3.984.583 7.973.88 11.958.302 4.015.604 8.021.906 12.057.276 4.031.578 8.089.88 12.146M220.932 389.858c-.182 2.172-.343 4.37-.505 6.547a572 572 0 0 0-.51 6.588c-.162 2.198-.349 4.396-.511 6.615-.161 2.198-.323 4.422-.51 6.641-3.443.067-6.912.135-10.36.182-3.468.068-6.916.14-10.385.208-3.443.073-6.917.141-10.359.208-3.448.073-6.917.162-10.365.235a461 461 0 0 0-.505 5.594c-.162 1.854-.349 3.724-.511 5.599-.161 1.875-.322 3.77-.51 5.645l-.484 5.641c3.468-.141 6.963-.276 10.453-.417 3.495-.114 6.963-.255 10.453-.39 3.495-.12 6.963-.261 10.453-.37 3.495-.12 6.964-.234 10.458-.349-.14 1.755-.281 3.536-.395 5.318a25 25 0 0 0-.115 1.432c-.188 2.266-.349 4.536-.531 6.802-.162 2.266-.349 4.531-.511 6.797-.182 2.292-.369 4.583-.531 6.849-3.516.187-7.031.396-10.568.578-3.515.182-7.031.396-10.547.604-3.541.203-7.057.412-10.572.62-3.537.208-7.053.417-10.589.651-.167 1.917-.349 3.839-.51 5.755-.162 1.943-.349 3.865-.511 5.808-.182 1.942-.344 3.859-.531 5.802-.182 1.942-.344 3.911-.531 5.854 3.562-.276 7.125-.578 10.687-.854 3.537-.256 7.099-.532 10.662-.787 3.536-.276 7.099-.536 10.635-.786 3.563-.256 7.099-.511 10.662-.74-.183 2.313-.37 4.646-.532 6.979-.182 2.318-.37 4.677-.552 7.011-.166 2.338-.349 4.698-.531 7.031-.188 2.359-.349 4.719-.537 7.078-5.828.51-11.63 1.042-17.437 1.573-5.802.557-11.63 1.109-17.438 1.708q-8.742.869-17.484 1.808-8.742.936-17.484 1.942c1.109-11.515 2.239-22.968 3.328-34.323 1.109-11.286 2.198-22.479 3.286-33.604.094-.948.183-1.896.276-2.844.974-10.088 1.964-20.104 2.917-30.046 1.063-10.797 2.104-21.532 3.146-32.193M774.99 523.191a1989 1989 0 0 0-17.547-1.948 5094 5094 0 0 0-17.5-1.833c-5.844-.604-11.662-1.156-17.505-1.713a2163 2163 0 0 0-17.454-1.599c-.859-10.922-1.692-21.792-2.505-32.573-.838-10.688-1.646-21.328-2.458-31.896l-.625-8.026c-.604-7.787-1.208-15.531-1.787-23.25-.812-10.266-1.578-20.49-2.364-30.646h66.672c.234 2.292.463 4.615.692 6.932.214 2.318.443 4.636.678 6.953.229 2.344.463 4.662.671 7 .23 2.344.464 4.683.693 7.026-3.474-.093-6.932-.161-10.411-.255-3.448-.067-6.927-.161-10.381-.229-3.479-.073-6.932-.167-10.411-.234-3.453-.073-6.927-.141-10.385-.209.166 1.834.302 3.688.463 5.542.162 1.828.328 3.682.464 5.537.166 1.88.328 3.734.489 5.588.162 1.854.323 3.734.464 5.609 3.5.12 7 .256 10.5.396 3.479.136 6.979.276 10.479.417 3.5.161 7 .302 10.5.437 3.479.167 6.979.308 10.479.469.229 2.365.464 4.75.698 7.141.115 1.25.255 2.479.365 3.708.119 1.156.234 2.339.354 3.5.229 2.386.458 4.797.692 7.208.256 2.433.485 4.844.719 7.282-3.521-.255-7.067-.49-10.62-.719-3.52-.234-7.067-.464-10.593-.698a1522 1522 0 0 0-10.594-.646c-3.547-.234-7.068-.442-10.594-.651.162 1.901.328 3.797.49 5.724l.484 5.75c.162 1.901.328 3.823.49 5.75l.484 5.792c3.573.281 7.12.557 10.688.833 3.567.281 7.114.557 10.687.865 3.568.297 7.141.599 10.708.901 3.573.302 7.141.625 10.714.927.229 2.479.458 4.937.719 7.422.229 2.453.484 4.937.718 7.437.256 2.485.485 4.964.74 7.464.229 2.505.484 5.01.74 7.515m-522.584-91.588q.179-2.673.349-5.344c.12-1.755.235-3.537.349-5.318.115-1.755.229-3.515.349-5.271 1.318-.026 2.636-.046 3.953-.073 1.292-.02 2.615-.046 3.933-.067s2.635-.047 3.932-.047l3.953-.068c-.115 1.761-.208 3.495-.323 5.25-.094 1.755-.208 3.516-.302 5.271-.115 1.76-.208 3.516-.323 5.276-.115 1.755-.208 3.537-.323 5.297-1.323.047-2.635.068-3.979.115-1.318.02-2.635.067-3.953.093-1.344.042-2.662.068-3.979.115s-2.662.068-3.98.114c.115-1.781.235-3.562.344-5.343m-22.729-41.745a71650 71650 0 0 0-2.224 30.37c-.552 7.354-1.088 14.755-1.641 22.177-.208 2.911-.437 5.849-.651 8.786-.76 10.459-1.546 21-2.307 31.594-.786 10.687-1.599 21.443-2.385 32.266 2.219-.188 4.437-.37 6.661-.558 2.219-.182 4.443-.369 6.662-.531 2.218-.182 4.442-.344 6.661-.531 2.198-.162 4.417-.323 6.636-.485.281-4.187.557-8.349.833-12.515.255-4.136.531-8.255.812-12.396.256-4.094.532-8.208.808-12.281.255-4.094.51-8.162.786-12.209 1.344-.073 2.682-.119 4-.187 1.344-.047 2.682-.115 4.026-.162 1.318-.067 2.662-.114 4-.182 1.344-.047 2.682-.094 4-.161-.229 4.021-.484 8.047-.713 12.093-.256 4.047-.485 8.12-.74 12.188-.234 4.073-.484 8.167-.74 12.281-.234 4.094-.489 8.235-.739 12.375 2.219-.161 4.437-.302 6.656-.463 2.198-.141 4.417-.276 6.641-.417 2.219-.141 4.442-.276 6.635-.417 2.219-.14 4.443-.276 6.662-.39.187-3.933.39-7.865.604-11.776.208-3.907.39-7.792.599-11.677.208-3.865.39-7.724.604-11.589.182-3.839.391-7.677.578-11.516-1.135-1.182-2.292-2.359-3.448-3.536-1.135-1.182-2.292-2.365-3.422-3.542-1.156-1.177-2.312-2.385-3.448-3.562-1.135-1.177-2.291-2.36-3.422-3.537 1.271-1.297 2.568-2.567 3.839-3.817a648 648 0 0 1 3.818-3.792c1.271-1.276 2.541-2.521 3.812-3.771.37-.37.766-.76 1.156-1.156.881-.86 1.761-1.714 2.636-2.589.187-3.75.396-7.494.583-11.218.183-3.724.37-7.428.578-11.125.183-3.704.37-7.381.552-11.058.209-3.677.396-7.328.579-10.984"/><path fill="#e41541" d="M893.375 580.175s-193.719-26.89-317.177-35.635c142.448 13.729 303.896 44.568 303.896 44.568"/><path fill="#627995" d="M338.74 544.54c-110.469 7.823-277.167 30.172-311.026 34.792l-15.23-12.729L0 571.504l68.255 41.697-29.682-24.796c24.875-4.651 170.391-31.36 300.167-43.865M39.182 382.124l24.104 33.244L45.24 365.78l-8.271 1.937z"/><path fill="#e41541" d="m465.745 368.905 252.057-29.641-90.239 22.037 258.067 4.349z"/><path fill="#627995" d="m449.083 368.905-252.052-29.641 90.235 22.037-258.068 4.349zM159.266 462.17l6.765-8.875c-4.791.662-9.562 1.339-14.297 2.037l-1.041 10.703c-.74 7.589-1.485 15.208-2.24 22.875-.599 6.281-1.219 12.604-1.833 18.948-.209 2.109-.412 4.229-.62 6.344l12.562-11.855-6.619 15.625c2.198-.244 4.39-.489 6.588-.723 5.839-.631 11.677-1.23 17.516-1.813 5.547-.573 11.13-1.104 16.693-1.635l.755-.073c4.786-.438 9.557-.875 14.338-1.302l.032-.391q.124-1.781.265-3.563c.188-2.328.37-4.677.531-7l.188-2.411.37-4.635c.062-.896.13-1.802.198-2.709-1.891.13-3.776.266-5.667.401l-.708.047-.657.047c-3.312.24-6.645.479-9.958.74-1.864.135-3.708.27-5.547.411-1.713.125-3.432.255-5.14.38-1.756.136-3.532.276-5.308.422-1.786.146-3.567.292-5.354.427l-4.39.344.416-4.38q.14-1.446.266-2.906.131-1.479.271-2.948.134-1.446.26-2.891.132-1.452.271-2.911c.078-.938.161-1.912.25-2.886q.131-1.436.255-2.88.124-1.452.255-2.896c.084-.953.172-1.911.25-2.864l.271-3.178 3.177-.203c3.547-.234 7.073-.442 10.62-.651l.87-.052 9.698-.573c3.557-.208 7.062-.416 10.567-.599l5.412-.297 1.906-.109c.094-1.187.193-2.385.287-3.578.083-1.151.171-2.292.26-3.432.083-1.125.172-2.25.25-3.381.094-1.161.182-2.281.266-3.406l.031-.401a1661 1661 0 0 0-32.958 3.943m107.52 38.167c.058-1.058.105-2.115.162-3.172q.155-2.883.302-5.766.147-2.907.302-5.823c.094-1.906.193-3.838.292-5.771q.1-2.061.208-4.13l-2.292-2.338a366 366 0 0 0-1.744-1.808 466 466 0 0 1-1.73-1.786c-1.14-1.162-2.302-2.375-3.442-3.563-.563-.583-1.136-1.166-1.698-1.755-.578-.594-1.156-1.187-1.724-1.781l-2.495-2.594 2.521-2.562c1.286-1.313 2.599-2.599 3.885-3.865.558-.557 1.12-1.12 1.683-1.677a1961 1961 0 0 0-52.313 4.542c-.026.375-.057.75-.083 1.119q-.173 2.282-.339 4.563l-.594 8.104 14.157 17.807-14.823-8.703c-.354 4.792-.703 9.578-1.052 14.386l-.922 12.479c-.38 5.14-.766 10.297-1.146 15.474l2.349-.193c2.24-.187 4.469-.375 6.698-.536 1.078-.089 2.187-.178 3.302-.266q1.657-.125 3.323-.266l3.463-.255.62-9.302c.24-3.859.495-7.719.761-11.599l.052-.797c.255-4.083.531-8.208.807-12.286.255-4.078.51-8.157.792-12.214l.224-3.271 3.276-.172q1-.048 1.994-.088c.672-.031 1.339-.057 2-.094.724-.026 1.386-.057 2.042-.083q1.024-.045 2.047-.083c.62-.032 1.313-.063 2.01-.094.641-.026 1.287-.052 1.928-.089 1.401-.047 2.713-.094 4-.161l4.125-.219-.235 4.125c-.114 1.953-.229 3.901-.349 5.859q-.189 3.11-.37 6.235c-.13 2.109-.26 4.198-.385 6.291-.115 1.974-.229 3.948-.354 5.922a2567 2567 0 0 1-.693 11.5l-.047.776c-.156 2.698-.317 5.427-.484 8.162q1.217-.08 2.443-.167l6.677-.422 6.63-.416c1.12-.068 2.245-.141 3.359-.209.146-2.828.292-5.651.443-8.458.005-.068.005-.135.01-.198L270.63 485.42m95.422-27.317c.047-1.964.094-3.922.151-5.875q.116-4.328.224-8.646.07-2.619.13-5.229c-.093 0-.192.005-.286.005-1.365.015-2.724.036-4.089.047-1.333.02-2.708.036-4.078.057-1.37.016-2.739.031-4.099.057-2.692.021-5.349.068-8.026.11l-.187.005c-1.381.026-2.761.041-4.151.057-.177.005-.36.005-.537.01l-.094 2.808a571 571 0 0 0-.229 6.359c-.047 1.094-.088 2.146-.13 3.203-.042 1.073-.078 2.146-.13 3.219-.021.807-.052 1.635-.083 2.464.156-.006.317-.006.479-.011.265-.005.536-.005.807-.021h.146q.392-.001.791-.01c.313-.011.631-.016.943-.016h3.802l-.104 3.802q-.038 1.314-.083 2.636c-.026.854-.058 1.713-.078 2.567-.037.917-.068 1.782-.094 2.646-.026.886-.057 1.766-.094 2.651q-.048 1.29-.088 2.578c-.032.891-.058 1.787-.094 2.672-.037.87-.063 1.74-.094 2.61-.031.89-.057 1.776-.094 2.661l-.135 3.438-3.432.119-2.052.068-1.974.068c-1.386.026-2.704.073-4.026.114l-2.188.079-1.859.062-4.026.141-3.985.135.162-3.984.036-.781c.219-5.448.438-10.87.636-16.277l.692-16.921a3182 3182 0 0 1 .36-9.23c-6.266.313-12.469.662-18.537 1.042-.14 3.052-.291 6.115-.448 9.172-.484 9.984-.974 20.068-1.458 30.198a6642 6642 0 0 1-.495 10.234l6-4.677-4.031 9.849 13.594-4.812s-9.344 11.557-13.198 15.953c3.38-.177 6.755-.354 10.125-.516 5.765-.276 11.562-.531 17.354-.765 5.776-.256 11.568-.464 17.359-.667 4.604-.167 9.224-.318 13.849-.458q.064-2.782.136-5.563.11-4.642.234-9.276l.016-.484c.156-5.896.312-11.766.448-17.615.015-.667.031-1.323.052-1.984l-16.782-18.032m51.625 41.886c.073-5.334.146-10.682.209-15.974l.021-1.235c.13-9.411.265-18.76.375-28.046l.151-10.818c-5.589.083-11.599.203-18.464.364-.083 3.594-.167 7.204-.239 10.823-.12 5.193-.24 10.391-.355 15.61q-.155 6.884-.317 13.823-.181 7.93-.355 15.916c-.072 3.381-.151 6.771-.223 10.167.921-.021 1.843-.036 2.77-.057l2.75-.058 3.865-.078 3.745-.078.286-.01-7.005-29.917m90.401-11.557q-.095-7.045-.182-14.068l-.151-10.859c-5.469-.094-11.386-.167-18.469-.229l.052 10.885.068 16.542.067 16.698.016 3.718h-3.713c-1.365 0-2.724 0-4.089-.026h-15.734v-3.697q.001-4.194.01-8.381.015-4.163.016-8.297.001-4.155.01-8.296.009-4.119.01-8.214.002-3.702.011-7.396c.005-1.213.005-2.422.01-3.635-6.198.005-12.385.036-18.463.099-.037 3.672-.078 7.359-.13 11.052l-.006.64c-.088 9.48-.182 19.021-.291 28.61-.047 4.818-.099 9.656-.151 14.505-.021 1.943-.037 3.891-.058 5.833l14.792-10.531-10.057 16.162c2.255-.021 4.489-.042 6.713-.042a768 768 0 0 1 3.787-.021c1.26-.005 2.526-.01 3.786-.026h7.646c3.245 0 6.49 0 9.74.026h.015c3.193 0 6.433.021 9.672.047 3.234.021 6.479.042 9.719.088q2.939.024 5.885.063c-.047-3.536-.093-7.073-.135-10.594l-.203-15.432-.078-6.094c-3.776-3.557-13.349-12.51-14.625-13.057-1.433-.615 11.802 3.156 14.51 3.927m132.568 1.047-.646-13.187c-.135-2.902-.281-5.803-.432-8.693-8.125-.5-15.558-.927-22.625-1.297l-4.75-.234c-3.693-.183-7.407-.37-11.141-.532-2.818-.13-5.677-.25-8.536-.369 13.375 5.677 44.364 19.276 44.364 19.276l-57.651-14.381.12 4.563.766 29.557q.178 6.882.364 13.802c.115 4.255.224 8.526.339 12.808l3.125.098 6.656.209q1.678.055 3.349.12 1.647.06 3.302.114c.911.037 1.802.068 2.693.104l-.073-1.994-.203-5.901-17.443-13.334s13.104 3.49 17.135 4.682l-.114-3.322L569 472.29l-.417-11.724-.14-3.906 3.911.068c.683.01 1.365.031 2.047.047q.993.024 1.984.041 1 .023 2.006.052c.666.016 1.338.032 2.005.042.724.026 1.385.047 2.052.063.672.015 1.344.036 2.026.057.594.01 1.266.026 1.938.047l2.005.047 3.5.057.146 3.495.234 6.01q.108 2.875.224 5.766l.489 11.87q.126 3.038.235 6.083c.078 1.948.151 3.906.229 5.859l.349 8.646q1.649.07 3.281.156c2.198.089 4.438.209 6.651.323l6.651.349 2.578.136c-.442-8.979-.885-17.907-1.328-26.802q-.415-8.584-.838-17.115m80.708 46.349c-.12-1.631-.239-3.266-.354-4.891l-.901-12.031q-.225-2.999-.443-5.99c-.14-1.995-.286-3.979-.437-5.974-.151-1.979-.297-3.963-.443-5.942-.063-.886-.125-1.777-.193-2.662h-.015a689 689 0 0 1-3.287-.161l-.333-.021a602 602 0 0 0-6.188-.302l-.369-.021c-2.079-.11-4.136-.219-6.193-.307q-1.228-.064-2.432-.12l.031.422.021.323c.052.849.104 1.656.156 2.458q.08 1.25.151 2.484l.344 4.886c.093 1.672.208 3.286.323 4.906l.291 4.172-4.177-.172c-.719-.037-1.427-.078-2.135-.125-.641-.037-1.281-.078-1.927-.109q-1.07-.057-2.131-.12-.966-.061-1.927-.115c-1.38-.068-2.734-.14-4.114-.234l-1.735-.089-2.239-.114-3.302-.172-.209-3.302c-.171-2.735-.333-5.453-.5-8.188l-13.192-16.229 12.682 7.927-.312-5.203-.162-2.63-.042-.693c-.359-5.844-.718-11.677-1.052-17.474a3218 3218 0 0 0-18.614-1.344c.036.651.067 1.308.099 1.959q.138 2.764.286 5.536c.537 10.089 1.068 20.245 1.599 30.443.479 9.182.953 18.422 1.432 27.708q7.024.44 14.032.886c5.906.38 11.713.77 17.541 1.187a2328 2328 0 0 1 18.974 1.448l-14.047-14.297m104.125 16.479c-.13-1.302-.255-2.604-.39-3.906-.13-1.406-.266-2.776-.396-4.13q-.165-1.68-.323-3.344a7 7 0 0 1-.036-.354c-5.516.943-23.589 4-24.214 3.745-.594-.245 13.276-5.969 18.672-8.172q-1.233-.11-2.474-.214l-7.172-.604-3.536-.302c-3.563-.302-7.105-.578-10.662-.854l-10.687-.833-3.146-.245-.261-3.146-.489-5.792-.485-5.75-.489-5.744-.479-5.662-.365-4.271 4.271.188c3.531.208 7.062.416 10.62.651 3.51.208 7.041.416 10.593.651l5.25.338 5.344.355c2.104.135 4.188.27 6.261.416q-.142-1.445-.292-2.89l-.042-.438-.474-4.917h-32.786l18.786-4.192a2207 2207 0 0 0-47.369-5.339l.281 3.594.515 6.724c.641 8.354 1.282 16.75 1.943 25.177.641 8.505 1.302 17.078 1.969 25.667l17.094-8.412-7.771 13.016c1.776.166 3.547.323 5.323.495 5.849.557 11.677 1.114 17.531 1.713 5.844.604 11.667 1.208 17.516 1.833 4.328.469 8.666.943 13 1.433a297 297 0 0 1-.282-2.964 628 628 0 0 1-.349-3.521"/><path fill="#fff" d="M125.234 436.561c-3.093 6.531-6.187 13.14-9.307 19.781l.156.552c1.667 6.214 3.36 12.406 5.052 18.589a4092 4092 0 0 0 5.261 19.099 4823 4823 0 0 0 5.344 19.114c1.796 6.375 3.599 12.75 5.421 19.094-3.468.089-31-.588-34.744-.516 0 0-9.396-22.333-10.026-24.817-1.245 2.698-10.35 22.599-11.594 25.406-3.089.422-37.276 12.281-40.37 12.729 3.386-7.594 6.74-15.104 10.1-22.531a4967 4967 0 0 1 9.942-21.974 4511 4511 0 0 1 9.812-21.448c2.406-5.266 4.813-10.474 7.193-15.63.818-1.771 1.64-3.542 2.458-5.318-1.64-6.557-3.25-13.115-4.89-19.698-1.615-6.562-3.198-13.146-4.813-19.729a3567 3567 0 0 1-4.734-19.755 4265 4265 0 0 1-4.656-19.781l35.567 12.854c.61 2.432 6.323 13.885 6.959 16.317 1.187-2.463 7.677-14.583 8.812-16.963l40.214-12.208a4872 4872 0 0 0-8.938 18.536c-3.015 6.245-6.026 12.562-9.068 18.937a6180 6180 0 0 0-9.151 19.36"/><path fill="#627995" d="m103.333 503.665 18.974 24.917c-1.765.218-13.854-.907-16.76-.979l-12.016-32.756-4.979 10.834c-.823 1.77-1.61 3.515-2.411 5.265l-1.318 2.896s-6.406 13.974-7.339 16.047l-30.062 10.406a3009 3009 0 0 1 6.963-15.495 2491 2491 0 0 1 9.943-21.958 3122 3122 0 0 1 9.802-21.437c2.104-4.605 4.193-9.157 6.287-13.657a875 875 0 0 1 7.708-1.5 12.22 12.22 0 0 0 10.047 5.245c5.734 0 10.536-3.943 11.859-9.26.979-.183 1.979-.339 2.974-.521 1.323 4.927 2.662 9.854 4.021 14.766l.052.229c1.75 6.338 3.479 12.692 5.25 18.994a2949 2949 0 0 0 5.339 19.136c1.104 3.948 2.229 7.875 3.333 11.802"/><path fill="#142d45" d="M106.354 459.264a8.19 8.19 0 0 0-8.187-8.187c-4.516 0-8.183 3.666-8.183 8.187a8.183 8.183 0 0 0 8.183 8.182 8.183 8.183 0 0 0 8.187-8.182"/><path fill="#fff" d="M791.698 436.561c3.094 6.531 6.187 13.14 9.307 19.781l-.156.552a3723 3723 0 0 1-5.052 18.589c-1.745 6.375-3.49 12.75-5.26 19.099a4098 4098 0 0 1-5.344 19.114c-1.797 6.375-3.594 12.75-5.422 19.094 3.469.089 31-.588 34.745-.516 0 0 9.39-22.333 10.026-24.817 1.245 2.698 10.349 22.599 11.588 25.406 3.094.422 37.282 12.281 40.375 12.729a4467 4467 0 0 0-10.099-22.531 5086 5086 0 0 0-9.942-21.974 4592 4592 0 0 0-9.813-21.448c-2.406-5.266-4.812-10.474-7.193-15.63-.817-1.771-1.64-3.542-2.458-5.318 1.641-6.557 3.25-13.115 4.891-19.698 1.614-6.562 3.198-13.146 4.812-19.729a3567 3567 0 0 0 4.735-19.755 4411 4411 0 0 0 4.656-19.781l-35.573 12.854c-.604 2.432-6.318 13.885-6.953 16.317-1.188-2.463-7.677-14.583-8.818-16.963l-40.208-12.208a4872 4872 0 0 1 8.937 18.536c3.016 6.245 6.026 12.562 9.068 18.937a5962 5962 0 0 1 9.151 19.36"/><path fill="#627995" d="m813.599 503.665-18.974 24.917c1.766.218 13.849-.907 16.76-.979l12.016-32.756 4.979 10.834c.823 1.77 1.604 3.515 2.412 5.265l1.317 2.896s6.407 13.974 7.339 16.047l30.062 10.406a2925 2925 0 0 0-6.963-15.495 2653 2653 0 0 0-9.943-21.958 3089 3089 0 0 0-9.802-21.437 2567 2567 0 0 0-6.281-13.657 920 920 0 0 0-7.714-1.5 12.22 12.22 0 0 1-10.047 5.245c-5.734 0-10.536-3.943-11.854-9.26-.984-.183-1.984-.339-2.984-.521a1755 1755 0 0 1-4.016 14.766l-.052.229c-1.75 6.338-3.479 12.692-5.25 18.994a2611 2611 0 0 1-5.338 19.136c-1.105 3.948-2.23 7.875-3.339 11.802"/><path fill="#142d45" d="M810.578 459.264a8.19 8.19 0 0 1 8.188-8.187c4.515 0 8.182 3.666 8.182 8.187a8.183 8.183 0 0 1-8.182 8.182c-4.521 0-8.188-3.661-8.188-8.182"/></svg>