<svg xmlns="http://www.w3.org/2000/svg" width="200" height="36" fill="none" viewBox="0 0 200 36"><path fill="#152e45" d="M11.668 31.897c2.743-2.092 2.482-4.124 2.482-4.124s-1.674-.183-2.365-2.756c-1.664 1.1-3.447 1.53-4.402 1.692q0-.005-.003-.008c2.291-1.027 3.006-2.367 3.006-2.367s-2.24.808-3.81.5c-1.133-.222-2.202-1.636-2.202-1.636s-.603 1.238-.134 2.56c.69 1.944 3.76 4.71 3.76 4.71s-.973-.303-2.194-1.256c.545 4.157 5.518 5.38 5.518 5.38l-.029-.01.029.01c1.533-.45 1.672-2.695 1.672-2.695s-.391.039-1.33 0"/><path fill="#fff" d="M7.208 22.794c.984.391 2.147.151 2.147.151l-1.408-.986-2.597-.94s.866 1.38 1.858 1.775m9.765 0c-.984.391-2.146.151-2.146.151l1.408-.986 2.596-.94s-.865 1.38-1.858 1.775"/><path fill="#637996" d="M6.746 24.282c1.294.297 2.925-.778 2.925-.778s-1.603.142-2.749-.053c-.996-.169-2.187-.969-2.187-.969s.717 1.503 2.011 1.8"/><path fill="#152e45" d="M8.693 21.282q-.649-.136-1.262-.304a22 22 0 0 1-2.225-.748c-1.548-.924-2.578-2.55-3.23-4.006a31 31 0 0 0 2.446 1.064c1.227.474 2.223.771 2.78.923.3 1.104.657 2.109 1.048 2.584q.216.26.443.487m-1.661-3.728a23 23 0 0 1-2.456-.828c-1.973-.954-2.977-2.535-3.402-3.403.741.357 1.542.7 2.308 1.005 1.273.507 2.448.906 3.09 1.082.12.639.278 1.395.46 2.144m9.878-4.259s-.848 5.673-1.963 7.026c-1.199 1.459-2.754 2.07-2.85 2.107l-.006.002s-1.067-.398-2.131-1.353l-.003-.002a7 7 0 0 1-.723-.754C8.12 18.968 7.27 13.295 7.27 13.295z"/><path fill="#e51641" d="M14.511 23.504s1.631 1.075 2.925.778 2.011-1.8 2.011-1.8-1.191.8-2.187.97c-1.146.194-2.749.052-2.749.052"/><path fill="#e51641" d="M19.942 25.758c.47-1.322-.134-2.56-.134-2.56s-1.068 1.414-2.202 1.636c-1.57.308-3.81-.5-3.81-.5s.715 1.34 3.006 2.367c-1.3 3.828-3.25 5.145-3.25 5.145s1.948-.218 2.618-.718c-1.149 2.675-3.312 3.465-3.312 3.465s4.972-1.224 5.517-5.38c-1.22.952-2.194 1.255-2.194 1.255s3.072-2.766 3.761-4.71"/><path fill="#637996" d="M11.319 34.59c-.143-.035-2.75-.72-4.343-2.686a5.3 5.3 0 0 1-1.169-2.691C6.99 30.135 7.94 30.449 8 30.467c-.093-.086-3.08-2.795-3.76-4.71-.468-1.321.135-2.56.135-2.56s1.07 1.415 2.203 1.637c.624.123 1.356.067 2.01-.041.988-.166 1.8-.46 1.8-.46S9.672 25.675 7.38 26.7c1.298 3.828 3.25 5.146 3.25 5.146s-1.95-.218-2.618-.718c1.111 2.592 3.178 3.414 3.306 3.462"/><path fill="#0f1124" d="M22.207 16.224a11.5 11.5 0 0 1-1.215 2.115c-.544.738-1.21 1.41-2.016 1.892a21 21 0 0 1-3.486 1.05q.227-.226.443-.486c.39-.475.747-1.48 1.046-2.584a30.7 30.7 0 0 0 5.228-1.987m.802-2.901a7.6 7.6 0 0 1-1.368 1.935 7.2 7.2 0 0 1-2.036 1.468 23 23 0 0 1-2.456.828c.184-.749.34-1.505.462-2.144.862-.236 2.688-.876 4.42-1.639q.5-.218.978-.448"/><path fill="#152e45" d="M23.896 9.421a2.55 2.55 0 0 1-1.186 1.684l-2.661 1.59-.018.01-.029.019-.013.008-.004.002-.83.496c.144-.106 2.465-1.846 3.184-4.296 0 0-.975.76-2.618 1.36.756-3.524-2.357-5.936-2.357-5.936s.204 3.026-2.924 5.57c0 0 .658-3.604-2.349-8.147-3.007 4.543-2.35 8.147-2.35 8.147-3.127-2.544-2.923-5.57-2.923-5.57S3.706 6.77 4.462 10.293c-1.644-.599-2.62-1.359-2.62-1.359.617 2.097 2.406 3.674 3 4.152.1.08.166.129.186.144l-3.555-2.125A2.55 2.55 0 0 1 .285 9.42c-.199-.98-.397-2.487-.21-4.124.778.874 2.817 2.233 2.817 2.233S2.548 5.343 4.15 3.87c1.603-1.475 4.008-2.327 4.008-2.327s.098.81.392 1.667c.093.272.207.55.343.807l.044.082C10.52 1.36 12.091 0 12.091 0s1.573 1.359 3.152 4.1c.602-1.077.779-2.557.779-2.557s2.405.852 4.009 2.326 1.26 3.66 1.26 3.66 2.039-1.358 2.818-2.232c.185 1.637-.013 3.144-.213 4.124"/><path fill="#0f1124" d="M9.671 12.893s4.486 5.328 2.239 9.589c1.111.899 2.931-.89 2.931-.89l1.648-4.28.66-4.597z"/><path fill="#0f1124" d="m16.75 13.593-.007-.059-.003-.02-.012-.019-.033-.051-.049-.072-.017-.027-.017-.005-.01-.012-.027-.035h-.102l-.862-.287-.25-.083-.093-.031-.026.095-.07.254-.083.299-.07.265-.135.523-.272 1.041-.036.131c-.08.294-.161.598-.248.89-.101.34-.201.67-.319.98a12 12 0 0 1-.633 1.397l-.084.146q-.084.152-.17.287a6 6 0 0 1-.597.819c-.037.043-.072.08-.107.119l-.063.07q-.024.022-.053.052l-.057.054-.067.066c-.214.222-.676.732-.681.737l-.119.13.175.025c.003 0 .069.01.175.01.235 0 .692-.045 1.116-.342l.053-.034.016-.01.008-.004.003-.002.003-.002.007-.005.073-.05q.083-.057.165-.118h.002l.004-.004.075-.06.155-.125.215-.19.006-.004.008-.009c.137-.134.278-.273.408-.422.274-.3.505-.624.713-.928v-.002l.003-.004c.238-.371.422-.691.584-1.011.379-.775.643-1.545.83-2.13.104-.32.205-.662.317-1.072l.028-.109q.058-.214.111-.435l.064-.268.03-.14.015-.066.002-.01a.4.4 0 0 0 .008-.133"/><path fill="#0f1124" d="m16.75 12.212-.008-.06-.003-.023-.012-.019-.035-.053-.05-.075-.019-.028-.017-.006-.01-.012-.029-.036h-.106l-.9-.3-.26-.087-.098-.033-.027.1-.073.265-.086.312-.072.277-.143.545-.284 1.087-.037.137c-.082.306-.168.623-.259.928-.105.355-.21.7-.332 1.023a12 12 0 0 1-.661 1.458l-.087.152q-.088.159-.179.3a6.5 6.5 0 0 1-.734.978l-.121.128-.059.056q-.037.034-.07.07c-.224.23-.706.762-.711.768l-.124.136.183.026c.003 0 .071.01.182.01.246 0 .723-.047 1.165-.357l.055-.035.017-.01.008-.005.003-.002.003-.002.007-.005.077-.053q.087-.059.173-.122v-.001l.005-.003.078-.063q.083-.063.162-.13l.225-.198.005-.005.01-.009a8 8 0 0 0 1.169-1.41v-.001l.003-.005c.248-.387.441-.721.609-1.055.396-.808.671-1.612.867-2.222.109-.335.213-.69.33-1.12l.03-.113q.06-.223.116-.453l.066-.28.032-.146.015-.069.003-.011c.004-.022.016-.074.008-.139"/><path fill="#fff" d="M11.144 16.43h-.712l-.898 1.433.898 1.432h.712l-.897-1.433zm1.894 2.865h.713l.897-1.433-.897-1.432h-.713l.897 1.432zM8.477 30.733c-1.301-.05-2.138-.893-2.138-.893s.02.942.636 2.064a5.3 5.3 0 0 1-1.168-2.691C6.99 30.135 7.94 30.449 8 30.467c-.093-.086-3.08-2.795-3.76-4.71-.468-1.321.135-2.56.135-2.56s1.07 1.415 2.202 1.637c.625.123 1.357.067 2.01-.041-.42.335-1.245.9-2.247 1.092 0 1.607 1.014 3.751 2.138 4.848"/><path fill="#e51641" d="M23.896 9.421a2.55 2.55 0 0 1-1.186 1.684l-2.661 1.59c.404-.248 2.57-1.636 2.96-3.058.43-1.568.334-2.582.334-2.582S21.799 8.26 20.47 8.84c.412-1.659.26-3.34-1.238-4.73-1.415-1.313-2.628-1.847-2.628-1.847s-.331 3.506-1.233 5.468c-.299-3.922-3.28-7.047-3.28-7.047-2.864 2.93-3.465 6.395-3.465 6.395s-.461-1.239.311-2.98C10.52 1.36 12.091 0 12.091 0s1.573 1.359 3.152 4.1c.602-1.077.779-2.557.779-2.557s2.405.852 4.009 2.326 1.26 3.66 1.26 3.66 2.039-1.358 2.818-2.232c.185 1.637-.013 3.144-.213 4.124"/><path fill="#637996" d="M8.551 3.21a4.2 4.2 0 0 1-.792-.984s-2.5 1.011-3.613 3.291c-.786 1.61-.101 3.954-.101 3.954S2.14 8.863.66 6.915c0 2.457 1.341 4.497 4.18 6.17.1.08.167.13.187.145l-3.555-2.125A2.55 2.55 0 0 1 .285 9.42c-.199-.98-.397-2.487-.21-4.124.778.874 2.817 2.233 2.817 2.233S2.548 5.343 4.15 3.87c1.604-1.476 4.01-2.328 4.01-2.328s.097.81.391 1.667"/><path fill="#e51641" d="M16.91 13.295s-.848 5.673-1.962 7.026c-1.2 1.459-2.755 2.07-2.852 2.107l-.005.002s1.855-1.452 2.42-2.844c.566-1.393 1.667-5.899 1.667-5.899l-3.187-.392z"/><path fill="#637996" d="M8.068 13.776s.715 5.47 1.89 7.299a7 7 0 0 1-.724-.754C8.12 18.968 7.27 13.295 7.27 13.295h2.713zm-1.036 3.778a23 23 0 0 1-1.839-.592c-.983-.586-1.595-1.337-1.595-1.337s.91.55 2.096.716c-1.708-1.066-2.212-2.013-2.212-2.013 1.273.507 2.448.906 3.09 1.082.12.639.278 1.395.46 2.144m1.661 3.728q-.649-.136-1.262-.304c-1.882-.797-3.388-2.389-3.446-2.45.05.025 1.2.614 2.929.87-1.073-.45-2.183-1.735-2.492-2.11 1.227.474 2.223.771 2.78.923.3 1.104.657 2.109 1.048 2.584q.216.26.443.487"/><path fill="#e51641" d="M17.15 17.554c.65-.179 1.265-.38 1.84-.592.983-.586 1.594-1.337 1.594-1.337s-.909.55-2.095.716c1.708-1.066 2.212-2.013 2.212-2.013-1.273.507-2.448.906-3.09 1.082a43 43 0 0 1-.46 2.144m-1.661 3.728q.65-.136 1.261-.304c1.883-.797 3.389-2.389 3.446-2.45-.05.025-1.2.614-2.928.87 1.073-.45 2.183-1.735 2.492-2.11a29 29 0 0 1-2.78.923c-.3 1.104-.658 2.109-1.048 2.584a7 7 0 0 1-.443.487"/><path fill="#0f1124" d="M33.478 1.896 43.91 16.382a935 935 0 0 0 3.43 13.61l-10.165-12.82a1130 1130 0 0 1-1.876-7.628 1015 1015 0 0 1-1.82-7.648"/><path fill="#152e45" d="m76.405 7.575-.872.013-.873.015-.076 1.17-.076 1.175-.077 1.18-.077 1.181 2.635-.072.88-.023.07-1.173.07-1.168.07-1.164.07-1.161-.873.013zm43.004 6.89-.016-3.614-.015-3.576-.87-.001-.87-.001h-1.741l-.004 3.576-.012 7.265-.005 3.69h1.782l.891.002q.446 0 .89.003a4400 4400 0 0 0-.03-7.344"/><path fill="#fff" d="M115.594 21.441h-2.542c0-1.171.004-2.342.004-3.504s.005-2.319.005-3.471c0-1.035.005-2.066.005-3.096v-.34q.006-1.706.005-3.398h2.484q.41-.001.826.004l.015 3.398v.35l.014 3.082.03 6.98q-.423.001-.846-.005m6.353-.797c-.025-2.06-.054-4.112-.078-6.154l-.044-3.038q-.015-1.502-.038-2.999-.036-2.983-.078-5.93h-13.98q-.028 2.944-.063 5.926l-.029 2.95c-.01 1.02-.02 2.051-.034 3.082q-.028 3.056-.064 6.149c-.019 2.075-.043 4.16-.063 6.26l1.6-.014q.801-.009 1.604-.01c.529-.005 1.064-.005 1.599-.01h1.599q1.02-.001 2.041.005 1.015.001 2.037.01 1.015.006 2.037.02 1.018.008 2.036.024c-.029-2.105-.053-4.195-.082-6.271m-16.06-18.121-.083 5.93q-.016 1.482-.039 2.97l-.044 3.072q-.037 3.055-.082 6.154-.038 3.114-.083 6.27c-.462.005-.928.015-1.39.02l-1.395.029-1.39.03q-.701.013-1.395.033c.048-2.114.092-4.214.141-6.3.048-2.075.092-4.136.141-6.183q.03-1.516.067-3.018.03-1.53.069-3.047l.131-5.96zm-7.194 0q-.014.642-.035 1.283L98.63 5.09c-.014.432-.024.86-.034 1.293q-.02.649-.034 1.297l-2.177.015-2.178.015-2.173.014q-1.092.014-2.177.02c-.049 1.157-.093 2.313-.141 3.475l-.03.72c-.034.928-.072 1.856-.106 2.79l-.146 3.553q-.068 1.785-.141 3.587l.846-.029.85-.03q.423-.015.846-.023l.846-.03c.014-.37.024-.739.039-1.108l.038-1.104c.015-.369.025-.733.04-1.103l.034-1.093c-.122 0-.244.004-.365.004-.126.005-.248.005-.37.01-.126.005-.247.005-.369.01q-.185.001-.37.01c.015-.453.035-.9.05-1.352.019-.447.033-.894.053-1.341.014-.448.029-.89.049-1.337l.043-1.332c.579-.01 1.152-.014 1.726-.024q.866-.016 1.725-.024c.574-.01 1.152-.015 1.726-.025l1.725-.02c-.033 1.235-.063 2.48-.097 3.724-.034 1.25-.063 2.508-.097 3.767q-.046 1.896-.097 3.806c-.034 1.283-.063 2.567-.097 3.855q-1.824.051-3.641.117-1.822.063-3.646.14a456 456 0 0 0-7.29.35q.16-3.258.315-6.474a9568 9568 0 0 1 .612-12.58c.098-2.046.2-4.088.297-6.11zm40.527 9.227-.838-.014-.833-.015-.838-.015q-.417-.009-.833-.01c0-.043-.005-.087-.005-.131-.015-.317-.02-.633-.034-.95-.01-.36-.024-.716-.039-1.077-.01-.356-.025-.716-.034-1.072-.015-.355-.024-.711-.039-1.067.277.005.555.005.833.01q.41-.001.828.005c.278 0 .551.005.829.005.277.005.55.005.828.01l.044 1.071.044 1.082.043 1.082.044 1.062zm5.895 9.184c-.102-2.134-.209-4.258-.311-6.368q-.06-1.266-.127-2.524a847 847 0 0 0-.18-3.722q-.148-3.083-.302-6.129h-14.013q.083 2.974.156 5.983c.029 1.052.054 2.11.088 3.172.02.974.049 1.949.073 2.928l.161 6.212c.053 2.095.112 4.205.166 6.329l1.393.043 1.398.044c.468.015.931.034 1.399.05.462.019.93.033 1.398.053l-.088-2.514-.088-2.5-.087-2.475-.088-2.46.848.02c.277.004.56.014.843.019.277.01.56.014.842.024.278.005.561.015.843.02.034.823.064 1.646.098 2.475l.102 2.494.098 2.51.102 2.533q.703.028 1.398.063.703.03 1.398.069l1.399.072q.702.038 1.403.073zm16.897 7.654a497 497 0 0 0-3.664-.297 479 479 0 0 0-7.328-.526 829 829 0 0 0-3.659-.23 9482 9482 0 0 0-.672-12.915c-.044-.823-.083-1.642-.127-2.456a886 886 0 0 0-.199-3.82c-.108-2.06-.21-4.117-.317-6.153h5.359c.097 1.618.2 3.245.297 4.882q.148 2.463.302 4.955.014.261.035.53c.083 1.492.175 2.992.267 4.498q.153 2.544.312 5.11l.848.045q.43.028.853.048l.852.05c.283.014.565.033.853.048q-.038-.519-.068-1.038l-.073-1.038c-.02-.34-.044-.687-.064-1.028q-.037-.518-.068-1.028.686.029 1.379.064.686.03 1.379.068.686.031 1.379.068c.458.024.92.044 1.378.068.064.833.122 1.661.186 2.495l.185 2.514.19 2.533q.088 1.273.185 2.553M67.049 2.523c-.04.457-.073.919-.107 1.376q-.057.692-.107 1.385c-.034.462-.073.923-.107 1.39q-.05.695-.107 1.395c-.724.015-1.453.03-2.177.04l-2.183.043-2.178.044c-.724.014-1.453.033-2.177.048q-.058.586-.107 1.176c-.034.39-.073.783-.107 1.177q-.05.593-.107 1.186l-.102 1.186q1.095-.045 2.197-.087c.734-.025 1.463-.054 2.197-.083.734-.025 1.463-.054 2.197-.078l2.197-.073q-.045.556-.082 1.118c-.01.097-.02.2-.025.301-.039.477-.073.953-.112 1.43-.034.476-.073.952-.107 1.428q-.059.724-.111 1.44c-.74.038-1.478.082-2.222.121q-1.108.06-2.216.126l-2.222.132c-.743.043-1.482.087-2.226.136-.034.403-.073.806-.107 1.21-.034.408-.073.812-.107 1.22-.039.408-.073.812-.111 1.22-.04.409-.073.822-.112 1.23.748-.059 1.497-.122 2.245-.18.744-.053 1.493-.112 2.241-.165q1.118-.086 2.236-.165c.749-.054 1.492-.108 2.241-.156q-.06.73-.112 1.468l-.116 1.473c-.035.49-.073.987-.112 1.478-.04.495-.073.991-.112 1.487q-1.836.162-3.665.33c-1.22.117-2.445.234-3.665.36a467 467 0 0 0-7.35.788c.233-2.421.472-4.827.7-7.214q.349-3.557.69-7.062l.059-.598c.204-2.12.413-4.225.612-6.315q.335-3.405.662-6.766zm111.616 27.722a472 472 0 0 0-3.688-.41 976 976 0 0 0-3.679-.384c-1.228-.127-2.45-.244-3.678-.361a478 478 0 0 0-3.669-.336c-.18-2.295-.356-4.58-.526-6.845q-.262-3.372-.517-6.704l-.131-1.686q-.192-2.455-.375-4.887c-.171-2.158-.332-4.307-.498-6.44h14.013l.146 1.456q.068.73.141 1.462c.049.492.098.979.142 1.47l.146 1.477c-.731-.02-1.457-.034-2.188-.053-.726-.015-1.457-.035-2.183-.05-.73-.014-1.456-.033-2.187-.048l-2.183-.044c.035.385.063.775.098 1.165q.052.578.097 1.164l.102 1.174q.053.586.098 1.18 1.103.037 2.207.082l2.202.088q1.103.05 2.207.092c.731.035 1.467.064 2.203.098l.146 1.5c.024.263.053.522.077.78l.074.736.146 1.515c.053.511.102 1.018.151 1.53q-1.112-.08-2.232-.151c-.74-.05-1.486-.098-2.226-.147q-1.117-.071-2.227-.136-1.117-.073-2.226-.136l.102 1.203.102 1.208.103 1.209.102 1.218 2.246.175c.75.059 1.495.117 2.246.18l2.251.19c.75.064 1.501.132 2.251.195.048.522.097 1.038.151 1.56q.076.774.151 1.564c.054.52.102 1.042.156 1.568q.073.789.156 1.579M73.664 11.297l.146-2.241.073-1.108.831-.015.827-.014q.417-.009.826-.01l.831-.015c-.024.37-.043.734-.068 1.104l-.063 1.108c-.024.37-.044.739-.068 1.108s-.044.744-.068 1.113c-.277.01-.554.015-.836.025l-.831.02c-.282.009-.56.014-.836.024-.277.009-.56.014-.837.024q.038-.562.073-1.123m-4.778-8.774-.466 6.382c-.117 1.546-.229 3.102-.346 4.662-.043.612-.092 1.23-.136 1.847-.16 2.197-.325 4.413-.486 6.64-.165 2.245-.335 4.506-.5 6.78l1.4-.116q.7-.06 1.4-.112c.466-.039.933-.073 1.4-.112l1.395-.102.174-2.63c.054-.87.112-1.735.17-2.605.054-.86.112-1.725.17-2.58q.08-1.291.166-2.568l.84-.038c.283-.01.565-.025.847-.034.277-.015.559-.025.84-.039q.424-.014.842-.034l-.151 2.542c-.054.85-.102 1.706-.156 2.562q-.075 1.282-.155 2.58c-.049.861-.102 1.731-.156 2.601.467-.034.933-.063 1.4-.097l1.395-.087 1.395-.088q.7-.045 1.4-.083.06-1.24.127-2.474c.043-.821.082-1.638.126-2.454.044-.812.083-1.624.126-2.436l.122-2.42q-.358-.372-.725-.744l-.719-.744q-.366-.374-.724-.748c-.238-.248-.481-.496-.72-.744.268-.272.54-.54.807-.802q.402-.403.802-.797.402-.4.802-.793l.243-.242q.278-.269.555-.545c.038-.788.082-1.575.121-2.358q.058-1.172.121-2.337l.117-2.324c.044-.773.083-1.54.122-2.31z"/><path fill="#637996" d="m54.088 17.72 1.423-1.864q-1.512.208-3.005.428l-.22 2.25q-.232 2.391-.47 4.806-.19 1.982-.386 3.983l-.13 1.333 2.641-2.49-1.391 3.282 1.384-.152q1.84-.197 3.681-.38c1.166-.12 2.34-.233 3.509-.345l.159-.015q1.507-.139 3.013-.273l.006-.082.056-.75c.04-.489.078-.982.111-1.47l.04-.507.078-.974.041-.57-1.19.085-.15.01-.137.01q-1.047.074-2.093.155l-1.165.086-1.08.08-1.117.09-1.125.09-.922.071.087-.92q.03-.305.056-.61.027-.312.056-.62.03-.305.056-.608l.056-.613.053-.606.053-.605.054-.609.053-.602.056-.667.668-.043c.746-.05 1.486-.093 2.232-.137l.183-.01 2.038-.121c.748-.044 1.485-.088 2.221-.127q.57-.03 1.137-.062l.402-.022.06-.753q.025-.36.054-.72l.053-.71.062-.802a357 357 0 0 0-6.927.83zm26.922 5.77.034-.666.063-1.211q.03-.612.064-1.224l.06-1.213.044-.868-.48-.492-.368-.38-.363-.375c-.24-.244-.484-.499-.724-.749a122 122 0 0 0-.72-.743l-.523-.545.53-.54c.27-.275.546-.545.816-.811l.353-.353a416 416 0 0 0-10.994.955l-.017.236q-.036.478-.07.958l-.126 1.703 2.975 3.743-3.115-1.829-.221 3.024-.194 2.622-.24 3.252.493-.04q.705-.062 1.408-.113.341-.03.694-.056l.698-.056.728-.053.13-1.955q.076-1.217.16-2.438l.01-.168c.054-.858.112-1.725.17-2.582q.08-1.286.166-2.567l.047-.687.689-.036.42-.02q.21-.008.42-.019c.152-.005.29-.011.429-.017l.43-.017c.13-.008.277-.014.423-.02q.203-.008.405-.02c.295-.01.57-.019.84-.033l.868-.046-.05.867-.073 1.231q-.04.654-.078 1.311l-.08 1.322-.076 1.244q-.069 1.2-.145 2.418l-.01.163q-.048.851-.101 1.715l.513-.036 1.403-.088 1.394-.087.706-.044q.045-.891.093-1.778l.002-.042-3.426-2.63zm16.538-6.624q.015-.619.032-1.235l.047-1.817.028-1.099-.06.001-.86.01c-.28.005-.569.008-.857.012l-.862.012c-.565.005-1.123.014-1.687.024h-.038l-.873.013-.113.001-.02.59c-.019.453-.033.892-.048 1.337l-.027.673-.027.677-.018.518.1-.003q.085 0 .171-.004h.03q.084 0 .166-.003l.199-.003h.798l-.021.8-.017.553-.017.54-.02.556-.02.557-.018.542-.02.562-.02.548-.019.56-.029.722-.721.025-.431.014-.415.015c-.291.005-.569.015-.846.024l-.46.016-.39.013-.846.03-.838.028.034-.837.007-.165q.07-1.716.134-3.42l.146-3.556.074-1.94c-1.316.065-2.62.139-3.895.22l-.094 1.926-.306 6.347-.105 2.151 1.262-.983-.848 2.07 2.857-1.012s-1.964 2.43-2.773 3.354q1.065-.057 2.127-.109a448 448 0 0 1 3.647-.16c1.214-.054 2.432-.098 3.649-.142q1.452-.052 2.91-.096l.03-1.168.048-1.95.003-.102q.05-1.858.095-3.702l.01-.417-3.526-3.79zm7.269 7.132c.015-1.12.031-2.246.044-3.358l.004-.259q.043-2.967.079-5.895l.032-2.274c-1.175.018-2.438.044-3.881.078a551 551 0 0 0-.05 2.274l-.075 3.28-.066 2.906-.075 3.345-.047 2.137.582-.012.579-.012.812-.017.787-.017.06-.001-1.472-6.288zm16.312-6.542-.038-2.956-.033-2.283c-1.148-.02-2.392-.035-3.881-.048l.011 2.287.015 3.477.014 3.51.003.781h-.781q-.429.001-.859-.005h-3.306v-.778a1033 1033 0 0 1 .005-3.504l.002-1.745.002-1.726q0-.778.003-1.554l.002-.764c-1.303.001-2.603.008-3.881.02q-.01 1.159-.027 2.324l-.001.134q-.027 2.99-.062 6.013-.014 1.519-.031 3.05l-.013 1.225 3.109-2.214-2.113 3.397q.71-.008 1.41-.009l.797-.005q.397 0 .796-.004h1.606q1.023-.001 2.047.005h.004c.67 0 1.352.004 2.033.009q1.019.006 2.042.02l1.237.012-.029-2.226-.043-3.244-.016-1.28c-.793-.747-2.806-2.63-3.074-2.744-.301-.13 2.481.663 3.05.825m23.032-.081-.136-2.771q-.042-.916-.091-1.827a535 535 0 0 0-4.755-.273l-.999-.05q-1.163-.058-2.341-.11c-.592-.028-1.193-.053-1.794-.079 2.811 1.194 9.324 4.052 9.324 4.052l-12.116-3.022.025.96.161 6.21.076 2.901.071 2.692.657.021 1.399.044q.353.011.705.025.345.013.693.024l.566.022-.015-.42-.043-1.24-3.666-2.802s2.754.734 3.602.984l-.025-.698-.087-2.471-.088-2.463-.029-.822.821.014.431.01.417.01q.21.003.421.01l.422.01.431.012.425.012c.126.002.267.006.408.01l.422.01.735.012.03.734.05 1.263.048 1.213.102 2.494q.026.637.049 1.278l.048 1.232.074 1.817q.347.014.689.033c.462.019.933.043 1.398.068l1.399.073.541.028-.279-5.632zm16.962 9.742-.074-1.028-.189-2.529-.093-1.26-.093-1.254q-.048-.624-.092-1.248l-.042-.56h-.002l-.692-.034-.069-.004q-.654-.036-1.301-.064l-.078-.005q-.654-.034-1.301-.064l-.511-.025.006.088.005.069c.01.178.021.347.032.516l.032.522.073 1.027c.019.35.043.69.067 1.03l.062.878-.879-.037q-.225-.011-.448-.025l-.405-.024q-.225-.011-.448-.025l-.405-.023c-.29-.015-.575-.03-.865-.05l-.364-.018-.471-.025-.694-.036-.044-.694-.105-1.72-2.772-3.412 2.666 1.667-.067-1.094-.033-.553-.01-.145q-.114-1.844-.22-3.673c-1.278-.096-2.588-.19-3.912-.283l.081 1.576.336 6.398.3 5.824q1.477.09 2.949.186a449 449 0 0 1 7.357.528l.318.025-2.953-3.005zm16.536.881-.081-.821-.084-.868-.068-.703-.007-.074c-1.16.198-4.958.84-5.089.787-.125-.052 2.79-1.254 3.924-1.718l-.519-.045-1.508-.127-.743-.063a338 338 0 0 0-2.242-.18l-1.123-.087-1.123-.088-.66-.052-.056-.66-.051-.61-.051-.608-.102-1.207-.103-1.208-.101-1.19-.076-.898.898.04q1.112.064 2.231.136 1.108.065 2.227.137l1.104.072 1.123.074 1.315.087-.061-.607-.009-.092-.1-1.033h-6.89l3.948-.881c-3.29-.407-6.623-.784-9.955-1.123l.059.756.108 1.413q.202 2.635.408 5.29c.135 1.788.273 3.59.414 5.396l3.593-1.768-1.633 2.736q.558.05 1.118.103c1.229.117 2.454.234 3.684.361s2.453.254 3.682.385q1.364.147 2.732.3l-.059-.622z"/><path fill="#fff" d="M46.936 12.338c-.65 1.373-1.3 2.762-1.956 4.157l.033.117q.527 1.958 1.062 3.907.548 2.012 1.106 4.013a879 879 0 0 0 2.262 8.031c-.73.018-6.516-.123-7.302-.108 0 0-1.975-4.694-2.108-5.216-.261.567-2.175 4.75-2.436 5.339-.65.089-7.835 2.581-8.485 2.675q1.065-2.392 2.123-4.735 1.049-2.334 2.09-4.619a892 892 0 0 1 2.062-4.507q.76-1.659 1.511-3.285l.517-1.117c-.344-1.378-.683-2.756-1.028-4.14-.339-1.379-.672-2.763-1.011-4.147a745 745 0 0 1-.995-4.152 873 873 0 0 1-.978-4.157l7.475 2.702c.128.511 1.328 2.917 1.462 3.428.25-.517 1.614-3.064 1.852-3.565L52.644.394a879 879 0 0 0-1.878 3.896q-.95 1.969-1.907 3.98-.957 2.017-1.923 4.068"/><path fill="#637996" d="m42.333 26.442 3.988 5.237c-.371.045-2.911-.191-3.523-.206l-2.524-6.885-1.047 2.278c-.173.371-.338.739-.507 1.106l-.277.608s-1.347 2.938-1.542 3.373l-6.318 2.187q.73-1.64 1.463-3.256a542 542 0 0 1 2.09-4.615c.686-1.52 1.377-3.024 2.06-4.506a515 515 0 0 1 1.32-2.87q.816-.164 1.62-.315a2.568 2.568 0 0 0 4.604-.844l.627-.11q.416 1.555.844 3.104l.011.048c.368 1.332.732 2.668 1.103 3.992.372 1.347.743 2.683 1.122 4.022l.701 2.48z"/><path fill="#152e45" d="M42.968 17.11a1.72 1.72 0 1 0-3.44 0 1.72 1.72 0 0 0 3.44 0"/><path fill="#fff" d="M182.176 12.038c.65 1.373 1.301 2.762 1.956 4.157l-.033.117q-.526 1.958-1.062 3.907-.548 2.012-1.106 4.013a805 805 0 0 1-1.122 4.018q-.565 2.012-1.14 4.013c.729.018 6.516-.124 7.302-.109 0 0 1.974-4.693 2.108-5.215.261.566 2.175 4.75 2.436 5.339.65.088 7.835 2.58 8.485 2.675a986 986 0 0 0-2.123-4.735 934 934 0 0 0-2.09-4.619 857 857 0 0 0-2.062-4.507 744 744 0 0 0-1.512-3.285l-.516-1.117c.344-1.378.683-2.757 1.028-4.14.339-1.38.672-2.763 1.011-4.147q.502-2.068.995-4.152.494-2.075.978-4.157l-7.475 2.701c-.128.512-1.328 2.918-1.462 3.43-.25-.518-1.613-3.066-1.853-3.566L176.468.094a826 826 0 0 1 1.879 3.896q.948 1.969 1.906 3.98.957 2.016 1.923 4.068"/><path fill="#637996" d="m186.779 26.141-3.988 5.238c.371.045 2.911-.192 3.522-.207l2.526-6.884 1.046 2.277c.173.372.338.74.507 1.107l.278.608s1.346 2.937 1.541 3.373l6.318 2.187q-.731-1.64-1.463-3.257a553 553 0 0 0-2.09-4.614 630 630 0 0 0-2.059-4.506 581 581 0 0 0-1.321-2.87q-.816-.163-1.621-.316a2.568 2.568 0 0 1-4.603-.844l-.627-.109a393 393 0 0 1-.844 3.103l-.011.049c-.368 1.332-.732 2.668-1.103 3.992a596 596 0 0 1-1.122 4.022l-.702 2.48z"/><path fill="#152e45" d="M186.144 16.81a1.72 1.72 0 1 1 3.44-.001 1.72 1.72 0 0 1-3.44 0"/></svg>