<svg width="178" height="178" viewBox="0 0 178 178" fill="none" xmlns="http://www.w3.org/2000/svg">
<path d="M86.5156 158.768C99.5687 148.813 98.3272 139.145 98.3272 139.145C98.3272 139.145 90.3604 138.274 87.0734 126.032C79.1572 131.267 70.671 133.313 66.1288 134.082C66.1244 134.069 66.1194 134.057 66.115 134.045C77.0161 129.16 80.419 122.781 80.419 122.781C80.419 122.781 69.7598 126.627 62.2891 125.161C56.8965 124.104 51.811 117.376 51.811 117.376C51.811 117.376 48.9427 123.267 51.1736 129.557C54.4534 138.807 69.0703 151.971 69.0703 151.971C69.0703 151.971 64.4397 150.529 58.6313 145.995C61.2236 165.771 84.8837 171.594 84.8837 171.594C84.8837 171.594 84.8352 171.577 84.749 171.542C84.7939 171.559 84.8381 171.577 84.8837 171.594C92.1791 169.446 92.839 158.768 92.839 158.768C92.839 158.768 90.9797 158.954 86.5156 158.768Z" fill="#152E45"/>
<path d="M65.2976 115.457C69.9804 117.318 75.5106 116.175 75.5106 116.175L68.812 111.483L56.4572 107.012C56.4572 107.012 60.575 113.58 65.2976 115.457Z" fill="white"/>
<path d="M111.76 115.457C107.077 117.318 101.546 116.175 101.546 116.175L108.245 111.483L120.6 107.012C120.6 107.012 116.483 113.58 111.76 115.457Z" fill="white"/>
<path d="M63.0985 122.534C69.2545 123.947 77.0157 118.835 77.0157 118.835C77.0157 118.835 69.3885 119.508 63.9358 118.583C59.198 117.779 53.5301 113.971 53.5301 113.971C53.5301 113.971 56.9424 121.122 63.0985 122.534Z" fill="#637996"/>
<path d="M72.3598 108.261C70.3056 107.836 68.2978 107.349 66.3588 106.815C62.5495 105.765 58.9924 104.538 55.7684 103.258C48.4027 98.8583 43.5034 91.1189 40.3997 84.1943C44.5421 86.2195 48.4947 87.8949 52.0396 89.2602C57.8798 91.5151 62.6183 92.926 65.2687 93.6489C66.6977 98.9039 68.3956 103.683 70.2542 105.943C70.9372 106.769 71.6427 107.544 72.3598 108.261Z" fill="#152E45"/>
<path d="M64.4601 90.5226C61.3738 89.6737 58.4417 88.7154 55.711 87.7057C54.7013 87.3384 53.7263 86.9604 52.7739 86.5815C43.383 82.0436 38.6104 74.5222 36.5852 70.3921C40.1134 72.0899 43.9226 73.7255 47.5652 75.1763C53.6235 77.5861 59.2167 79.4846 62.2683 80.3219C62.842 83.3626 63.5938 86.9603 64.4601 90.5226Z" fill="#152E45"/>
<path d="M111.462 70.2599C111.462 70.2599 107.423 97.2519 102.122 103.688C96.4146 110.63 89.0134 113.538 88.5549 113.716C88.5375 113.722 88.5317 113.722 88.5317 113.722C88.5317 113.722 83.4542 111.829 78.389 107.285L78.3774 107.274C77.2069 106.224 76.0429 105.031 74.9354 103.688C69.6406 97.2519 65.5959 70.2599 65.5959 70.2599H111.462Z" fill="#152E45"/>
<path d="M100.045 118.835C100.045 118.835 107.807 123.947 113.963 122.534C120.118 121.122 123.531 113.972 123.531 113.972C123.531 113.972 117.863 117.779 113.126 118.582C107.673 119.508 100.045 118.835 100.045 118.835Z" fill="#E51641"/>
<path d="M125.887 129.557C128.118 123.267 125.25 117.376 125.25 117.376C125.25 117.376 120.164 124.104 114.773 125.161C107.302 126.627 96.642 122.781 96.642 122.781C96.642 122.781 100.045 129.16 110.946 134.044C104.764 152.257 95.4816 158.528 95.4816 158.528C95.4816 158.528 104.751 157.49 107.94 155.109C102.473 167.839 92.178 171.594 92.178 171.594C92.178 171.594 115.837 165.771 118.43 145.995C112.622 150.529 107.991 151.971 107.991 151.971C107.991 151.971 122.608 138.807 125.887 129.557Z" fill="#E51641"/>
<path d="M84.8545 171.583C84.1772 171.418 71.7746 168.158 64.1902 158.802C61.4312 155.394 59.3082 151.172 58.6317 145.997C64.2539 150.386 68.7802 151.877 69.0613 151.964C68.6194 151.556 54.4031 138.666 51.1733 129.556C48.9417 123.268 51.81 117.376 51.81 117.376C51.81 117.376 56.8991 124.106 62.2917 125.161C65.2636 125.747 68.7455 125.483 71.855 124.967C76.5588 124.175 80.4201 122.78 80.4201 122.78C80.4201 122.78 77.018 129.16 66.1176 134.042C72.2968 152.256 81.5791 158.527 81.5791 158.527C81.5791 158.527 72.3077 157.488 69.1243 155.108C74.4133 167.442 84.2468 171.354 84.8545 171.583Z" fill="#637996"/>
<path d="M136.664 84.1945C135.172 87.5105 133.272 91.0213 130.881 94.2569C128.293 97.7677 125.127 100.969 121.289 103.258C116.424 105.185 110.802 107.01 104.704 108.261C105.421 107.543 106.126 106.769 106.809 105.943C108.662 103.683 110.366 98.9041 111.788 93.6492C115.689 92.5822 124.083 90.0406 133.881 85.5143C134.799 85.0956 135.722 84.6538 136.664 84.1945Z" fill="#0F1124"/>
<path d="M140.479 70.3921C139.32 72.7556 137.265 76.215 133.968 79.5998C131.495 82.1407 128.311 84.6367 124.284 86.5815C120.761 87.9867 116.826 89.3637 112.598 90.5226C113.47 86.9603 114.215 83.3626 114.795 80.3219C118.897 79.1978 127.582 76.152 135.825 72.526C137.404 71.8321 138.97 71.1208 140.479 70.3921Z" fill="#0F1124"/>
<path d="M144.701 51.8279C144.018 55.1779 141.982 58.0868 139.056 59.8368L126.395 67.4031C126.367 67.4205 126.332 67.4379 126.309 67.4553L126.171 67.5407L126.108 67.5813C126.096 67.5871 126.091 67.5871 126.091 67.5871L122.138 69.9506C122.827 69.4457 133.87 61.1674 137.289 49.5101C137.289 49.5101 132.653 53.1245 124.834 55.9754C128.431 39.2124 113.618 27.7332 113.618 27.7332C113.618 27.7332 114.588 42.1328 99.7071 54.237C99.7071 54.237 102.839 37.0901 88.5315 15.474C74.2239 37.0901 77.3508 54.237 77.3508 54.237C62.4695 42.1328 63.4386 27.7332 63.4386 27.7332C63.4386 27.7332 48.632 39.2124 52.229 55.9754C44.4099 53.1245 39.7684 49.5101 39.7684 49.5101C42.7005 59.4862 51.2135 66.9902 54.0362 69.2617C54.5121 69.6406 54.8279 69.876 54.9256 69.9506L38.0076 59.8368C35.082 58.0868 33.0394 55.1779 32.3564 51.8279C31.4104 47.164 30.4695 39.9932 31.3532 32.2023C35.0588 36.3614 44.7597 42.8267 44.7597 42.8267C44.7597 42.8267 43.1249 32.4204 50.7492 25.4096C58.3792 18.3938 69.8236 14.3434 69.8236 14.3434C69.8236 14.3434 70.2886 18.1924 71.6887 22.2718C72.1305 23.5684 72.6694 24.8881 73.3177 26.1151C73.3865 26.2477 73.4611 26.3795 73.5299 26.5055C81.0506 13.4662 88.5315 7.00015 88.5315 7.00015C88.5315 7.00015 96.0123 13.4662 103.527 26.5055C106.39 21.3824 107.234 14.3434 107.234 14.3434C107.234 14.3434 118.679 18.3938 126.309 25.4096C133.939 32.4204 132.304 42.8267 132.304 42.8267C132.304 42.8267 142.004 36.3614 145.71 32.2023C146.593 39.9932 145.652 47.164 144.701 51.8279Z" fill="#152E45"/>
<path d="M77.0159 68.3461C77.0159 68.3461 98.3588 93.6982 87.6685 113.971C92.9568 118.247 101.615 109.737 101.615 109.737L109.457 89.374L112.599 67.4972L77.0159 68.3461Z" fill="#0F1124"/>
<path d="M110.699 71.676L110.663 71.3971L110.65 71.2965L110.593 71.211L110.434 70.9669L110.205 70.625L110.12 70.4983L110.041 70.4715L109.997 70.4179L109.864 70.2513H109.65H109.381L105.28 68.8845L104.092 68.4883L103.646 68.3398L103.522 68.7925L103.189 69.9999L102.797 71.4247L102.466 72.685L101.817 75.1716L100.523 80.1282L100.355 80.7518C99.977 82.1483 99.5866 83.5933 99.1715 84.9855C98.6927 86.6036 98.2169 88.1769 97.6577 89.648C97.0384 91.2777 96.3945 92.785 95.7447 94.1272C95.3775 94.8964 94.9842 95.6497 94.6445 96.2951C94.5163 96.5131 94.3816 96.7507 94.2461 96.989C93.9709 97.4721 93.713 97.927 93.4334 98.3565C92.4998 99.861 91.5733 101.131 90.5948 102.25C90.4202 102.455 90.2529 102.637 90.0863 102.818C89.9777 102.937 89.8799 103.043 89.7835 103.15C89.7118 103.218 89.622 103.309 89.5315 103.399C89.4366 103.494 89.3489 103.577 89.2642 103.656C89.1526 103.762 89.044 103.865 88.9411 103.971C87.9242 105.025 85.7251 107.45 85.7034 107.475L85.1377 108.099L85.9714 108.215C85.9844 108.217 86.2981 108.26 86.8044 108.26C87.922 108.26 90.0972 108.048 92.113 106.633C92.1941 106.576 92.2796 106.525 92.3658 106.474L92.4425 106.428L92.4795 106.406L92.4925 106.398L92.5056 106.389L92.5403 106.365C92.6555 106.284 92.7714 106.204 92.888 106.123C93.1538 105.941 93.4139 105.762 93.6746 105.565L93.6804 105.561L93.7 105.546C93.8282 105.443 93.9433 105.353 94.0578 105.262C94.3055 105.067 94.5539 104.872 94.7944 104.667L95.8208 103.763L95.8454 103.741L95.8874 103.701C96.5357 103.062 97.2064 102.402 97.825 101.691C99.1317 100.261 100.229 98.7216 101.218 97.273L101.221 97.2679L101.235 97.2469C102.365 95.4802 103.243 93.9563 104.01 92.4359C105.814 88.7498 107.07 85.0847 107.964 82.3019C108.457 80.7757 108.935 79.1539 109.469 77.2004L109.604 76.6825C109.781 76.0082 109.964 75.3121 110.131 74.6146L110.433 73.3391L110.58 72.6756L110.649 72.3591L110.66 72.3076C110.682 72.2077 110.735 71.9701 110.699 71.676Z" fill="#0F1124"/>
<path d="M110.699 65.1069L110.661 64.8165L110.647 64.7107L110.589 64.6223L110.422 64.3666L110.183 64.0096L110.095 63.8777L110.012 63.8502L109.966 63.7944L109.827 63.6206H109.604H109.323L105.043 62.1937L103.803 61.7808L103.339 61.6251L103.208 62.0981L102.862 63.3577L102.452 64.8447L102.107 66.1601L101.431 68.7553L100.08 73.927L99.9038 74.5775C99.5098 76.0355 99.1027 77.5429 98.6696 78.9959C98.1691 80.6843 97.6729 82.3263 97.0898 83.8619C96.4423 85.5619 95.7715 87.1351 95.0928 88.5359C94.7097 89.3385 94.299 90.1244 93.9448 90.798C93.8115 91.0255 93.6703 91.2732 93.529 91.5216C93.2422 92.0265 92.972 92.5009 92.6808 92.9493C91.7066 94.5189 90.7397 95.8451 89.7191 97.012C89.5365 97.2264 89.3627 97.4154 89.1881 97.6052C89.0744 97.7291 88.7036 98.1166 88.6094 98.2108C88.5095 98.3107 88.4189 98.3962 88.3305 98.4802C88.2139 98.5903 88.1002 98.6975 87.993 98.8083C86.9319 99.9071 84.6372 102.439 84.614 102.465L84.0244 103.115L84.8943 103.237C84.9081 103.239 85.2348 103.284 85.7635 103.284C86.9297 103.284 89.199 103.063 91.3032 101.586C91.3879 101.527 91.4777 101.474 91.5668 101.42L91.6472 101.372L91.6849 101.349L91.6994 101.341L91.7124 101.331L91.7486 101.306C91.8689 101.221 91.9906 101.138 92.1115 101.054C92.3897 100.863 92.6606 100.677 92.9336 100.471L92.938 100.468L92.959 100.452C93.093 100.344 93.2125 100.25 93.3327 100.156C93.5913 99.952 93.8506 99.7478 94.1012 99.5348L95.1725 98.591L95.1986 98.5686L95.2421 98.5266C95.9186 97.8602 96.619 97.1714 97.2637 96.4282C98.6283 94.9368 99.772 93.3303 100.805 91.8179L100.809 91.8128L100.822 91.7918C102.001 89.9477 102.918 88.357 103.717 86.7708C105.601 82.9246 106.912 79.0994 107.844 76.1963C108.36 74.6028 108.859 72.9108 109.414 70.8718L109.556 70.3307C109.741 69.6274 109.932 68.9009 110.106 68.173L110.421 66.8424L110.574 66.1499L110.646 65.8196L110.658 65.766C110.681 65.6617 110.736 65.414 110.699 65.1069Z" fill="#0F1124"/>
<path d="M84.0247 85.174H80.6341L76.3657 91.9914L80.6341 98.808H84.0247L79.7562 91.9914L84.0247 85.174Z" fill="white"/>
<path d="M93.0366 98.8081H96.4279L100.695 91.9908L96.4279 85.1741H93.0366L97.3051 91.9908L93.0366 98.8081Z" fill="white"/>
<path d="M71.3326 153.231C65.1425 152.991 61.1617 148.98 61.1617 148.98C61.1617 148.98 61.2587 153.461 64.1901 158.802C61.4311 155.394 59.3081 151.172 58.6316 145.997C64.2538 150.386 68.7801 151.877 69.0611 151.964C68.6193 151.557 54.403 138.666 51.1732 129.556C48.9416 123.268 51.8099 117.376 51.8099 117.376C51.8099 117.376 56.899 124.106 62.2916 125.161C65.2635 125.747 68.7453 125.482 71.8549 124.967C69.8579 126.561 65.9284 129.252 61.1617 130.164C61.1617 137.811 65.9857 148.011 71.3326 153.231Z" fill="white"/>
<path d="M144.701 51.8278C144.018 55.1778 141.982 58.0867 139.056 59.8366L126.395 67.403C128.316 66.2216 138.619 59.6179 140.479 52.8541C142.526 45.3907 142.067 40.5667 142.067 40.5667C142.067 40.5667 134.719 46.3084 128.403 49.0623C130.364 41.1686 129.642 33.1655 122.51 26.5517C115.781 20.3095 110.01 17.7685 110.01 17.7685C110.01 17.7685 108.433 34.4512 104.141 43.7849C102.719 25.1226 88.5315 10.2529 88.5315 10.2529C74.9069 24.1933 72.0501 40.6811 72.0501 40.6811C72.0501 40.6811 69.8533 34.7873 73.5299 26.5054C81.0506 13.466 88.5315 7 88.5315 7C88.5315 7 96.0123 13.466 103.527 26.5054C106.39 21.3822 107.234 14.3432 107.234 14.3432C107.234 14.3432 118.679 18.3936 126.309 25.4095C133.939 32.4202 132.304 42.8266 132.304 42.8266C132.304 42.8266 142.004 36.3613 145.71 32.2022C146.593 39.993 145.652 47.1638 144.701 51.8278Z" fill="#E51641"/>
<path d="M71.6886 22.2716C70.5927 21.2452 69.0209 19.5756 67.9192 17.5903C67.9192 17.5903 56.0214 22.4034 50.7266 33.2516C46.9862 40.9107 50.2442 52.0631 50.2442 52.0631C50.2442 52.0631 41.18 49.1716 34.1468 39.9009C34.1468 51.5923 40.5259 61.299 54.036 69.2622C54.5126 69.6403 54.8277 69.8757 54.9255 69.9503L38.0074 59.8366C35.0819 58.0866 33.0393 55.1784 32.357 51.8277C31.4103 47.1638 30.4694 39.9929 31.3531 32.2021C35.0587 36.3612 44.7596 42.8265 44.7596 42.8265C44.7596 42.8265 43.1248 32.4201 50.749 25.4101C58.3791 18.3935 69.8242 14.3431 69.8242 14.3431C69.8242 14.3431 70.2885 18.1929 71.6886 22.2716Z" fill="#637996"/>
<path d="M111.462 70.2599C111.462 70.2599 107.423 97.2519 102.122 103.688C96.4145 110.63 89.0134 113.538 88.5549 113.716C88.5375 113.722 88.5317 113.722 88.5317 113.722C88.5317 113.722 97.3547 106.815 100.046 100.189C102.736 93.5629 107.977 72.1243 107.977 72.1243L92.811 70.2599H111.462Z" fill="#E51641"/>
<path d="M69.3879 72.5493C69.3879 72.5493 72.79 98.5714 78.3775 107.274C77.2069 106.224 76.043 105.031 74.9355 103.689C69.6406 97.2517 65.596 70.2597 65.596 70.2597H78.5042L69.3879 72.5493Z" fill="#637996"/>
<path d="M64.4601 90.5226C61.3738 89.6737 58.4417 88.7154 55.711 87.7057C51.0297 84.9178 48.1215 81.3439 48.1215 81.3439C48.1215 81.3439 52.4486 83.9624 58.0918 84.7519C49.9635 79.678 47.5652 75.1763 47.5652 75.1763C53.6235 77.5861 59.2167 79.4846 62.2683 80.3219C62.842 83.3626 63.5938 86.9603 64.4601 90.5226Z" fill="#637996"/>
<path d="M72.3598 108.261C70.3056 107.836 68.2977 107.349 66.3587 106.815C57.4039 103.023 50.2381 95.4503 49.9629 95.1577C50.1983 95.2787 55.6713 98.0774 63.8975 99.2994C58.7924 97.1547 53.5085 91.0442 52.0395 89.2602C57.8798 91.5151 62.6183 92.926 65.2686 93.6489C66.6977 98.9039 68.3955 103.683 70.2541 105.943C70.9372 106.769 71.6427 107.544 72.3598 108.261Z" fill="#637996"/>
<path d="M112.603 90.5226C115.69 89.6737 118.622 88.7154 121.352 87.7057C126.033 84.9178 128.942 81.3439 128.942 81.3439C128.942 81.3439 124.615 83.9624 118.972 84.7519C127.1 79.678 129.498 75.1763 129.498 75.1763C123.44 77.5861 117.847 79.4846 114.794 80.3219C114.221 83.3626 113.47 86.9603 112.603 90.5226Z" fill="#E51641"/>
<path d="M104.704 108.261C106.758 107.836 108.765 107.349 110.704 106.815C119.659 103.023 126.825 95.4503 127.1 95.1577C126.865 95.2787 121.392 98.0774 113.166 99.2994C118.271 97.1547 123.555 91.0442 125.024 89.2602C119.184 91.5151 114.444 92.926 111.795 93.6489C110.366 98.9039 108.668 103.683 106.809 105.943C106.126 106.769 105.421 107.544 104.704 108.261Z" fill="#E51641"/>
</svg>
