<svg width="915" height="614" viewBox="0 0 915 614" fill="none" xmlns="http://www.w3.org/2000/svg">
<path d="M513.078 420.108L500.901 451.978L493.714 488.853L508.214 453.577L513.078 420.108Z" fill="#B1B1B1"/>
<path d="M651.047 249.733L603.312 206.129C603.312 206.129 606.948 150.624 600.714 117.785C570.62 54.8737 528.906 21.7695 528.906 21.7695C503.896 10.7591 496.583 8.09766 462.807 0.472656C460.021 -0.157552 457.125 -0.157552 454.339 0.472656C420.562 8.09766 413.25 10.7591 388.24 21.7695C388.24 21.7695 346.531 54.8737 316.432 117.785C310.203 150.624 313.833 206.129 313.833 206.129L266.104 249.733L204.547 289.915C215.901 296.118 338.146 377.431 338.146 377.431L350.594 394.853L458.573 464.931L566.552 394.853L579.005 377.431C579.005 377.431 701.25 296.118 712.604 289.915" fill="#0F1123"/>
<path d="M454.865 343.993C478.891 325.665 476.609 307.868 476.609 307.868C476.609 307.868 461.943 306.27 455.891 283.733C441.318 293.368 425.698 297.134 417.339 298.551C417.328 298.525 417.318 298.504 417.312 298.483C437.38 289.488 443.641 277.749 443.641 277.749C443.641 277.749 424.021 284.827 410.271 282.129C400.344 280.181 390.979 267.801 390.979 267.801C390.979 267.801 385.703 278.645 389.807 290.223C395.844 307.249 422.75 331.478 422.75 331.478C422.75 331.478 414.229 328.827 403.536 320.478C408.307 356.884 451.859 367.603 451.859 367.603C451.859 367.603 451.771 367.572 451.615 367.509C451.698 367.535 451.776 367.572 451.859 367.603C465.292 363.65 466.505 343.993 466.505 343.993C466.505 343.993 463.083 344.332 454.865 343.993Z" fill="#142D45"/>
<path d="M415.807 264.264C424.427 267.691 434.609 265.587 434.609 265.587L422.276 256.952L399.531 248.723C399.531 248.723 407.115 260.811 415.807 264.264Z" fill="white"/>
<path d="M501.333 264.264C492.714 267.691 482.531 265.587 482.531 265.587L494.865 256.952L517.609 248.723C517.609 248.723 510.031 260.811 501.333 264.264Z" fill="white"/>
<path d="M411.76 277.295C423.089 279.894 437.375 270.483 437.375 270.483C437.375 270.483 423.339 271.722 413.297 270.019C404.578 268.54 394.146 261.53 394.146 261.53C394.146 261.53 400.427 274.696 411.76 277.295Z" fill="#627995"/>
<path d="M425.172 374.462C427.193 381.436 437.807 418.045 440.422 426.483C442.932 434.592 445.615 439.868 447.203 442.597C447.797 443.618 449.292 443.509 449.74 442.415C450.943 439.509 452.651 434.274 452.521 428.337C452.354 421.108 449.974 396.717 449.016 387.123C439.016 383.931 431.125 379.332 425.172 374.462Z" fill="#142D45"/>
<path d="M428.807 251.019C425.026 250.238 421.328 249.342 417.76 248.358C410.75 246.426 404.198 244.165 398.266 241.811C384.708 233.712 375.688 219.467 369.974 206.717C377.599 210.446 384.875 213.53 391.401 216.045C402.151 220.196 410.875 222.79 415.755 224.124C418.385 233.795 421.51 242.592 424.932 246.754C426.188 248.275 427.484 249.702 428.807 251.019Z" fill="#142D45"/>
<path d="M414.266 218.368C408.583 216.806 403.188 215.04 398.161 213.181C396.302 212.509 394.505 211.811 392.755 211.113C375.464 202.759 366.682 188.915 362.953 181.311C369.448 184.436 376.458 187.446 383.167 190.118C394.318 194.551 404.615 198.051 410.229 199.587C411.286 205.186 412.672 211.811 414.266 218.368Z" fill="#142D45"/>
<path d="M345.417 105.681C345.417 105.681 330.25 122.238 329.354 135.399C326.266 181.066 328.375 208.019 334.224 257.472C337.104 281.827 342.542 304.936 348.37 324.655C348.828 325.972 365.224 372.905 372.151 372.905C377.531 372.905 364.25 325.665 364.25 325.665V325.675C361.833 317.05 359.5 307.962 357.365 298.55C381.214 363.978 402.542 409.405 402.542 409.405L434.49 435.462C434.49 435.462 376.974 323.321 361.714 263.78C349.349 215.545 345.417 105.681 345.417 105.681Z" fill="#142D45"/>
<path d="M334.083 356.993C331.453 354.952 328.547 352.743 325.411 350.405C301.88 332.743 265.198 307.306 230.062 291.42C258.344 273.514 263.411 270.577 263.411 270.577C289.24 282.394 306.76 296.311 318.115 307.801C320.677 310.4 322.927 312.868 324.891 315.176C327.078 327.962 330.068 341.931 334.083 356.993Z" fill="#142D45"/>
<path d="M321.672 292.848C318.406 289.155 314.099 284.634 308.734 279.754C306.484 277.697 304.047 275.582 301.427 273.452C296.594 269.499 291.13 265.457 285.036 261.535C300.87 248.655 316.563 234.368 320.323 230.926C319.432 239.858 318.484 256.827 320.458 280.618C320.766 284.337 321.135 288.212 321.609 292.249C321.63 292.447 321.651 292.65 321.672 292.848Z" fill="#142D45"/>
<path d="M500.787 181.066C500.787 181.066 493.349 230.754 483.594 242.603C473.089 255.379 459.464 260.733 458.62 261.061C458.589 261.072 458.573 261.072 458.573 261.072C458.573 261.072 449.229 257.587 439.906 249.223L439.885 249.202C437.729 247.27 435.589 245.077 433.547 242.603C423.802 230.754 416.354 181.066 416.354 181.066" fill="#142D45"/>
<path d="M479.771 270.483C479.771 270.483 494.057 279.894 505.391 277.295C516.719 274.691 523.005 261.53 523.005 261.53C523.005 261.53 512.568 268.54 503.849 270.019C493.813 271.722 479.771 270.483 479.771 270.483Z" fill="#E41541"/>
<path d="M527.339 290.223C531.448 278.639 526.167 267.801 526.167 267.801C526.167 267.801 516.807 280.181 506.88 282.129C493.125 284.827 473.505 277.749 473.505 277.749C473.505 277.749 479.771 289.488 499.833 298.483C488.453 332.009 471.37 343.551 471.37 343.551C471.37 343.551 488.432 341.639 494.302 337.259C484.24 360.691 465.286 367.603 465.286 367.603C465.286 367.603 508.839 356.884 513.615 320.478C502.922 328.827 494.396 331.478 494.396 331.478C494.396 331.478 521.302 307.249 527.339 290.223Z" fill="#E41541"/>
<path d="M451.807 367.582C450.557 367.275 427.729 361.275 413.766 344.056C408.688 337.785 404.781 330.009 403.537 320.483C413.885 328.561 422.219 331.306 422.734 331.467C421.922 330.717 395.755 306.988 389.807 290.217C385.698 278.645 390.979 267.801 390.979 267.801C390.979 267.801 400.344 280.186 410.276 282.129C415.745 283.207 422.151 282.723 427.875 281.77C436.537 280.311 443.646 277.749 443.646 277.749C443.646 277.749 437.38 289.488 417.318 298.478C428.688 332.009 445.776 343.551 445.776 343.551C445.776 343.551 428.708 341.639 422.849 337.254C432.589 359.957 450.688 367.16 451.807 367.582Z" fill="#627995"/>
<path d="M491.979 374.457C490.615 379.165 485.312 397.436 481.229 411.389C479.255 418.061 477.573 423.754 476.729 426.478C474.219 434.587 471.531 439.868 469.948 442.592C469.349 443.618 467.859 443.514 467.401 442.415C466.214 439.509 464.5 434.285 464.625 428.337C464.661 426.785 464.797 424.452 465.005 421.655C465.745 411.348 467.375 394.671 468.13 387.118C478.13 383.931 486.021 379.327 491.979 374.457Z" fill="#142D45"/>
<path d="M547.177 206.717C544.432 212.821 540.932 219.285 536.531 225.243C531.771 231.702 525.938 237.597 518.875 241.811C509.922 245.358 499.568 248.717 488.344 251.019C489.667 249.696 490.964 248.275 492.219 246.754C495.63 242.592 498.766 233.795 501.385 224.124C508.568 222.16 524.016 217.478 542.052 209.15C543.745 208.379 545.443 207.566 547.177 206.717Z" fill="#0F1123"/>
<path d="M554.198 181.311C552.068 185.66 548.286 192.03 542.214 198.259C537.661 202.936 531.802 207.53 524.391 211.113C517.901 213.696 510.661 216.233 502.875 218.368C504.484 211.811 505.854 205.186 506.922 199.587C514.474 197.519 530.458 191.915 545.635 185.238C548.542 183.962 551.422 182.65 554.198 181.311Z" fill="#0F1123"/>
<path d="M561.974 147.139C560.714 153.306 556.964 158.66 551.583 161.879L528.276 175.806C528.224 175.842 528.156 175.873 528.115 175.905L527.865 176.061L527.745 176.139C527.724 176.149 527.714 176.149 527.714 176.149L520.438 180.498C521.708 179.571 542.036 164.326 548.328 142.873C548.328 142.873 539.792 149.524 525.401 154.774C532.021 123.915 504.755 102.785 504.755 102.785C504.755 102.785 506.542 129.29 479.146 151.571C479.146 151.571 484.911 120.009 458.573 80.2171C432.24 120.009 437.995 151.571 437.995 151.571C410.599 129.29 412.385 102.785 412.385 102.785C412.385 102.785 385.13 123.915 391.75 154.774C377.354 149.524 368.813 142.873 368.813 142.873C374.208 161.238 389.88 175.05 395.078 179.228C395.953 179.925 396.536 180.363 396.714 180.498L365.573 161.879C360.188 158.66 356.427 153.306 355.167 147.139C353.427 138.55 351.698 125.353 353.323 111.009C360.146 118.665 378 130.571 378 130.571C378 130.571 374.99 111.415 389.026 98.5088C403.073 85.5921 424.141 78.139 424.141 78.139C424.141 78.139 424.995 85.2223 427.573 92.7327C428.385 95.1182 429.375 97.5452 430.568 99.8057C430.698 100.05 430.833 100.295 430.958 100.524C444.807 76.5244 458.573 64.6182 458.573 64.6182C458.573 64.6182 472.344 76.5244 486.177 100.524C491.448 91.0921 493 78.139 493 78.139C493 78.139 514.068 85.5921 528.115 98.5088C542.161 111.415 539.151 130.571 539.151 130.571C539.151 130.571 557.005 118.665 563.828 111.009C565.453 125.353 563.724 138.55 561.974 147.139Z" fill="#142D45"/>
<path d="M582.922 257.472C580.042 281.821 574.615 304.91 568.781 324.623C568.781 324.623 568.734 325.155 568.307 325.957C559.63 342.238 548.885 352.79 549.99 342.431C550.51 337.524 554.776 325.978 566.557 273.702C538.135 359.457 499.401 401.561 499.401 401.561C499.401 401.561 506.964 388.082 528.167 338.566C539.583 311.899 550.104 284.623 555.438 263.774C567.802 215.545 571.729 105.681 571.729 105.681C571.729 105.681 586.896 122.238 587.792 135.405C590.885 181.066 588.776 208.019 582.922 257.472Z" fill="#142D45"/>
<path d="M515.411 55.1287C500.932 44.8215 486.74 40.4777 473.646 38.8319C468.427 38.1756 463.391 37.9569 458.573 37.9569C447.729 37.9569 436.734 39.7173 424.297 44.3735C417.318 46.9725 409.87 50.4881 401.74 55.1287C424.901 51.3787 444.51 54.4621 453.432 56.4048C433.589 57.3006 414.443 63.2485 398.073 70.4725C369.703 82.9725 349.698 99.3215 349.078 99.8267C356.109 86.6496 387.302 46.9725 402.891 35.9725C409.25 31.4621 419.724 28.1756 429.875 25.8423C438.109 23.9621 446.135 22.7173 451.594 21.9777C455.875 21.4048 458.573 21.1548 458.573 21.1548C458.573 21.1548 459.083 21.2069 460 21.3006C467.266 22.0923 500.427 26.1912 514.26 35.9725C529.833 46.9725 561.062 86.6704 568.089 99.8371C568.089 99.8371 518.484 58.884 463.719 56.4048C472.63 54.4621 492.255 51.3787 515.411 55.1287Z" fill="#142D45"/>
<path d="M653.74 270.571C622.073 285.071 602.896 302.701 592.255 315.17C590.068 327.962 587.083 341.936 583.068 356.988C605.464 339.691 647.271 309.42 687.089 291.425C658.802 273.509 653.74 270.571 653.74 270.571Z" fill="#142D45"/>
<path d="M632.104 261.53C616.276 248.649 600.583 234.363 596.823 230.915C597.865 241.321 598.964 262.608 595.469 292.847C602.63 284.743 614.87 272.623 632.104 261.53Z" fill="#142D45"/>
<path d="M437.38 177.545C437.38 177.545 476.667 224.212 456.99 261.53C466.719 269.405 482.661 253.738 482.661 253.738L497.094 216.254L502.88 175.983" fill="#0F1123"/>
<path d="M499.38 183.676L499.318 183.16L499.292 182.978L499.188 182.816L498.896 182.368L498.474 181.738L498.318 181.509L498.172 181.457L498.089 181.358L497.844 181.051H496.953L487.219 177.806L486.401 177.535L486.172 178.368L485.557 180.587L484.833 183.212L484.224 185.53L483.031 190.108L480.651 199.233L480.339 200.379C479.646 202.952 478.927 205.613 478.161 208.176C477.281 211.155 476.406 214.051 475.375 216.759C474.234 219.759 473.052 222.53 471.854 225.004C471.177 226.421 470.453 227.806 469.828 228.993C469.594 229.395 469.344 229.832 469.094 230.27C468.589 231.16 468.115 231.999 467.599 232.79C465.88 235.556 464.177 237.895 462.375 239.957C462.052 240.332 461.745 240.665 461.438 240.999C461.24 241.217 461.057 241.415 460.88 241.613C460.75 241.738 460.583 241.905 460.417 242.072C460.24 242.243 460.083 242.4 459.927 242.546C459.719 242.738 459.521 242.926 459.328 243.124C457.458 245.061 453.406 249.53 453.37 249.572L452.328 250.723L453.865 250.936C453.885 250.936 454.464 251.02 455.396 251.02C457.453 251.02 461.458 250.629 465.167 248.025C465.318 247.921 465.474 247.827 465.63 247.733L465.776 247.645L465.844 247.603L465.865 247.592L465.891 247.577L465.953 247.53C466.167 247.379 466.38 247.233 466.594 247.087C467.083 246.749 467.562 246.421 468.042 246.056L468.052 246.051L468.089 246.025C468.328 245.832 468.536 245.665 468.75 245.499C469.203 245.139 469.661 244.78 470.104 244.405L471.995 242.738L472.042 242.702L472.115 242.624C473.307 241.452 474.547 240.233 475.682 238.926C478.089 236.296 480.109 233.462 481.927 230.796L481.938 230.785L481.958 230.743C484.042 227.493 485.656 224.686 487.068 221.889C490.391 215.103 492.703 208.358 494.349 203.233C495.255 200.426 496.135 197.441 497.115 193.842L497.365 192.889C497.693 191.65 498.031 190.368 498.339 189.082L498.891 186.738L499.161 185.514L499.292 184.931L499.307 184.837C499.349 184.655 499.448 184.217 499.38 183.676Z" fill="#0F1123"/>
<path d="M499.38 171.582L499.312 171.046L499.286 170.853L499.177 170.691L498.87 170.217L498.432 169.561L498.271 169.322L498.115 169.27L498.031 169.165L497.776 168.848H496.849L488.969 166.217L486.688 165.462L485.833 165.176L485.594 166.046L484.953 168.363L484.198 171.098L483.568 173.52L482.323 178.301L479.833 187.816L479.51 189.014C478.786 191.697 478.036 194.473 477.24 197.15C476.318 200.254 475.401 203.28 474.328 206.108C473.141 209.238 471.901 212.134 470.656 214.712C469.948 216.186 469.193 217.634 468.542 218.874C468.297 219.296 468.036 219.749 467.776 220.207C467.25 221.134 466.75 222.009 466.214 222.832C464.422 225.723 462.641 228.165 460.76 230.311C460.427 230.707 460.104 231.056 459.786 231.405C459.573 231.634 458.891 232.348 458.719 232.52C458.536 232.702 458.37 232.863 458.208 233.014C457.99 233.217 457.781 233.415 457.583 233.618C455.63 235.639 451.406 240.306 451.365 240.353L450.281 241.546L451.88 241.77C451.906 241.775 452.505 241.858 453.479 241.858C455.625 241.858 459.807 241.452 463.677 238.733C463.833 238.624 464 238.525 464.161 238.426L464.312 238.342L464.38 238.296L464.432 238.264L464.495 238.217C464.719 238.061 464.943 237.91 465.167 237.754C465.677 237.405 466.177 237.061 466.677 236.681L466.688 236.676L466.724 236.645C466.974 236.447 467.193 236.275 467.417 236.098C467.891 235.728 468.365 235.348 468.828 234.957L470.797 233.217L470.849 233.176L470.927 233.103C472.172 231.874 473.464 230.608 474.651 229.238C477.161 226.493 479.266 223.535 481.167 220.754L481.177 220.743L481.198 220.702C483.37 217.306 485.057 214.379 486.531 211.462C489.995 204.379 492.406 197.342 494.125 191.993C495.073 189.061 495.995 185.947 497.016 182.197L497.276 181.197C497.62 179.905 497.969 178.566 498.292 177.228L498.87 174.775L499.151 173.504L499.286 172.895L499.307 172.796C499.349 172.603 499.448 172.15 499.38 171.582Z" fill="#0F1123"/>
<path d="M450.281 208.52H444.037L436.182 221.072L444.037 233.618H450.281L442.422 221.072" fill="white"/>
<path d="M466.87 233.618H473.109L480.964 221.072L473.109 208.52H466.87L474.724 221.072" fill="white"/>
<path d="M348.844 325.957C348.537 325.098 348.37 324.624 348.37 324.624C342.537 304.91 337.109 281.821 334.229 257.473C332.813 245.483 331.62 234.832 330.656 224.905C328.156 198.967 327.292 178.045 328.453 151.681C332.188 143.894 337.87 135.108 346.438 127.514C347.365 145.186 349.01 171.301 351.578 197.259C354.042 222.071 357.354 246.764 361.719 263.775C367.047 284.624 377.568 311.9 388.984 338.566C373.589 308.15 349.12 263.743 341.432 212.176C335.74 240.087 344.948 300.327 348.844 325.957Z" fill="#627995"/>
<path d="M568.307 325.957C568.615 325.098 568.781 324.624 568.781 324.624C574.615 304.91 580.042 281.821 582.927 257.473C588.047 214.176 590.307 188.134 588.703 151.681C584.964 143.894 579.281 135.108 570.719 127.514C568.891 162.071 564.359 228.967 555.438 263.775C550.104 284.624 539.583 311.9 528.172 338.566C543.568 308.15 568.036 263.743 575.724 212.176C581.417 240.087 572.208 300.327 568.307 325.957Z" fill="#E41541"/>
<path d="M351.578 197.259C348.26 190.426 342.823 178.806 337.917 166.514C332.01 189.306 330.87 215.176 330.662 224.905C328.156 198.967 327.292 178.046 328.453 151.681C332.188 143.895 337.87 135.108 346.438 127.52C347.365 145.186 349.016 171.301 351.578 197.259Z" fill="white"/>
<path d="M491.979 374.457C490.615 379.165 485.313 397.436 481.229 411.389C480.792 407.733 479.917 395.02 478.302 389.118C471.839 403.499 467.339 418.072 465.005 421.655C465.745 411.348 467.375 394.671 468.13 387.118C478.13 383.931 486.021 379.327 491.979 374.457Z" fill="#E41541"/>
<path d="M425.172 374.457C426.531 379.165 431.833 397.436 435.922 411.389C436.354 407.733 437.229 395.02 438.849 389.118C445.313 403.499 449.807 418.072 452.141 421.655C451.401 411.348 449.776 394.671 449.016 387.118C439.016 383.931 431.125 379.327 425.172 374.457Z" fill="#627995"/>
<path d="M325.411 350.405C312.719 340.874 296.203 329.092 278.156 317.759C262.755 308.077 246.24 298.743 230.062 291.426C258.344 273.514 263.411 270.577 263.411 270.577C274.021 275.436 283.245 280.65 291.198 285.9C302.599 293.431 311.432 301.035 318.115 307.801C318.115 307.801 293.339 295.17 263.01 289.436C305.917 322.775 325.411 350.405 325.411 350.405Z" fill="#627995"/>
<path d="M591.74 350.405C615.271 332.743 651.953 307.306 687.089 291.426C658.813 273.514 653.74 270.577 653.74 270.577C627.911 282.394 610.391 296.311 599.036 307.801C599.036 307.801 623.807 295.176 654.146 289.436C611.234 322.775 591.74 350.405 591.74 350.405Z" fill="#E41541"/>
<path d="M321.609 292.249C313.656 279.488 310.172 262.571 310.172 262.571L301.427 273.452C298.547 271.092 295.443 268.707 292.104 266.321C289.854 264.717 287.5 263.124 285.036 261.535C300.87 248.655 316.563 234.363 320.323 230.92C319.781 236.394 319.214 244.874 319.307 256.087C319.37 263.196 319.698 271.389 320.458 280.618C320.766 284.337 321.135 288.212 321.609 292.249Z" fill="#627995"/>
<path d="M595.5 292.249C603.453 279.493 606.938 262.571 606.938 262.571L615.682 273.452C620.521 269.499 625.979 265.457 632.073 261.535C616.24 248.655 600.552 234.363 596.792 230.92C597.677 239.858 598.63 256.827 596.651 280.618C596.349 284.337 595.974 288.212 595.5 292.249Z" fill="#E41541"/>
<path d="M252.682 284.431C260.823 294.155 272.63 310.176 278.156 317.759C262.755 308.077 246.24 298.743 230.062 291.42C258.344 273.514 263.411 270.577 263.411 270.577C274.026 275.436 283.245 280.65 291.198 285.9C283.688 284.582 267.964 282.446 252.682 284.431Z" fill="white"/>
<path d="M319.307 256.087L314.354 245.347L292.104 266.321C289.854 264.717 287.5 263.118 285.036 261.535C300.87 248.655 316.563 234.363 320.318 230.92C319.781 236.394 319.214 244.874 319.307 256.087Z" fill="white"/>
<path d="M426.917 333.801C415.521 333.358 408.193 325.973 408.193 325.973C408.193 325.973 408.37 334.223 413.766 344.056C408.688 337.785 404.781 330.009 403.537 320.483C413.885 328.561 422.219 331.306 422.734 331.467C421.922 330.717 395.755 306.988 389.807 290.217C385.698 278.645 390.979 267.801 390.979 267.801C390.979 267.801 400.349 280.186 410.276 282.129C415.745 283.207 422.151 282.717 427.875 281.77C424.203 284.707 416.969 289.66 408.193 291.337C408.193 305.415 417.073 324.191 426.917 333.801Z" fill="white"/>
<path d="M381.214 69.3162C381.214 69.3162 385.964 70.2798 398.073 70.4673C369.245 83.1756 349.068 99.8371 349.068 99.8371C356.089 86.6704 387.307 46.9725 402.891 35.9673C409.25 31.4621 419.724 28.1756 429.875 25.8423C396.24 41.9256 381.214 69.3162 381.214 69.3162Z" fill="#627995"/>
<path d="M535.974 69.3162C535.974 69.3162 531.219 70.2798 519.109 70.4673C547.938 83.1756 568.115 99.8371 568.115 99.8371C561.094 86.6704 529.88 46.9725 514.292 35.9673C507.932 31.4621 497.458 28.1756 487.312 25.8423C520.943 41.9256 535.974 69.3162 535.974 69.3162Z" fill="#E41541"/>
<path d="M561.974 147.139C560.714 153.306 556.964 158.66 551.583 161.879L528.276 175.806C531.812 173.634 550.776 161.478 554.198 149.03C557.969 135.29 557.125 126.41 557.125 126.41C557.125 126.41 543.599 136.978 531.969 142.045C535.583 127.519 534.25 112.785 521.125 100.608C508.734 89.1182 498.115 84.4411 498.115 84.4411C498.115 84.4411 495.208 115.149 487.312 132.332C484.693 97.9775 458.573 70.6077 458.573 70.6077C433.495 96.2692 428.234 126.618 428.234 126.618C428.234 126.618 424.193 115.769 430.958 100.524C444.807 76.5244 458.573 64.6182 458.573 64.6182C458.573 64.6182 472.344 76.5244 486.177 100.524C491.448 91.0921 493 78.139 493 78.139C493 78.139 514.068 85.5921 528.115 98.5088C542.161 111.415 539.151 130.571 539.151 130.571C539.151 130.571 557.005 118.665 563.828 111.009C565.453 125.353 563.724 138.55 561.974 147.139Z" fill="#E41541"/>
<path d="M427.573 92.7327C425.552 90.8421 422.661 87.7692 420.63 84.113C420.63 84.113 398.729 92.9723 388.984 112.941C382.099 127.04 388.099 147.571 388.099 147.571C388.099 147.571 371.411 142.248 358.464 125.181C358.464 146.701 370.208 164.571 395.078 179.233C395.953 179.925 396.536 180.363 396.714 180.498L365.573 161.879C360.188 158.66 356.427 153.306 355.172 147.139C353.427 138.55 351.698 125.353 353.323 111.009C360.146 118.665 378 130.566 378 130.566C378 130.566 374.99 111.41 389.026 98.5088C403.073 85.5921 424.141 78.1338 424.141 78.1338C424.141 78.1338 424.995 85.2223 427.573 92.7327Z" fill="#627995"/>
<path d="M460 21.3008L473.646 38.832C468.427 38.1758 463.391 37.957 458.573 37.957C447.729 37.957 436.74 39.7174 424.297 44.3737C434.646 31.2904 444.708 25.0508 451.594 21.9779" fill="#627995"/>
<path d="M500.787 181.066C500.787 181.066 493.349 230.754 483.594 242.603C473.089 255.379 459.464 260.733 458.62 261.061C458.589 261.072 458.573 261.072 458.573 261.072C458.573 261.072 474.818 248.358 479.771 236.16C484.724 223.962 494.37 184.499 494.37 184.499L466.453 181.066" fill="#E41541"/>
<path d="M423.333 185.285C423.333 185.285 429.599 233.181 439.885 249.202C437.729 247.27 435.589 245.077 433.547 242.603C423.802 230.754 416.354 181.066 416.354 181.066H440.115" fill="#627995"/>
<path d="M414.266 218.368C408.583 216.806 403.188 215.04 398.161 213.181C389.542 208.05 384.188 201.472 384.188 201.472C384.188 201.472 392.156 206.29 402.542 207.743C387.578 198.405 383.167 190.118 383.167 190.118C394.318 194.55 404.615 198.05 410.229 199.587C411.286 205.186 412.672 211.811 414.266 218.368Z" fill="#627995"/>
<path d="M428.807 251.019C425.026 250.238 421.328 249.342 417.76 248.358C401.276 241.379 388.089 227.436 387.578 226.9C388.01 227.124 398.089 232.275 413.229 234.525C403.833 230.577 394.104 219.327 391.401 216.045C402.151 220.196 410.875 222.79 415.755 224.124C418.385 233.795 421.51 242.592 424.932 246.754C426.188 248.275 427.484 249.702 428.807 251.019Z" fill="#627995"/>
<path d="M502.885 218.368C508.568 216.806 513.964 215.04 518.99 213.181C527.609 208.05 532.964 201.472 532.964 201.472C532.964 201.472 524.995 206.29 514.609 207.743C529.573 198.405 533.99 190.118 533.99 190.118C522.833 194.55 512.537 198.05 506.922 199.587C505.865 205.186 504.479 211.811 502.885 218.368Z" fill="#E41541"/>
<path d="M488.344 251.019C492.125 250.238 495.823 249.342 499.391 248.358C515.875 241.379 529.068 227.436 529.573 226.9C529.141 227.124 519.062 232.275 503.922 234.525C513.318 230.577 523.047 219.327 525.75 216.045C515 220.196 506.276 222.79 501.396 224.124C498.766 233.795 495.641 242.592 492.219 246.754C490.964 248.275 489.667 249.702 488.344 251.019Z" fill="#E41541"/>
<path d="M517.609 426.618L565.151 392.691L564.458 393.358L576.906 375.931L577.188 375.546L577.578 375.285L644.167 331.186L677.547 309.259L694.297 298.363L702.719 292.967C705.547 291.191 708.354 289.405 711.365 287.655L711.193 292.072L649.641 251.895L649.464 251.775L649.307 251.634L601.573 208.035L600.667 207.202L600.745 205.962V205.957C601.276 198.665 601.63 191.296 601.896 183.957C602.141 176.603 602.307 169.249 602.266 161.9C602.214 154.551 602.089 147.202 601.62 139.879C601.156 132.561 600.484 125.254 599.255 118.061L599.375 118.426L596.078 111.676C594.964 109.436 593.927 107.15 592.698 104.967C590.307 100.566 588.021 96.1029 585.401 91.8268C580.422 83.1237 574.818 74.7852 569.01 66.6029C563.167 58.4414 556.849 50.6185 550.214 43.0768C543.547 35.5664 536.552 28.306 528.906 21.7695C536.714 28.1185 543.896 35.2122 550.766 42.5768C557.604 49.9727 564.135 57.6654 570.203 65.7174C576.24 73.7956 582.078 82.0404 587.312 90.6758C590.052 94.9206 592.469 99.3581 594.99 103.733C596.281 105.905 597.38 108.181 598.562 110.415L602.057 117.145L602.13 117.29L602.172 117.509C603.615 124.837 604.474 132.228 605.13 139.624C605.781 147.02 606.089 154.431 606.328 161.837C606.552 169.243 606.562 176.65 606.5 184.061C606.417 191.473 606.24 198.853 605.885 206.296V206.301L605.052 204.228L652.781 247.832L652.453 247.577L714.01 287.759L717.505 290.04L713.833 292.176C711.094 293.775 708.281 295.551 705.479 297.316L697.089 302.691L680.365 313.572L647 335.483L580.427 379.577L581.099 378.926L568.646 396.353L568.276 396.822L567.953 397.014" fill="#E41541"/>
<path d="M399.542 426.618L349.193 397.014L348.87 396.822L348.5 396.353L336.047 378.926L336.719 379.577L270.146 335.483L236.781 313.572L220.057 302.691L211.672 297.316C208.865 295.551 206.057 293.775 203.313 292.176L199.646 290.04L203.141 287.759L264.693 247.577L264.365 247.832L312.099 204.228L311.266 206.301V206.296C310.906 198.853 310.729 191.473 310.651 184.061C310.583 176.65 310.599 169.243 310.823 161.837C311.057 154.431 311.365 147.02 312.021 139.624C312.672 132.228 313.536 124.837 314.974 117.509L315.016 117.29L315.094 117.145L318.589 110.415C319.766 108.181 320.865 105.905 322.156 103.733C324.677 99.3581 327.094 94.9206 329.839 90.6758C335.068 82.0404 340.906 73.7956 346.943 65.7174C353.01 57.6654 359.547 49.9727 366.38 42.5768C373.25 35.2122 380.432 28.1185 388.24 21.7695C380.594 28.306 373.599 35.5664 366.932 43.0768C360.297 50.6185 353.979 58.4414 348.141 66.6029C342.328 74.7852 336.729 83.1237 331.745 91.8268C329.13 96.1029 326.839 100.566 324.448 104.967C323.219 107.15 322.188 109.436 321.068 111.676L317.771 118.426L317.891 118.061C316.661 125.254 315.995 132.561 315.526 139.879C315.057 147.202 314.938 154.551 314.885 161.9C314.844 169.249 315.01 176.603 315.255 183.957C315.516 191.296 315.875 198.665 316.406 205.957V205.962L316.484 207.202L315.573 208.035L267.839 251.634L267.682 251.775L267.51 251.895L205.953 292.072L205.781 287.655C208.792 289.405 211.599 291.191 214.427 292.967L222.849 298.363L239.599 309.259L272.984 331.186L339.573 375.285L339.964 375.546L340.24 375.931L352.688 393.358L352 392.691" fill="#627995"/>
<path d="M914.938 571.504L846.682 613.202L901.667 566.499" fill="#E41541"/>
<path d="M122.995 504.431C121.62 499.051 120.25 493.671 118.88 488.27C117.521 482.874 116.172 477.473 114.833 472.061C113.495 466.66 112.161 461.243 110.823 455.806H112.661C112.411 456.327 112.161 456.858 111.911 457.395C112.677 460.207 113.443 463.009 114.193 465.801C115.01 468.868 115.849 471.931 116.688 474.999C118.307 480.858 119.911 486.723 121.531 492.582C121.797 493.53 122.068 494.473 122.333 495.415C123.708 500.332 125.078 505.254 126.448 510.171C128.109 516.03 129.766 521.895 131.438 527.738C128.823 528.061 126.203 528.363 123.583 528.665C124.776 525.936 125.953 523.249 127.146 520.556C125.755 515.191 124.365 509.811 122.995 504.431ZM263.505 455.806L264.682 458.733L266.745 463.863H266.516C265.109 463.915 263.698 463.988 262.292 464.04C261.474 464.077 260.651 464.113 259.833 464.145C260.01 461.348 260.188 458.587 260.37 455.806H263.505ZM335.417 455.806C335.271 459.124 335.151 462.436 335.005 465.77C334.776 471.738 334.542 477.723 334.292 483.728L341.74 511.113C336.932 511.311 332.12 511.525 327.307 511.754C327.328 511.467 327.328 511.165 327.344 510.884C327.734 501.566 328.13 492.316 328.521 483.103C328.911 473.962 329.286 464.858 329.677 455.806H335.417ZM367.344 498.108C369.859 498.072 372.385 498.035 374.901 497.999C376.109 497.983 377.323 497.962 378.536 497.947C378.427 501.905 378.323 505.858 378.214 509.832C373.422 509.973 368.609 510.134 363.818 510.296C363.089 506.358 362.214 502.296 361.25 498.197C363.281 498.16 365.313 498.124 367.344 498.108ZM388.531 478.863L388.333 487.186L387.052 478.863H388.531ZM288.594 499.785C289.823 499.743 291.031 499.712 292.245 499.676C293.453 499.639 294.682 499.624 295.896 499.587L296.161 494.613C296.234 492.957 296.323 491.316 296.411 489.66C296.484 488.379 296.557 487.077 296.609 485.796L296.984 486.827C296.948 487.467 296.932 488.092 296.896 488.738C296.682 492.816 296.464 496.915 296.255 501.03C296.042 505.145 295.828 509.259 295.609 513.395C293.901 513.499 292.172 513.608 290.464 513.717L285.01 499.889C286.203 499.853 287.396 499.816 288.594 499.785ZM185.536 521.77C185.661 520.342 185.766 518.915 185.891 517.493L188.599 521.66C187.563 521.77 186.552 521.874 185.516 521.962C185.516 521.895 185.536 521.822 185.536 521.77ZM190.057 467.691C190.115 467.124 190.167 466.535 190.203 465.962L191.161 467.639C190.792 467.655 190.432 467.676 190.057 467.691ZM391.005 529.092C390.438 529.108 389.849 529.129 389.281 529.129C389.349 525.973 389.422 522.837 389.474 519.686L391.005 529.092ZM416.453 455.806C416.344 463.04 416.255 470.311 416.151 477.618C416.005 488.02 415.88 498.483 415.74 509.014C413.406 509.046 411.089 509.082 408.755 509.134C406.438 509.171 404.104 509.207 401.786 509.259C400.505 509.296 399.219 509.316 397.922 509.348C398.099 500.316 398.276 491.353 398.453 482.426C398.63 473.499 398.792 464.629 398.974 455.806H416.453ZM453.297 455.806C453.297 458.551 453.281 461.28 453.281 464.04C453.281 469.863 453.26 475.728 453.26 481.592C453.349 490.639 453.422 499.676 453.51 508.707C452.141 508.707 450.766 508.707 449.396 508.728C446.724 508.728 444.052 508.743 441.38 508.743C438.703 508.764 436.031 508.78 433.359 508.816C432.24 508.816 431.115 508.832 429.995 508.832C429.995 508.207 430.01 507.587 430.01 506.978C430.099 498.712 430.151 490.483 430.224 482.27C430.313 473.395 430.385 464.572 430.474 455.806H453.297ZM453.87 478.634H464.734C465.932 478.65 467.141 478.65 468.354 478.65V481.608H461.724C460.318 481.592 458.911 481.592 457.484 481.592H453.87V478.634ZM470.135 464.056C470.135 461.311 470.12 458.551 470.099 455.806H491.714C491.802 464.592 491.906 473.41 491.995 482.301C492.104 491.124 492.214 499.993 492.302 508.921C490.875 508.905 489.448 508.884 488.005 508.868C484.604 508.832 481.203 508.796 477.818 508.78C475.016 508.764 472.24 508.743 469.458 508.728L470.208 481.629C470.188 475.743 470.172 469.884 470.135 464.056ZM554.073 455.806L549.406 479.025C549.458 480.608 549.51 482.197 549.552 483.785C549.604 485.368 549.656 486.952 549.693 488.556C549.745 490.145 549.797 491.743 549.833 493.332C549.885 494.936 549.943 496.54 549.995 498.145L553.63 498.197C554.432 498.212 555.234 498.212 556.036 498.233L553.307 510.363C552.917 510.348 552.526 510.332 552.13 510.311C549.818 510.238 547.484 510.15 545.167 510.082C542.833 510.009 540.516 509.936 538.198 509.884C537.917 499.264 537.646 488.738 537.365 478.259C537.167 470.738 536.969 463.254 536.792 455.806H554.073ZM563.177 522.27C563.927 522.285 564.661 522.301 565.406 522.322C565.495 525.014 565.583 527.717 565.693 530.41C564.177 530.358 562.661 530.301 561.151 530.233L563.177 522.27ZM574.958 455.806H586.5C586.896 464.858 587.286 473.962 587.661 483.124C588.052 492.332 588.443 501.598 588.854 510.9C588.854 511.202 588.875 511.509 588.891 511.806L583.224 511.54C583.047 507.316 582.885 503.113 582.708 498.91C582.708 498.733 582.688 498.572 582.688 498.395C582.531 494.363 582.37 490.358 582.208 486.363C582.047 482.197 581.87 478.046 581.708 473.91C581.552 469.775 581.391 465.66 581.214 461.546C579.802 461.509 578.417 461.473 577.005 461.436C575.865 461.405 574.745 461.384 573.604 461.348L574.958 455.806ZM618.021 455.806C618.396 463.025 618.771 470.275 619.146 477.566C619.536 484.884 619.911 492.228 620.302 499.624C620.552 504.217 620.781 508.868 621.036 513.499C620.964 513.499 620.875 513.499 620.802 513.483C620.229 502.561 619.661 491.712 619.109 480.915C618.823 475.551 618.542 470.223 618.271 464.895C618.109 461.863 617.948 458.837 617.792 455.806H618.021ZM702.016 455.806L699.469 460.796L699.161 461.384C699.021 459.53 698.88 457.66 698.734 455.806H702.016ZM707.146 502.577L702.906 509.936C702.708 507.41 702.516 504.879 702.333 502.363C703.938 502.436 705.542 502.509 707.146 502.577ZM788.484 510.171C790.141 504.306 791.766 498.447 793.401 492.582C795.021 486.723 796.646 480.858 798.25 474.999C799.849 469.134 801.438 463.275 803.021 457.395C802.771 456.858 802.526 456.327 802.276 455.806H804.109C802.771 461.243 801.438 466.66 800.104 472.061C798.766 477.473 797.411 482.874 796.057 488.27C794.682 493.671 793.328 499.051 791.938 504.431C790.568 509.811 789.177 515.191 787.786 520.556C788.984 523.249 790.177 525.957 791.37 528.665C788.75 528.363 786.13 528.061 783.51 527.738C785.172 521.895 786.828 516.03 788.484 510.171ZM893.396 562.462L871.656 559.223C868.844 558.796 865.99 558.384 863.156 557.957C860.307 557.546 857.453 557.139 854.625 556.728H854.568L872.51 539.514C869.411 532.53 866.313 525.618 863.229 518.775C860.161 511.967 857.115 505.217 854.073 498.551C851.057 491.905 848.047 485.332 845.052 478.811C843.557 475.566 842.078 472.342 840.583 469.134C839.104 465.926 837.625 462.738 836.146 459.551C837.661 453.525 839.156 447.467 840.656 441.41C842.13 435.389 843.609 429.332 845.073 423.254C846.536 417.212 847.995 411.155 849.438 405.082C850.88 399.025 852.307 392.962 853.734 386.868H821.484L810.042 404.191C809.401 402.853 808.76 401.52 808.12 400.181C807.052 397.957 805.979 395.728 804.911 393.499C803.844 391.29 802.792 389.082 801.724 386.868H769.474L764.323 395.957C764.271 395.353 764.219 394.749 764.146 394.16C763.917 391.717 763.682 389.296 763.432 386.868H693.443L676.375 426.691L673.557 386.941L672.724 375.327L672.276 368.91L665.078 387.941L661.568 397.223L645.495 439.738L645.854 445.473L646.495 455.863L648.385 486.723C647.938 486.702 647.495 486.686 647.047 486.65C646.531 478.098 646.016 469.598 645.495 461.134C644.979 452.707 644.484 444.332 643.984 435.993C643.464 427.707 642.969 419.462 642.469 411.243C641.99 403.087 641.49 394.962 641.005 386.868H614.208L606.333 414.509C606.266 412.921 606.193 411.316 606.104 409.733C605.979 407.061 605.854 404.384 605.714 401.733C605.458 396.78 605.229 391.806 604.979 386.868H534.995L525.281 455.806C525.479 464.645 525.672 473.535 525.885 482.483C526.083 491.478 526.297 500.514 526.495 509.598C526.635 516.087 526.776 522.608 526.938 529.145L525.089 529.092L518.047 528.879L511.688 528.79L498.125 528.592C497.542 528.577 496.953 528.577 496.344 528.577L498.219 508.993C498.073 498.462 497.932 488.004 497.807 477.618C497.661 467.285 497.521 457.004 497.396 446.811C497.255 436.655 497.13 426.587 497.005 416.556C496.865 406.613 496.734 396.707 496.615 386.868H426.609C426.5 396.707 426.391 406.598 426.302 416.535C426.198 426.551 426.089 436.618 425.984 446.738C425.875 456.952 425.771 467.212 425.661 477.53C425.557 487.915 425.448 498.374 425.344 508.884L426.802 528.467C426.339 528.467 425.875 528.488 425.411 528.488L421.547 528.52C421.62 522.072 421.708 515.624 421.776 509.228C421.885 500.207 421.974 491.233 422.083 482.301C422.188 473.431 422.297 464.592 422.401 455.806L417.38 386.868H390.599C390.365 396.759 390.151 406.702 389.922 416.697C389.776 422.848 389.651 429.009 389.51 435.191C389.438 438.202 389.37 441.233 389.297 444.264L381.37 386.868H311.38C310.917 396.118 310.474 405.405 310.01 414.754L302.151 386.868H232.146C231.755 392.165 231.359 397.473 230.969 402.801C230.896 403.639 230.844 404.473 230.771 405.311L222.917 386.868H152.911C152.552 390.613 152.177 394.353 151.823 398.098L145.464 386.868H113.229L110.021 393.499C108.953 395.728 107.885 397.957 106.818 400.181C106.172 401.52 105.552 402.853 104.906 404.191L93.4532 386.868H61.2032C62.625 392.962 64.0521 399.025 65.4948 405.082C66.9375 411.155 68.4011 417.212 69.8646 423.254C71.323 429.332 72.8021 435.389 74.2813 441.41C75.7761 447.467 77.2761 453.525 78.7865 459.551C75.8282 465.91 72.875 472.327 69.8959 478.811C66.9011 485.332 63.8907 491.905 60.8646 498.551C57.8334 505.217 54.7709 511.967 51.7084 518.775C48.625 525.618 45.5417 532.53 42.4219 539.514L60.3646 556.728H60.3282C57.4792 557.139 54.625 557.546 51.7917 557.957C48.9427 558.384 46.1094 558.796 43.2761 559.223L21.5417 562.462L9.45837 564.264L68.2605 613.207L78.7344 611.624L97.5677 608.754C100.026 608.379 102.484 608.025 104.943 607.65C107.401 607.296 109.88 606.921 112.339 606.566C114.818 606.207 117.276 605.853 119.734 605.514C122.208 605.155 124.651 604.816 127.109 604.462L136.177 603.212L145.193 602.02C147.635 601.697 150.094 601.379 152.536 601.077C154.995 600.754 157.453 600.436 159.911 600.129C162.37 599.827 164.828 599.525 167.286 599.223C169.729 598.921 172.188 598.618 174.609 598.332L178.052 597.921L181.417 597.53C186.708 596.926 192.021 596.316 197.328 595.733C202.641 595.16 207.964 594.587 213.292 594.035C218.604 593.504 223.932 592.967 229.24 592.452C234.531 591.936 239.844 591.457 245.115 590.973L249.354 590.598L253.49 590.243C255.521 590.066 257.536 589.884 259.568 589.728C261.599 589.566 263.63 589.389 265.661 589.228C267.693 589.066 269.724 588.905 271.734 588.743C273.766 588.587 275.781 588.426 277.792 588.285L285.328 587.712L292.688 587.197C294.719 587.051 296.734 586.91 298.766 586.77C300.797 586.645 302.828 586.499 304.859 586.374C306.891 586.249 308.901 586.129 310.938 586.004C312.948 585.879 314.979 585.754 316.974 585.629L321.177 585.379L325.333 585.145C330.589 584.863 335.865 584.577 341.156 584.311C346.427 584.061 351.719 583.811 357.01 583.598C362.302 583.363 367.594 583.171 372.87 582.973C378.161 582.775 383.417 582.618 388.672 582.457L392.88 582.332L397.01 582.243C399.026 582.186 401.042 582.134 403.068 582.082C405.083 582.046 407.115 581.993 409.13 581.957C411.161 581.921 413.172 581.884 415.203 581.848C417.219 581.816 419.229 581.78 421.245 581.743L425.411 581.671L429.583 581.634C431.88 581.603 434.214 581.582 436.531 581.546C438.865 581.53 441.198 581.514 443.516 581.514C445.849 581.493 448.182 581.478 450.5 581.478C452.833 581.457 455.151 581.457 457.469 581.457C460.406 581.457 463.349 581.457 466.307 581.478C469.245 581.493 472.203 581.514 475.161 581.53C478.099 581.546 481.057 581.582 484.016 581.618C486.953 581.655 489.911 581.691 492.833 581.728L504.651 581.905L510.172 581.993L516.302 582.171L527.547 582.509C529.557 582.566 531.573 582.618 533.604 582.686C535.615 582.759 537.646 582.811 539.661 582.884C541.693 582.957 543.703 583.025 545.734 583.118C547.75 583.186 549.766 583.259 551.776 583.348L559.24 583.634L566.635 583.988C568.651 584.077 570.661 584.165 572.693 584.275C574.708 584.363 576.74 584.467 578.755 584.577C580.781 584.665 582.818 584.77 584.828 584.879C586.859 584.988 588.875 585.108 590.885 585.217L595.073 585.452L599.24 585.717C604.5 586.02 609.792 586.358 615.083 586.712C620.375 587.051 625.667 587.426 630.974 587.816C636.271 588.212 641.578 588.603 646.87 589.03C652.177 589.457 657.453 589.884 662.724 590.348L666.932 590.723L671.12 591.098C676.391 591.561 681.682 592.061 686.995 592.577C692.307 593.092 697.615 593.629 702.943 594.181C708.25 594.733 713.578 595.301 718.885 595.874C724.219 596.462 729.505 597.066 734.797 597.691L740.323 598.332C742.766 598.618 745.203 598.921 747.646 599.223C750.104 599.525 752.563 599.827 755.021 600.129C757.484 600.436 759.938 600.754 762.396 601.077C764.859 601.379 767.297 601.697 769.74 602.02L780.5 603.447L787.823 604.462C790.281 604.816 792.74 605.155 795.203 605.514C797.661 605.853 800.12 606.207 802.599 606.566C805.052 606.921 807.531 607.296 809.99 607.65C812.464 608.025 814.927 608.379 817.385 608.754L836.198 611.624L846.677 613.207L905.474 564.264" fill="#0F1123"/>
<path d="M113.229 386.874L156.344 455.801C155.438 457.769 154.531 459.743 153.625 461.722C152.714 463.707 151.807 465.696 150.896 467.691C149.984 469.691 149.068 471.696 148.156 473.707C147.24 475.717 146.323 477.738 145.406 479.764L100.354 413.722C101.432 411.452 102.51 409.186 103.594 406.931C104.667 404.676 105.745 402.431 106.818 400.191C107.891 397.952 108.958 395.722 110.031 393.504C111.099 391.285 112.161 389.077 113.229 386.874Z" fill="#0F1123"/>
<path d="M273.745 413.77L296.922 479.806C296.839 481.441 296.755 483.082 296.667 484.728C296.583 486.368 296.5 488.02 296.411 489.665C296.328 491.311 296.24 492.962 296.156 494.613C296.068 496.27 295.984 497.926 295.896 499.582L272.411 435.967C272.521 434.108 272.635 432.243 272.745 430.389C272.859 428.535 272.969 426.681 273.083 424.832C273.193 422.983 273.302 421.134 273.411 419.29C273.521 417.447 273.635 415.608 273.745 413.77Z" fill="#0F1123"/>
<path d="M152.917 386.874L191.057 455.801C190.219 465.821 189.375 475.9 188.526 486.04C187.672 496.243 186.813 506.509 185.948 516.837C185.073 527.233 184.198 537.686 183.318 548.212C182.432 558.801 181.536 569.452 180.641 580.176L139.281 526.832C140.464 514.707 141.641 502.67 142.802 490.717C143.953 478.853 145.104 467.071 146.245 455.368C147.375 443.754 148.5 432.217 149.615 420.764C150.724 409.389 151.823 398.092 152.917 386.874Z" fill="#0F1123"/>
<path d="M299.734 433.587L319.74 497.462C318.589 498.623 317.427 499.79 316.271 500.962C315.115 502.134 313.953 503.311 312.792 504.488C311.63 505.665 310.474 506.847 309.307 508.035C308.146 509.228 306.979 510.415 305.813 511.608L283.677 449.488C285.021 448.144 286.365 446.806 287.708 445.472C289.052 444.139 290.391 442.806 291.729 441.483C293.068 440.16 294.401 438.837 295.734 437.519C297.068 436.201 298.401 434.894 299.734 433.587Z" fill="#898989"/>
<path d="M61.2031 386.874L110.833 455.801C112.156 461.238 113.49 466.655 114.828 472.061C116.172 477.478 117.526 482.879 118.88 488.269C120.245 493.67 121.615 499.061 122.99 504.431C124.37 509.821 125.755 515.196 127.151 520.556L78.7865 459.556C77.2813 453.525 75.7813 447.478 74.2865 441.42C72.8021 435.379 71.3229 429.332 69.8542 423.264C68.3958 417.217 66.9375 411.16 65.4948 405.082C64.0521 399.03 62.625 392.962 61.2031 386.874Z" fill="#0F1123"/>
<path d="M345.625 434.436L359.812 498.217C359.755 500.191 359.693 502.17 359.63 504.15C359.568 506.134 359.505 508.118 359.443 510.103C359.375 512.092 359.312 514.087 359.25 516.082C359.182 518.077 359.12 520.077 359.057 522.077L344.641 461.269C344.724 459.019 344.807 456.764 344.891 454.519C344.974 452.275 345.057 450.035 345.141 447.795C345.224 445.561 345.302 443.332 345.385 441.103C345.464 438.874 345.547 436.655 345.625 434.436Z" fill="#0F1123"/>
<path d="M232.141 386.874L260.365 455.801C259.76 465.249 259.156 474.754 258.552 484.316C257.943 493.931 257.328 503.597 256.708 513.327C256.089 523.108 255.464 532.952 254.833 542.848C254.203 552.806 253.568 562.821 252.927 572.9L222.443 518.603C223.281 507.217 224.115 495.905 224.943 484.676C225.76 473.514 226.578 462.431 227.385 451.42C228.193 440.483 228.995 429.618 229.786 418.827C230.573 408.108 231.359 397.457 232.141 386.874Z" fill="#0F1123"/>
<path d="M270.74 463.691L294.609 524.228C294.417 527.988 294.219 531.749 294.021 535.525C293.828 539.306 293.63 543.092 293.432 546.895C293.234 550.697 293.036 554.514 292.839 558.337C292.641 562.171 292.438 566.009 292.24 569.863L267.635 515.171C267.901 510.822 268.161 506.483 268.422 502.15C268.682 497.832 268.943 493.53 269.198 489.233C269.458 484.947 269.714 480.676 269.969 476.41C270.224 472.16 270.484 467.921 270.74 463.691Z" fill="#0F1123"/>
<path d="M426.604 386.874L430.469 455.801C430.391 464.577 430.313 473.4 430.234 482.269C430.156 491.191 430.073 500.155 429.99 509.17C429.906 518.238 429.828 527.348 429.745 536.514C429.661 545.728 429.583 554.988 429.495 564.301L425.344 508.889C425.448 498.368 425.557 487.915 425.661 477.525C425.771 467.202 425.88 456.941 425.984 446.749C426.089 436.613 426.193 426.545 426.297 416.535C426.401 406.587 426.505 396.702 426.604 386.874Z" fill="#0F1123"/>
<path d="M352.021 461.098L365.495 521.926C365.448 523.551 365.401 525.181 365.354 526.806C365.307 528.436 365.255 530.066 365.203 531.702C365.156 533.337 365.109 534.973 365.057 536.608C365.01 538.249 364.964 539.889 364.917 541.53L351.266 483.186C351.328 481.337 351.391 479.488 351.453 477.639C351.521 475.79 351.583 473.947 351.646 472.103C351.714 470.264 351.776 468.426 351.839 466.592C351.901 464.759 351.964 462.926 352.021 461.098Z" fill="#0F1123"/>
<path d="M390.599 386.874L398.974 455.801C398.797 464.629 398.625 473.499 398.448 482.42C398.276 491.389 398.099 500.405 397.922 509.472C397.745 518.587 397.568 527.749 397.391 536.962C397.208 546.228 397.031 555.545 396.849 564.91L387.839 509.577C388.073 498.999 388.313 488.483 388.542 478.035C388.776 467.655 389.005 457.337 389.24 447.082C389.464 436.894 389.693 426.764 389.922 416.702C390.146 406.696 390.375 396.754 390.599 386.874Z" fill="#0F1123"/>
<path d="M311.375 386.874L329.672 455.801C329.292 464.853 328.906 473.957 328.521 483.108C328.13 492.316 327.745 501.571 327.354 510.874C326.958 520.233 326.562 529.644 326.167 539.108C325.766 548.624 325.37 558.196 324.964 567.816L305.25 512.863C305.776 501.988 306.302 491.186 306.823 480.457C307.339 469.79 307.854 459.191 308.365 448.665C308.875 438.202 309.38 427.806 309.88 417.478C310.38 407.212 310.88 397.014 311.375 386.874Z" fill="#0F1123"/>
<path d="M78.7865 459.556L127.151 520.556C124.656 526.201 122.156 531.899 119.641 537.655C117.115 543.431 114.583 549.259 112.036 555.149C109.484 561.061 106.917 567.024 104.339 573.05C101.755 579.103 99.1562 585.212 96.5469 591.384L42.4219 539.524C45.5312 532.535 48.6302 525.623 51.7083 518.78C54.776 511.967 57.8281 505.222 60.8646 498.55C63.8854 491.905 66.8958 485.326 69.8906 478.816C72.8698 472.326 75.8385 465.91 78.7865 459.556Z" fill="#0F1123"/>
<path d="M90.2344 504.426L137.693 560.353C138.24 562.384 138.786 564.41 139.339 566.436C139.885 568.467 140.432 570.493 140.984 572.52C141.536 574.546 142.089 576.572 142.641 578.592C143.198 580.618 143.75 582.639 144.307 584.655L97.4479 531.905C96.8385 529.618 96.2344 527.332 95.6302 525.046C95.026 522.759 94.4271 520.467 93.8229 518.176C93.224 515.884 92.625 513.592 92.026 511.301C91.4271 509.009 90.8333 506.717 90.2344 504.426Z" fill="#0F1123"/>
<path d="M90.2344 504.426L137.693 560.353C138.24 562.384 138.786 564.41 139.339 566.436C139.885 568.467 140.432 570.493 140.984 572.52C141.536 574.546 142.089 576.572 142.641 578.592C143.198 580.618 143.75 582.639 144.307 584.655L97.4479 531.905C96.8385 529.618 96.2344 527.332 95.6302 525.046C95.026 522.759 94.4271 520.467 93.8229 518.176C93.224 515.884 92.625 513.592 92.026 511.301C91.4271 509.009 90.8333 506.717 90.2344 504.426Z" fill="#0F1123"/>
<path d="M729.167 491.993V491.978C732.911 492.264 736.635 492.566 740.375 492.853C736.651 492.566 732.911 492.28 729.167 491.993ZM538.182 509.884C537.917 499.264 537.646 488.738 537.365 478.259C537.646 488.738 537.917 499.264 538.198 509.884H538.182ZM900.521 553.29L891.682 533.707C888.833 527.415 885.984 521.129 883.13 514.874C880.281 508.618 877.427 502.4 874.578 496.217C871.729 490.035 868.896 483.905 866.063 477.796C863.229 471.717 860.417 465.681 857.599 459.676C858.953 454.046 860.307 448.415 861.661 442.764C862.995 437.134 864.333 431.504 865.651 425.895C866.974 420.28 868.271 414.686 869.552 409.108C870.854 403.53 872.12 397.988 873.385 392.467L876.823 377.285L878.729 368.91H672.276L672.724 375.327L673.557 386.941L677.927 448.842C676.807 448.79 675.682 448.733 674.573 448.681C673.474 448.629 672.385 448.577 671.313 448.52C670.229 448.467 669.177 448.415 668.109 448.358C667.094 448.322 666.078 448.27 665.078 448.217H664.974L664.172 435.941L661.568 397.223L660.875 386.816L660.109 375.29L659.677 368.91H36.2032L38.1094 377.285L41.5677 392.467C42.8334 397.988 44.099 403.53 45.3802 409.108C46.6615 414.686 47.9636 420.28 49.2813 425.895C50.599 431.504 51.9375 437.134 53.2709 442.764C54.6302 448.415 55.9792 454.046 57.3386 459.676C54.5365 465.66 51.7032 471.702 48.8907 477.796C46.0573 483.889 43.2084 490.035 40.375 496.202C37.5052 502.4 34.6511 508.618 31.823 514.858C28.9532 521.129 26.099 527.415 23.25 533.707L14.4115 553.29L9.45837 564.264L21.5417 562.467L43.2761 559.223C46.1094 558.796 48.9427 558.384 51.7969 557.957C54.6302 557.546 57.4792 557.139 60.3282 556.728H60.3855C63.198 556.316 66.0313 555.926 68.849 555.535C71.698 555.124 74.5313 554.733 77.3438 554.358L87.8073 552.931L98.1927 551.577C101.005 551.202 103.839 550.848 106.672 550.488C108.849 550.223 111.036 549.936 113.229 549.671C113.641 549.618 114.068 549.566 114.479 549.53C114.708 549.493 114.922 549.473 115.156 549.441C117.984 549.082 120.818 548.743 123.651 548.405C124.828 548.264 126.021 548.124 127.198 547.978C128.839 547.785 130.479 547.587 132.099 547.389L136.052 546.926L139.938 546.483C144.411 545.967 148.885 545.467 153.354 544.983C154.974 544.806 156.615 544.629 158.255 544.452C164.385 543.79 170.516 543.15 176.641 542.546C179.047 542.296 181.453 542.066 183.859 541.811C187.563 541.457 191.286 541.082 194.995 540.743C195.672 540.676 196.349 540.624 197.026 540.551C202.464 540.03 207.875 539.551 213.276 539.072L218.141 538.624L222.917 538.212C225.25 538.035 227.583 537.842 229.922 537.645C230.948 537.556 231.964 537.483 233 537.395C234.302 537.29 235.62 537.181 236.922 537.077C239.255 536.9 241.589 536.717 243.922 536.54C246.24 536.363 248.573 536.186 250.891 536.004L255.292 535.686L259.531 535.363L268.031 534.775C270.349 534.618 272.682 534.457 275.016 534.311C275.406 534.275 275.818 534.259 276.208 534.243C278.151 534.098 280.073 533.973 282.016 533.853C284.333 533.707 286.667 533.566 289 533.421C290.714 533.316 292.443 533.207 294.151 533.118C294.755 533.082 295.344 533.046 295.948 533.014L300.776 532.728L305.552 532.462C307.745 532.332 309.953 532.212 312.146 532.103C316.016 531.91 319.88 531.712 323.745 531.514C324.656 531.478 325.583 531.426 326.49 531.389C331.656 531.139 336.823 530.926 341.99 530.697C348.068 530.447 354.161 530.212 360.219 529.999C360.875 529.983 361.552 529.947 362.214 529.931C363.229 529.895 364.245 529.858 365.26 529.842C369.646 529.681 374.031 529.535 378.391 529.41L383.219 529.27L387.979 529.165C388.406 529.145 388.854 529.145 389.281 529.129C389.849 529.129 390.438 529.108 391.005 529.092C392.307 529.056 393.625 529.04 394.927 529.004L397.547 528.952C399.005 528.915 400.448 528.879 401.911 528.858C404.229 528.806 406.563 528.754 408.88 528.717C411.198 528.681 413.51 528.645 415.828 528.608L420.62 528.54L421.547 528.525L425.417 528.488C425.875 528.488 426.339 528.467 426.807 528.467C427.802 528.452 428.797 528.452 429.813 528.431C431.005 528.415 432.219 528.4 433.417 528.4C436.089 528.379 438.76 528.363 441.432 528.342C444.12 528.327 446.797 528.306 449.469 528.306C452.141 528.29 454.813 528.29 457.469 528.29C460.833 528.29 464.219 528.29 467.625 528.306C471.01 528.327 474.396 528.342 477.797 528.363C481.198 528.4 484.589 528.415 487.974 528.467C490.766 528.504 493.568 528.525 496.344 528.577C496.953 528.577 497.536 528.577 498.13 528.592L511.688 528.79L518.047 528.879L525.089 529.092L526.938 529.145L538.021 529.467L544.974 529.681C547.307 529.749 549.62 529.822 551.953 529.91C554.271 529.983 556.604 530.072 558.922 530.16C561.255 530.233 563.573 530.322 565.87 530.426L574.458 530.749L582.974 531.139L589.922 531.462C592.255 531.572 594.573 531.691 596.906 531.801C599.24 531.926 601.557 532.051 603.891 532.155C606.208 532.28 608.542 532.405 610.859 532.53L615.672 532.801L620.464 533.103C626.521 533.457 632.578 533.832 638.672 534.223C644.766 534.634 650.865 535.04 656.953 535.488C659.661 535.686 662.37 535.879 665.078 536.077C668.464 536.327 671.865 536.592 675.255 536.858C681.344 537.342 687.443 537.842 693.495 538.358L698.344 538.764L703.156 539.197C709.214 539.728 715.323 540.301 721.422 540.868C727.531 541.457 733.661 542.066 739.786 542.686C745.901 543.311 752.031 543.952 758.161 544.613C764.271 545.29 770.401 545.967 776.495 546.66L779.661 547.02L782.833 547.389L791.281 548.405C794.115 548.743 796.948 549.082 799.781 549.441C802.615 549.78 805.448 550.134 808.281 550.488C811.094 550.848 813.927 551.202 816.745 551.577L829.146 553.197L837.589 554.358C840.406 554.733 843.24 555.124 846.089 555.535C848.906 555.926 851.74 556.316 854.573 556.728H854.625C857.453 557.139 860.307 557.546 863.156 557.957C865.99 558.384 868.844 558.796 871.656 559.223L893.396 562.467L905.474 564.264" fill="#142D45"/>
<path d="M579.688 423.79C579.615 421.993 579.547 420.197 579.474 418.405C579.401 416.613 579.328 414.822 579.255 413.035C577.875 413.025 576.495 413.014 575.109 412.999C573.729 412.988 572.349 412.978 570.969 412.967C569.589 412.952 568.208 412.941 566.828 412.931C565.443 412.921 564.063 412.905 562.682 412.895C562.745 414.671 562.807 416.447 562.87 418.228C562.927 420.009 562.99 421.796 563.052 423.582C563.115 425.374 563.177 427.165 563.24 428.957C563.302 430.754 563.37 432.551 563.432 434.353C564.823 434.368 566.214 434.389 567.604 434.41C568.99 434.431 570.385 434.452 571.771 434.473C573.167 434.493 574.557 434.52 575.948 434.54C577.344 434.566 578.734 434.592 580.125 434.613C580.052 432.806 579.979 430.999 579.906 429.197C579.833 427.389 579.76 425.587 579.688 423.79Z" fill="#142D45"/>
<path d="M265.448 413.895C264.063 413.915 262.682 413.936 261.297 413.962C259.917 413.983 258.531 414.004 257.151 414.03C257.031 415.879 256.906 417.738 256.786 419.598C256.667 421.457 256.542 423.322 256.422 425.186C256.302 427.056 256.177 428.926 256.057 430.796C255.932 432.671 255.812 434.546 255.688 436.421C257.083 436.384 258.479 436.348 259.875 436.306C261.266 436.27 262.661 436.228 264.052 436.191C265.443 436.15 266.839 436.113 268.229 436.077C269.625 436.04 271.016 436.004 272.411 435.967C272.521 434.108 272.635 432.249 272.75 430.389C272.859 428.535 272.969 426.681 273.083 424.832C273.193 422.983 273.302 421.134 273.417 419.29C273.526 417.447 273.635 415.608 273.745 413.77C272.359 413.79 270.979 413.811 269.594 413.832C268.214 413.853 266.828 413.874 265.448 413.895Z" fill="#142D45"/>
<path d="M470.068 446.676C470.042 440.926 470.016 435.191 469.99 429.483C469.969 423.79 469.943 418.118 469.917 412.467C468.542 412.467 467.156 412.462 465.776 412.462L461.641 412.457C460.26 412.457 458.875 412.457 457.495 412.457H453.354C453.349 418.108 453.344 423.785 453.333 429.473C453.323 435.186 453.318 440.915 453.307 446.665C453.297 452.436 453.292 458.228 453.281 464.04C453.271 469.874 453.266 475.728 453.255 481.598H457.495C458.906 481.598 460.318 481.598 461.734 481.598C463.146 481.603 464.557 481.603 465.974 481.608C467.385 481.613 468.797 481.618 470.208 481.624C470.188 475.749 470.161 469.895 470.141 464.056C470.115 458.243 470.094 452.452 470.068 446.676Z" fill="#142D45"/>
<path d="M804.828 545.842C835.37 549.139 865.854 553.249 896.25 557.363C882.271 525.275 868.208 493.28 853.75 461.426L853.156 460.118L853.474 458.702C859.828 430.645 865.833 402.551 871.776 374.384L465.854 368.905L878.63 363.332L885.74 363.238L884.063 370.145C876.833 399.848 869.521 429.613 861.854 459.243C878.385 493.322 894.5 527.645 910.484 561.952L914.938 571.504L904.547 569.806C870.938 564.316 837.464 558.764 803.787 554.191C770.13 549.483 736.385 545.483 702.573 541.973C634.948 535.02 567.031 530.598 499.01 528.608C567.057 528.733 635.141 531.285 703.073 536.384C737.026 538.967 770.964 542.046 804.828 545.842Z" fill="#E41541"/>
<path d="M110.109 545.842C79.5677 549.139 49.0833 553.249 18.6927 557.363C32.6667 525.275 46.7292 493.28 61.1875 461.426L61.7812 460.118L61.4635 458.702C55.1094 430.645 49.1042 402.551 43.1615 374.384L449.083 368.905L36.3073 363.332L29.1979 363.238L30.875 370.145C38.1042 399.848 45.4167 429.613 53.0833 459.243C36.5573 493.322 20.4375 527.645 4.45312 561.952L0 571.504L10.3906 569.806C44 564.316 77.474 558.764 111.151 554.191C144.807 549.483 178.552 545.483 212.365 541.973C279.99 535.02 347.906 530.598 415.927 528.608C347.88 528.733 279.797 531.285 211.865 536.384C177.911 538.967 143.974 542.046 110.109 545.842Z" fill="#627995"/>
<path d="M451.911 479.874H439.818C439.818 474.301 439.839 468.728 439.839 463.196C439.839 457.67 439.865 452.165 439.865 446.681C439.865 441.759 439.885 436.853 439.885 431.952V430.332C439.906 424.92 439.906 419.53 439.906 414.165H451.729C453.021 414.165 454.339 414.165 455.661 414.186C455.682 419.556 455.708 424.941 455.729 430.353V432.019C455.75 436.879 455.776 441.78 455.797 446.681C455.823 452.165 455.844 457.67 455.87 463.196C455.891 468.749 455.911 474.321 455.938 479.894C454.594 479.894 453.255 479.894 451.911 479.874ZM482.141 476.077C482.026 466.275 481.885 456.514 481.771 446.801C481.703 441.967 481.63 437.155 481.563 432.342C481.516 427.582 481.448 422.816 481.38 418.071C481.26 408.618 481.146 399.202 481.005 389.858H414.49C414.401 399.202 414.307 408.592 414.188 418.051C414.146 422.722 414.099 427.394 414.052 432.087C414.005 436.946 413.958 441.847 413.891 446.754C413.797 456.441 413.703 466.202 413.589 476.009C413.495 485.884 413.38 495.806 413.286 505.801C415.833 505.775 418.375 505.754 420.896 505.733C423.443 505.707 425.984 505.681 428.531 505.681C431.052 505.66 433.594 505.66 436.141 505.639H443.75C446.984 505.639 450.224 505.639 453.464 505.66C456.677 505.66 459.917 505.681 463.151 505.707C466.37 505.733 469.604 505.754 472.844 505.801C476.083 505.821 479.297 505.868 482.536 505.915C482.396 495.9 482.281 485.957 482.141 476.077Z" fill="white"/>
<path d="M405.724 389.858C405.589 399.202 405.474 408.618 405.333 418.077C405.286 422.769 405.219 427.488 405.146 432.207C405.078 437.061 405.01 441.92 404.938 446.821C404.823 456.514 404.682 466.275 404.547 476.103C404.432 485.978 404.292 495.92 404.151 505.941C401.953 505.962 399.734 506.009 397.536 506.03C395.318 506.077 393.12 506.124 390.901 506.165C388.703 506.217 386.484 506.264 384.286 506.306C382.068 506.353 379.844 506.4 377.651 506.472C377.88 496.41 378.089 486.42 378.318 476.493C378.552 466.618 378.76 456.816 378.99 447.077C379.083 442.269 379.198 437.478 379.313 432.717C379.406 427.858 379.521 423.025 379.641 418.212C379.844 408.707 380.052 399.249 380.26 389.858" fill="white"/>
<path d="M371.495 389.858C371.448 391.894 371.406 393.931 371.333 395.967L371.198 402.071C371.125 404.129 371.083 406.16 371.031 408.222C370.964 410.28 370.917 412.337 370.87 414.394C367.427 414.42 363.958 414.441 360.51 414.467C357.063 414.488 353.615 414.514 350.151 414.535L339.813 414.608C336.344 414.655 332.896 414.676 329.448 414.696C329.219 420.202 329.01 425.707 328.776 431.233C328.734 432.368 328.688 433.499 328.641 434.66C328.479 439.077 328.292 443.493 328.13 447.936C327.901 453.551 327.667 459.176 327.438 464.842C327.229 470.509 326.995 476.196 326.766 481.91C328.109 481.863 329.448 481.816 330.792 481.769C332.13 481.722 333.495 481.676 334.839 481.629C336.182 481.587 337.521 481.54 338.865 481.514C340.203 481.467 341.547 481.42 342.885 481.379C342.958 479.618 343 477.863 343.073 476.103C343.141 474.368 343.188 472.608 343.255 470.853C343.328 469.097 343.37 467.363 343.443 465.603C343.49 463.868 343.557 462.134 343.604 460.4C343.026 460.4 342.448 460.42 341.87 460.42C341.271 460.441 340.688 460.441 340.109 460.467C339.51 460.493 338.932 460.493 338.354 460.514C337.776 460.514 337.172 460.54 336.599 460.561C336.667 458.41 336.755 456.285 336.828 454.134C336.922 452.004 336.99 449.879 337.083 447.749C337.151 445.618 337.219 443.514 337.313 441.384C337.385 439.285 337.453 437.155 337.521 435.051C340.276 435.004 343 434.983 345.734 434.936C348.484 434.889 351.214 434.842 353.943 434.821C356.672 434.775 359.422 434.749 362.151 434.707C364.88 434.681 367.609 434.634 370.365 434.608C370.203 440.488 370.063 446.405 369.901 452.327C369.74 458.269 369.599 464.264 369.438 470.254C369.297 476.264 369.141 482.301 368.974 488.363C368.813 494.467 368.677 500.571 368.51 506.702C362.729 506.863 356.948 507.051 351.188 507.254C345.406 507.467 339.625 507.676 333.844 507.926C328.063 508.16 322.281 508.415 316.521 508.691C310.74 508.967 304.958 509.269 299.151 509.592C299.661 499.254 300.167 488.988 300.656 478.785C301.141 468.655 301.625 458.571 302.109 448.582C302.323 444.42 302.531 440.254 302.714 436.113C303.016 430.358 303.292 424.644 303.568 418.931C304.031 409.196 304.516 399.478 304.979 389.858" fill="white"/>
<path d="M587.313 435.191C585.99 435.165 584.667 435.145 583.323 435.118L579.359 435.051C578.037 435.03 576.719 435.004 575.37 434.983C574.052 434.957 572.729 434.936 571.406 434.936C571.406 434.728 571.385 434.52 571.385 434.306C571.318 432.801 571.292 431.296 571.224 429.79C571.177 428.072 571.109 426.384 571.037 424.665C570.99 422.973 570.922 421.259 570.875 419.566C570.807 417.874 570.76 416.181 570.688 414.488C572.01 414.509 573.333 414.509 574.656 414.535C575.953 414.535 577.271 414.535 578.594 414.561C579.917 414.561 581.214 414.582 582.537 414.582C583.854 414.603 585.156 414.603 586.474 414.629C586.547 416.322 586.615 418.035 586.682 419.728C586.755 421.441 586.823 423.16 586.896 424.874C586.964 426.587 587.031 428.306 587.104 430.02C587.172 431.691 587.24 433.384 587.313 435.077V435.191ZM615.359 478.884C614.875 468.733 614.365 458.629 613.875 448.587C613.693 444.577 613.484 440.566 613.276 436.582C612.995 430.645 612.719 424.759 612.417 418.868C611.953 409.087 611.464 399.374 610.979 389.707H544.307C544.563 399.139 544.818 408.624 545.052 418.176C545.188 423.181 545.307 428.212 545.469 433.264C545.563 437.9 545.698 442.54 545.818 447.197C546.068 456.983 546.323 466.832 546.578 476.754C546.833 486.723 547.115 496.764 547.37 506.868C549.568 506.936 551.797 507.009 554 507.077C556.224 507.15 558.448 507.217 560.651 507.285C562.875 507.358 565.078 507.447 567.307 507.52C569.505 507.608 571.729 507.681 573.958 507.775C573.818 503.785 573.677 499.801 573.542 495.811C573.401 491.848 573.26 487.884 573.125 483.921C572.984 479.978 572.844 476.061 572.708 472.139C572.568 468.223 572.427 464.327 572.287 460.436C573.63 460.457 574.979 460.504 576.323 460.53C577.646 460.551 578.99 460.598 580.333 460.618C581.656 460.665 583 460.691 584.344 460.738C585.667 460.759 587.01 460.806 588.354 460.827C588.516 464.749 588.656 468.665 588.818 472.608C588.979 476.546 589.141 480.509 589.307 484.473C589.464 488.441 589.604 492.426 589.771 496.415C589.932 500.426 590.094 504.436 590.255 508.467C592.479 508.561 594.708 508.655 596.906 508.77C599.13 508.863 601.359 508.978 603.563 509.092C605.787 509.212 608.01 509.327 610.214 509.441C612.443 509.556 614.667 509.676 616.891 509.79C616.38 499.426 615.87 489.134 615.359 478.884Z" fill="white"/>
<path d="M695.755 515.306C689.938 514.822 684.12 514.332 678.323 513.895C672.505 513.426 666.682 512.988 660.891 512.572C655.073 512.155 649.276 511.759 643.458 511.389C637.661 511.02 631.865 510.645 626.047 510.301C625.516 499.889 624.979 489.551 624.448 479.285C623.917 469.082 623.38 458.926 622.849 448.842C622.641 444.926 622.453 441.03 622.245 437.16C621.943 431.087 621.62 425.014 621.297 418.988C620.786 409.181 620.297 399.395 619.786 389.707H645.286C645.75 397.405 646.24 405.145 646.703 412.936C647.167 420.749 647.651 428.608 648.141 436.509C648.188 437.348 648.229 438.181 648.302 439.035C648.698 446.134 649.135 453.275 649.578 460.436C650.063 468.499 650.552 476.618 651.063 484.754C652.406 484.822 653.75 484.895 655.094 484.962C656.464 485.056 657.807 485.124 659.151 485.197C660.495 485.264 661.839 485.358 663.208 485.426C664.552 485.493 665.896 485.587 667.266 485.66C667.151 484.009 667.031 482.363 666.943 480.717L666.594 475.78C666.5 474.16 666.385 472.514 666.292 470.889C666.177 469.243 666.063 467.618 665.964 465.999C668.146 466.092 670.323 466.186 672.526 466.301C674.708 466.395 676.885 466.509 679.089 466.624C681.266 466.717 683.448 466.832 685.651 466.952C687.828 467.066 690.031 467.16 692.208 467.275C692.51 471.238 692.786 475.176 693.089 479.145C693.391 483.129 693.672 487.118 693.969 491.103C694.271 495.118 694.573 499.124 694.875 503.16C695.151 507.191 695.453 511.249 695.755 515.306Z" fill="white"/>
<path d="M220.932 389.858C220.75 392.03 220.589 394.228 220.427 396.405C220.24 398.603 220.078 400.801 219.917 402.993C219.755 405.191 219.568 407.389 219.406 409.608C219.245 411.806 219.083 414.03 218.896 416.249C215.453 416.316 211.984 416.384 208.536 416.431C205.068 416.499 201.62 416.571 198.151 416.639C194.708 416.712 191.234 416.78 187.792 416.847C184.344 416.92 180.875 417.009 177.427 417.082C177.245 418.931 177.083 420.806 176.922 422.676C176.76 424.53 176.573 426.4 176.411 428.275C176.25 430.15 176.089 432.045 175.901 433.92C175.74 435.79 175.578 437.686 175.417 439.561C178.885 439.42 182.38 439.285 185.87 439.144C189.365 439.03 192.833 438.889 196.323 438.754C199.818 438.634 203.286 438.493 206.776 438.384C210.271 438.264 213.74 438.15 217.234 438.035C217.094 439.79 216.953 441.571 216.839 443.353C216.792 443.816 216.745 444.301 216.724 444.785C216.536 447.051 216.375 449.321 216.193 451.587C216.031 453.853 215.844 456.118 215.682 458.384C215.5 460.676 215.313 462.967 215.151 465.233C211.635 465.42 208.12 465.629 204.583 465.811C201.068 465.993 197.552 466.207 194.036 466.415C190.495 466.618 186.979 466.827 183.464 467.035C179.927 467.243 176.411 467.452 172.875 467.686C172.708 469.603 172.526 471.525 172.365 473.441C172.203 475.384 172.016 477.306 171.854 479.249C171.672 481.191 171.51 483.108 171.323 485.051C171.141 486.993 170.979 488.962 170.792 490.905C174.354 490.629 177.917 490.327 181.479 490.051C185.016 489.795 188.578 489.519 192.141 489.264C195.677 488.988 199.24 488.728 202.776 488.478C206.339 488.222 209.875 487.967 213.438 487.738C213.255 490.051 213.068 492.384 212.906 494.717C212.724 497.035 212.536 499.394 212.354 501.728C212.188 504.066 212.005 506.426 211.823 508.759C211.635 511.118 211.474 513.478 211.286 515.837C205.458 516.347 199.656 516.879 193.849 517.41C188.047 517.967 182.219 518.519 176.411 519.118C170.583 519.696 164.755 520.301 158.927 520.926C153.099 521.551 147.271 522.196 141.443 522.868C142.552 511.353 143.682 499.9 144.771 488.545C145.88 477.259 146.969 466.066 148.057 454.941C148.151 453.993 148.24 453.045 148.333 452.097C149.307 442.009 150.297 431.993 151.25 422.051C152.313 411.254 153.354 400.519 154.396 389.858" fill="white"/>
<path d="M774.99 523.191C769.151 522.514 763.287 521.868 757.443 521.243C751.599 520.618 745.781 520.014 739.943 519.41C734.099 518.806 728.281 518.254 722.438 517.697C716.62 517.139 710.797 516.608 704.984 516.098C704.125 505.176 703.292 494.306 702.479 483.525C701.641 472.837 700.833 462.197 700.021 451.629C699.813 448.962 699.604 446.27 699.396 443.603C698.792 435.816 698.188 428.072 697.609 420.353C696.797 410.087 696.031 399.863 695.245 389.707H761.917C762.151 391.999 762.38 394.322 762.609 396.639C762.823 398.957 763.052 401.275 763.287 403.592C763.516 405.936 763.75 408.254 763.958 410.592C764.188 412.936 764.422 415.275 764.651 417.618C761.177 417.525 757.719 417.457 754.24 417.363C750.792 417.296 747.313 417.202 743.859 417.134C740.38 417.061 736.927 416.967 733.448 416.9C729.995 416.827 726.521 416.759 723.063 416.691C723.229 418.525 723.365 420.379 723.526 422.233C723.688 424.061 723.854 425.915 723.99 427.77C724.156 429.65 724.318 431.504 724.479 433.358C724.641 435.212 724.802 437.092 724.943 438.967C728.443 439.087 731.943 439.223 735.443 439.363C738.922 439.499 742.422 439.639 745.922 439.78C749.422 439.941 752.922 440.082 756.422 440.217C759.901 440.384 763.401 440.525 766.901 440.686C767.13 443.051 767.365 445.436 767.599 447.827C767.714 449.077 767.854 450.306 767.964 451.535C768.083 452.691 768.198 453.874 768.318 455.035C768.547 457.421 768.776 459.832 769.01 462.243C769.266 464.676 769.495 467.087 769.729 469.525C766.208 469.27 762.662 469.035 759.109 468.806C755.589 468.572 752.042 468.342 748.516 468.108C744.969 467.879 741.448 467.665 737.922 467.462C734.375 467.228 730.854 467.02 727.328 466.811C727.49 468.712 727.656 470.608 727.818 472.535C727.979 474.436 728.141 476.363 728.302 478.285C728.464 480.186 728.63 482.108 728.792 484.035C728.953 485.957 729.115 487.905 729.276 489.827C732.849 490.108 736.396 490.384 739.964 490.66C743.531 490.941 747.078 491.217 750.651 491.525C754.219 491.822 757.792 492.124 761.359 492.426C764.932 492.728 768.5 493.051 772.073 493.353C772.302 495.832 772.531 498.29 772.792 500.775C773.021 503.228 773.276 505.712 773.51 508.212C773.766 510.697 773.995 513.176 774.25 515.676C774.479 518.181 774.734 520.686 774.99 523.191Z" fill="white"/>
<path d="M252.406 431.603C252.526 429.821 252.641 428.04 252.755 426.259C252.875 424.504 252.99 422.722 253.104 420.941C253.219 419.186 253.333 417.426 253.453 415.67C254.771 415.644 256.089 415.624 257.406 415.597C258.698 415.577 260.021 415.551 261.339 415.53C262.656 415.509 263.974 415.483 265.271 415.483L269.224 415.415C269.109 417.176 269.016 418.91 268.901 420.665C268.807 422.42 268.693 424.181 268.599 425.936C268.484 427.696 268.391 429.452 268.276 431.212C268.161 432.967 268.068 434.749 267.953 436.509C266.63 436.556 265.318 436.577 263.974 436.624C262.656 436.644 261.339 436.691 260.021 436.717C258.677 436.759 257.359 436.785 256.042 436.832C254.724 436.879 253.38 436.9 252.062 436.946C252.177 435.165 252.297 433.384 252.406 431.603ZM229.677 389.858C228.938 399.92 228.198 410.025 227.453 420.228C226.901 427.582 226.365 434.983 225.812 442.405C225.604 445.316 225.375 448.254 225.161 451.191C224.401 461.65 223.615 472.191 222.854 482.785C222.068 493.472 221.255 504.228 220.469 515.051C222.688 514.863 224.906 514.681 227.13 514.493C229.349 514.311 231.573 514.124 233.792 513.962C236.01 513.78 238.234 513.618 240.453 513.431C242.651 513.269 244.87 513.108 247.089 512.946C247.37 508.759 247.646 504.597 247.922 500.431C248.177 496.295 248.453 492.176 248.734 488.035C248.99 483.941 249.266 479.827 249.542 475.754C249.797 471.66 250.052 467.592 250.328 463.545C251.672 463.472 253.01 463.426 254.328 463.358C255.672 463.311 257.01 463.243 258.354 463.196C259.672 463.129 261.016 463.082 262.354 463.014C263.698 462.967 265.036 462.92 266.354 462.853C266.125 466.874 265.87 470.9 265.641 474.946C265.385 478.993 265.156 483.066 264.901 487.134C264.667 491.207 264.417 495.301 264.161 499.415C263.927 503.509 263.672 507.65 263.422 511.79C265.641 511.629 267.859 511.488 270.078 511.327C272.276 511.186 274.495 511.051 276.719 510.91C278.938 510.769 281.161 510.634 283.354 510.493C285.573 510.353 287.797 510.217 290.016 510.103C290.203 506.17 290.406 502.238 290.62 498.327C290.828 494.42 291.01 490.535 291.219 486.65C291.427 482.785 291.609 478.926 291.823 475.061C292.005 471.222 292.214 467.384 292.401 463.545C291.266 462.363 290.109 461.186 288.953 460.009C287.818 458.827 286.661 457.644 285.531 456.467C284.375 455.29 283.219 454.082 282.083 452.905C280.948 451.728 279.792 450.545 278.661 449.368C279.932 448.071 281.229 446.801 282.5 445.551C283.771 444.28 285.047 443.009 286.318 441.759C287.589 440.483 288.859 439.238 290.13 437.988C290.5 437.618 290.896 437.228 291.286 436.832C292.167 435.972 293.047 435.118 293.922 434.243C294.109 430.493 294.318 426.749 294.505 423.025C294.688 419.301 294.875 415.597 295.083 411.9C295.266 408.196 295.453 404.519 295.635 400.842C295.844 397.165 296.031 393.514 296.214 389.858" fill="white"/>
<path d="M893.375 580.175C893.375 580.175 699.656 553.285 576.198 544.54C718.646 558.269 880.094 589.108 880.094 589.108" fill="#E41541"/>
<path d="M338.74 544.54C228.271 552.363 61.5729 574.712 27.7135 579.332L12.4844 566.603L0 571.504L68.2552 613.201L38.5729 588.405C63.4479 583.754 208.964 557.045 338.74 544.54Z" fill="#627995"/>
<path d="M39.1823 382.124L63.2865 415.368L45.2396 365.78L36.9688 367.717L39.1823 382.124Z" fill="#627995"/>
<path d="M465.745 368.905L717.802 339.264L627.563 361.301L885.63 365.65L465.745 368.905Z" fill="#E41541"/>
<path d="M449.083 368.905L197.031 339.264L287.266 361.301L29.1979 365.65L449.083 368.905Z" fill="#627995"/>
<path d="M159.266 462.17L166.031 453.295C161.24 453.957 156.469 454.634 151.734 455.332L150.693 466.035C149.953 473.624 149.208 481.243 148.453 488.91C147.854 495.191 147.234 501.514 146.62 507.858C146.411 509.967 146.208 512.087 146 514.202L158.562 502.347L151.943 517.972C154.141 517.728 156.333 517.483 158.531 517.249C164.37 516.618 170.208 516.019 176.047 515.436C181.594 514.863 187.177 514.332 192.74 513.801L193.495 513.728C198.281 513.29 203.052 512.853 207.833 512.426C207.844 512.295 207.854 512.165 207.865 512.035C207.948 510.847 208.036 509.66 208.13 508.472C208.318 506.144 208.5 503.795 208.661 501.472L208.849 499.061L209.219 494.426C209.281 493.53 209.349 492.624 209.417 491.717C207.526 491.847 205.641 491.983 203.75 492.118L203.042 492.165L202.385 492.212C199.073 492.452 195.74 492.691 192.427 492.952C190.563 493.087 188.719 493.222 186.88 493.363C185.167 493.488 183.448 493.618 181.74 493.743C179.984 493.879 178.208 494.019 176.432 494.165C174.646 494.311 172.865 494.457 171.078 494.592L166.688 494.936L167.104 490.556C167.198 489.592 167.286 488.624 167.37 487.65C167.458 486.665 167.547 485.681 167.641 484.702C167.729 483.738 167.818 482.775 167.901 481.811C167.99 480.842 168.078 479.874 168.172 478.9C168.25 477.962 168.333 476.988 168.422 476.014C168.51 475.056 168.594 474.097 168.677 473.134C168.76 472.165 168.844 471.202 168.932 470.238C169.016 469.285 169.104 468.327 169.182 467.374L169.453 464.196L172.63 463.993C176.177 463.759 179.703 463.551 183.25 463.342L184.12 463.29L193.818 462.717C197.375 462.509 200.88 462.301 204.385 462.118C206.198 462.019 207.995 461.92 209.797 461.821C210.432 461.785 211.068 461.749 211.703 461.712C211.797 460.525 211.896 459.327 211.99 458.134C212.073 456.983 212.161 455.842 212.25 454.702C212.333 453.577 212.422 452.452 212.5 451.321C212.594 450.16 212.682 449.04 212.766 447.915C212.776 447.78 212.786 447.644 212.797 447.514C201.74 448.722 190.74 450.045 179.839 451.457" fill="#627995"/>
<path d="M287.359 489.624C287.417 488.566 287.464 487.509 287.521 486.452C287.625 484.53 287.724 482.608 287.823 480.686C287.922 478.749 288.021 476.806 288.125 474.863C288.219 472.957 288.318 471.025 288.417 469.092C288.484 467.717 288.552 466.342 288.625 464.962C287.865 464.186 287.099 463.405 286.333 462.624C285.719 461.983 285.156 461.4 284.589 460.816C284.005 460.217 283.432 459.624 282.859 459.03C281.719 457.868 280.557 456.655 279.417 455.467C278.854 454.884 278.281 454.301 277.719 453.712C277.141 453.118 276.563 452.525 275.995 451.931L273.5 449.337L276.021 446.775C277.307 445.462 278.62 444.176 279.906 442.91C280.464 442.353 281.026 441.79 281.589 441.233C263.625 442.556 246.083 444.082 229.276 445.775C229.25 446.15 229.219 446.525 229.193 446.894C229.078 448.415 228.964 449.936 228.854 451.457L228.26 459.561L242.417 477.368L227.594 468.665C227.24 473.457 226.891 478.243 226.542 483.051L225.62 495.53C225.24 500.67 224.854 505.827 224.474 511.004L226.823 510.811C229.063 510.624 231.292 510.436 233.521 510.275C234.599 510.186 235.708 510.097 236.823 510.009C237.927 509.926 239.036 509.837 240.146 509.743L243.609 509.488L244.229 500.186C244.469 496.327 244.724 492.467 244.99 488.587L245.042 487.79C245.297 483.707 245.573 479.582 245.849 475.504C246.104 471.426 246.359 467.347 246.641 463.29L246.865 460.019L250.141 459.847C250.807 459.816 251.474 459.785 252.135 459.759C252.807 459.728 253.474 459.702 254.135 459.665C254.859 459.639 255.521 459.608 256.177 459.582C256.859 459.551 257.542 459.525 258.224 459.499C258.844 459.467 259.537 459.436 260.234 459.405C260.875 459.379 261.521 459.353 262.162 459.316C263.563 459.269 264.875 459.222 266.162 459.155L270.287 458.936L270.052 463.061C269.938 465.014 269.823 466.962 269.703 468.92C269.578 470.993 269.453 473.071 269.333 475.155C269.203 477.264 269.073 479.353 268.948 481.446C268.833 483.42 268.719 485.394 268.594 487.368C268.375 491.165 268.141 495.009 267.901 498.868L267.854 499.644C267.698 502.342 267.537 505.071 267.37 507.806C268.182 507.754 268.995 507.696 269.813 507.639L276.49 507.217L283.12 506.801C284.24 506.733 285.365 506.66 286.479 506.592C286.625 503.764 286.771 500.941 286.922 498.134C286.927 498.066 286.927 497.999 286.932 497.936L270.63 485.42" fill="#627995"/>
<path d="M366.052 458.103C366.099 456.139 366.146 454.181 366.203 452.228C366.281 449.342 366.354 446.462 366.427 443.582C366.474 441.837 366.516 440.092 366.557 438.353C366.464 438.353 366.365 438.358 366.271 438.358C364.906 438.373 363.547 438.394 362.182 438.405C360.849 438.425 359.474 438.441 358.104 438.462C356.734 438.478 355.365 438.493 354.005 438.519C351.313 438.54 348.656 438.587 345.979 438.629L345.792 438.634C344.411 438.66 343.031 438.675 341.641 438.691C341.464 438.696 341.281 438.696 341.104 438.701L341.01 441.509C340.917 443.66 340.849 445.754 340.781 447.868C340.734 448.962 340.693 450.014 340.651 451.071C340.609 452.144 340.573 453.217 340.521 454.29C340.5 455.097 340.469 455.925 340.438 456.754C340.594 456.748 340.755 456.748 340.917 456.743C341.182 456.738 341.453 456.738 341.724 456.722H341.87C342.13 456.722 342.396 456.717 342.661 456.712C342.974 456.701 343.292 456.696 343.604 456.696H347.406L347.302 460.498C347.276 461.373 347.25 462.254 347.219 463.134C347.193 463.988 347.161 464.847 347.141 465.701C347.104 466.618 347.073 467.483 347.047 468.347C347.021 469.233 346.99 470.113 346.953 470.998C346.922 471.858 346.891 472.717 346.865 473.576C346.833 474.467 346.807 475.363 346.771 476.248C346.734 477.118 346.708 477.988 346.677 478.858C346.646 479.748 346.62 480.634 346.583 481.519L346.448 484.957L343.016 485.076L340.964 485.144L338.99 485.212C337.604 485.238 336.286 485.285 334.964 485.326L332.776 485.405L330.917 485.467L326.891 485.608L322.906 485.743L323.068 481.759L323.104 480.978C323.323 475.53 323.542 470.108 323.74 464.701L324.432 447.78C324.516 445.53 324.604 443.269 324.693 441.014C324.724 440.191 324.755 439.368 324.792 438.55C318.526 438.863 312.323 439.212 306.255 439.592C306.115 442.644 305.964 445.707 305.807 448.764C305.323 458.748 304.833 468.832 304.349 478.962C304.188 482.353 304.021 485.79 303.854 489.196L309.854 484.519L305.823 494.368L319.417 489.556C319.417 489.556 310.073 501.113 306.219 505.509C309.599 505.332 312.974 505.155 316.344 504.993C322.109 504.717 327.906 504.462 333.698 504.228C339.474 503.972 345.266 503.764 351.057 503.561C355.661 503.394 360.281 503.243 364.906 503.103C364.948 501.248 364.995 499.394 365.042 497.54C365.115 494.446 365.193 491.353 365.276 488.264L365.292 487.78C365.448 481.884 365.604 476.014 365.74 470.165C365.755 469.498 365.771 468.842 365.792 468.181L349.01 450.149" fill="#627995"/>
<path d="M400.635 492.035C400.708 486.701 400.781 481.353 400.844 476.061L400.865 474.826C400.995 465.415 401.13 456.066 401.24 446.78L401.391 435.962C395.802 436.045 389.792 436.165 382.927 436.326C382.844 439.92 382.76 443.53 382.688 447.149C382.568 452.342 382.448 457.54 382.333 462.759C382.229 467.347 382.125 471.957 382.016 476.582C381.896 481.868 381.776 487.175 381.661 492.498C381.589 495.879 381.51 499.269 381.438 502.665C382.359 502.644 383.281 502.629 384.208 502.608L386.958 502.55L390.823 502.472L394.568 502.394L394.854 502.384L387.849 472.467" fill="#627995"/>
<path d="M478.25 460.91C478.188 456.212 478.125 451.525 478.068 446.842L477.917 435.983C472.448 435.889 466.531 435.816 459.448 435.754L459.5 446.639L459.568 463.181L459.635 479.879L459.651 483.597H455.938C454.573 483.597 453.214 483.597 451.849 483.571H436.115V479.874C436.115 477.077 436.12 474.285 436.125 471.493C436.135 468.717 436.141 465.952 436.141 463.196C436.141 460.426 436.146 457.66 436.151 454.9C436.156 452.155 436.161 449.415 436.161 446.686C436.161 444.217 436.167 441.754 436.172 439.29C436.177 438.077 436.177 436.868 436.182 435.655C429.984 435.66 423.797 435.691 417.719 435.754C417.682 439.426 417.641 443.113 417.589 446.806L417.583 447.446C417.495 456.926 417.401 466.467 417.292 476.056C417.245 480.874 417.193 485.712 417.141 490.561C417.12 492.504 417.104 494.452 417.083 496.394L431.875 485.863L421.818 502.025C424.073 502.004 426.307 501.983 428.531 501.983C429.766 501.972 431.042 501.967 432.318 501.962C433.578 501.957 434.844 501.952 436.104 501.936H443.75C446.995 501.936 450.24 501.936 453.49 501.962H453.505C456.698 501.962 459.938 501.983 463.177 502.009C466.411 502.03 469.656 502.051 472.896 502.097C474.854 502.113 476.818 502.134 478.781 502.16C478.734 498.624 478.688 495.087 478.646 491.566C478.578 486.4 478.51 481.259 478.443 476.134C478.417 474.092 478.391 472.071 478.365 470.04C474.589 466.483 465.016 457.53 463.74 456.983C462.307 456.368 475.542 460.139 478.25 460.91Z" fill="#627995"/>
<path d="M610.818 461.957L610.172 448.77C610.037 445.868 609.891 442.967 609.74 440.077C601.615 439.577 594.182 439.15 587.115 438.78L582.365 438.546C578.672 438.363 574.958 438.176 571.224 438.014C568.406 437.884 565.547 437.764 562.688 437.645C576.063 443.322 607.052 456.921 607.052 456.921L549.401 442.54L549.521 447.103L550.287 476.66C550.406 481.249 550.526 485.848 550.651 490.462C550.766 494.717 550.875 498.988 550.99 503.27L554.115 503.368L560.771 503.577C561.891 503.613 563.005 503.655 564.12 503.697C565.219 503.738 566.318 503.775 567.422 503.811C568.333 503.848 569.224 503.879 570.115 503.915L570.042 501.921L569.839 496.02L552.396 482.686C552.396 482.686 565.5 486.176 569.531 487.368L569.417 484.046L569 472.29L568.583 460.566L568.443 456.66L572.354 456.728C573.037 456.738 573.719 456.759 574.401 456.775C575.063 456.79 575.724 456.806 576.385 456.816C577.052 456.832 577.719 456.848 578.391 456.868C579.057 456.884 579.729 456.9 580.396 456.91C581.12 456.936 581.781 456.957 582.448 456.973C583.12 456.988 583.792 457.009 584.474 457.03C585.068 457.04 585.74 457.056 586.412 457.077C587.078 457.092 587.75 457.108 588.417 457.124L591.917 457.181L592.063 460.676C592.141 462.676 592.219 464.681 592.297 466.686C592.37 468.603 592.443 470.525 592.521 472.452L593.01 484.322C593.094 486.348 593.172 488.374 593.245 490.405C593.323 492.353 593.396 494.311 593.474 496.264L593.823 504.91C594.922 504.957 596.016 505.009 597.104 505.066C599.302 505.155 601.542 505.275 603.755 505.389L610.406 505.738L612.984 505.874C612.542 496.895 612.099 487.967 611.656 479.072C611.38 473.348 611.099 467.645 610.818 461.957Z" fill="#627995"/>
<path d="M691.526 508.306C691.406 506.675 691.287 505.04 691.172 503.415L690.271 491.384C690.12 489.384 689.974 487.389 689.828 485.394C689.688 483.399 689.542 481.415 689.391 479.42C689.24 477.441 689.094 475.457 688.948 473.478C688.885 472.592 688.823 471.701 688.755 470.816H688.74C687.641 470.764 686.547 470.712 685.453 470.655L685.12 470.634C683.047 470.524 680.99 470.42 678.932 470.332L678.563 470.311C676.484 470.201 674.427 470.092 672.37 470.004C671.552 469.962 670.74 469.92 669.938 469.884C669.948 470.024 669.958 470.165 669.969 470.306L669.99 470.629C670.042 471.478 670.094 472.285 670.146 473.087C670.198 473.92 670.25 474.748 670.297 475.571L670.641 480.457C670.734 482.129 670.849 483.743 670.964 485.363L671.255 489.535L667.078 489.363C666.359 489.326 665.651 489.285 664.943 489.238C664.302 489.201 663.662 489.16 663.016 489.129C662.302 489.092 661.594 489.05 660.885 489.009C660.24 488.967 659.599 488.931 658.958 488.894C657.578 488.826 656.224 488.754 654.844 488.66L653.109 488.571L650.87 488.457L647.568 488.285L647.359 484.983C647.188 482.248 647.026 479.53 646.859 476.795L633.667 460.566L646.349 468.493C646.245 466.764 646.141 465.019 646.037 463.29L645.875 460.66L645.833 459.967C645.474 454.123 645.115 448.29 644.781 442.493C638.703 442.035 632.469 441.587 626.167 441.149C626.203 441.8 626.234 442.457 626.266 443.108C626.359 444.951 626.453 446.795 626.552 448.644C627.089 458.733 627.62 468.889 628.151 479.087C628.63 488.269 629.104 497.509 629.583 506.795C634.266 507.087 638.943 507.384 643.615 507.681C649.521 508.061 655.328 508.451 661.156 508.868C666.958 509.29 672.787 509.728 678.615 510.196C679.12 510.233 679.625 510.274 680.13 510.316L666.083 496.019" fill="#627995"/>
<path d="M770.208 512.498C770.078 511.196 769.953 509.894 769.818 508.592C769.688 507.186 769.552 505.816 769.422 504.462C769.313 503.342 769.203 502.228 769.099 501.118C769.083 500.998 769.073 500.884 769.063 500.764C763.547 501.707 745.474 504.764 744.849 504.509C744.255 504.264 758.125 498.54 763.521 496.337C762.698 496.264 761.875 496.191 761.047 496.123L753.875 495.519L750.339 495.217C746.776 494.915 743.234 494.639 739.677 494.363L728.99 493.53L725.844 493.285L725.583 490.139L725.094 484.347L724.609 478.597L724.12 472.853L723.641 467.191L723.276 462.92L727.547 463.108C731.078 463.316 734.609 463.524 738.167 463.759C741.677 463.967 745.208 464.175 748.76 464.41L754.01 464.748L759.354 465.103C761.458 465.238 763.542 465.373 765.615 465.519C765.521 464.556 765.422 463.592 765.323 462.629L765.281 462.191L764.807 457.274H732.021L750.807 453.082C735.151 451.144 719.292 449.358 703.438 447.743L703.719 451.337L704.234 458.061C704.875 466.415 705.516 474.811 706.177 483.238C706.818 491.743 707.479 500.316 708.146 508.905L725.24 500.493L717.469 513.509C719.245 513.675 721.016 513.832 722.792 514.004C728.641 514.561 734.469 515.118 740.323 515.717C746.167 516.321 751.99 516.925 757.839 517.55C762.167 518.019 766.505 518.493 770.839 518.983C770.74 517.993 770.646 517.009 770.557 516.019C770.438 514.863 770.323 513.681 770.208 512.498Z" fill="#627995"/>
<path d="M125.234 436.561C122.141 443.092 119.047 449.701 115.927 456.342C115.979 456.524 116.031 456.707 116.083 456.894C117.75 463.108 119.443 469.3 121.135 475.483C122.88 481.858 124.625 488.233 126.396 494.582C128.172 500.978 129.943 507.326 131.74 513.696C133.536 520.071 135.339 526.446 137.161 532.79C133.693 532.879 106.161 532.202 102.417 532.274C102.417 532.274 93.0209 509.941 92.3907 507.457C91.1459 510.155 82.0417 530.056 80.7969 532.863C77.7084 533.285 43.5209 545.144 40.4271 545.592C43.8125 537.998 47.1667 530.488 50.5261 523.061C53.8594 515.655 57.1667 508.332 60.4688 501.087C63.75 493.863 67.0313 486.696 70.2813 479.639C72.6875 474.373 75.0938 469.165 77.474 464.009C78.2917 462.238 79.1146 460.467 79.9323 458.691C78.2917 452.134 76.6823 445.576 75.0417 438.993C73.4271 432.431 71.8438 425.847 70.2292 419.264C68.6407 412.707 67.0573 406.123 65.4948 399.509C63.9323 392.925 62.375 386.342 60.8386 379.728L96.4063 392.582C97.0157 395.014 102.729 406.467 103.365 408.899C104.552 406.436 111.042 394.316 112.177 391.936L152.391 379.728C149.432 385.837 146.443 392.024 143.453 398.264C140.438 404.509 137.427 410.826 134.385 417.201C131.344 423.597 128.302 430.05 125.234 436.561Z" fill="white"/>
<path d="M103.333 503.665L122.307 528.582C120.542 528.8 108.453 527.675 105.547 527.603L93.5312 494.847L88.5521 505.681C87.7292 507.451 86.9427 509.196 86.1406 510.946L84.8229 513.842C84.8229 513.842 78.4167 527.816 77.4844 529.889L47.4219 540.295C49.7448 535.097 52.0625 529.92 54.3854 524.8C57.7031 517.394 61.0052 510.071 64.3281 502.842C67.5938 495.613 70.8802 488.457 74.1302 481.405C76.2344 476.8 78.3229 472.248 80.4167 467.748C83 467.233 85.5729 466.733 88.125 466.248C90.3385 469.425 94.0156 471.493 98.1719 471.493C103.906 471.493 108.708 467.55 110.031 462.233C111.01 462.05 112.01 461.894 113.005 461.712C114.328 466.639 115.667 471.566 117.026 476.478L117.078 476.707C118.828 483.045 120.557 489.399 122.328 495.701C124.094 502.108 125.865 508.467 127.667 514.837C128.771 518.785 129.896 522.712 131 526.639" fill="#627995"/>
<path d="M106.354 459.264C106.354 454.743 102.688 451.077 98.1667 451.077C93.651 451.077 89.9844 454.743 89.9844 459.264C89.9844 463.785 93.651 467.446 98.1667 467.446C102.688 467.446 106.354 463.785 106.354 459.264Z" fill="#142D45"/>
<path d="M791.698 436.561C794.792 443.092 797.885 449.701 801.005 456.342C800.953 456.524 800.901 456.707 800.849 456.894C799.182 463.108 797.49 469.3 795.797 475.483C794.052 481.858 792.307 488.233 790.537 494.582C788.766 500.978 786.99 507.326 785.193 513.696C783.396 520.071 781.599 526.446 779.771 532.79C783.24 532.879 810.771 532.202 814.516 532.274C814.516 532.274 823.906 509.941 824.542 507.457C825.787 510.155 834.891 530.056 836.13 532.863C839.224 533.285 873.412 545.144 876.505 545.592C873.12 537.998 869.766 530.488 866.406 523.061C863.073 515.655 859.766 508.332 856.464 501.087C853.182 493.863 849.901 486.696 846.651 479.639C844.245 474.373 841.839 469.165 839.458 464.009C838.641 462.238 837.818 460.467 837 458.691C838.641 452.134 840.25 445.576 841.891 438.993C843.505 432.431 845.089 425.847 846.703 419.264C848.292 412.707 849.875 406.123 851.438 399.509C853 392.925 854.557 386.342 856.094 379.728L820.521 392.582C819.917 395.014 814.203 406.467 813.568 408.899C812.38 406.436 805.891 394.316 804.75 391.936L764.542 379.728C767.5 385.837 770.49 392.024 773.479 398.264C776.495 404.509 779.505 410.826 782.547 417.201C785.589 423.597 788.63 430.05 791.698 436.561Z" fill="white"/>
<path d="M813.599 503.665L794.625 528.582C796.391 528.8 808.474 527.675 811.385 527.603L823.401 494.847L828.38 505.681C829.203 507.451 829.984 509.196 830.792 510.946L832.109 513.842C832.109 513.842 838.516 527.816 839.448 529.889L869.51 540.295C867.188 535.097 864.87 529.92 862.547 524.8C859.229 517.394 855.922 510.071 852.604 502.842C849.339 495.613 846.052 488.457 842.802 481.405C840.698 476.8 838.609 472.248 836.521 467.748C833.932 467.233 831.359 466.733 828.807 466.248C826.594 469.425 822.917 471.493 818.76 471.493C813.026 471.493 808.224 467.55 806.906 462.233C805.922 462.05 804.922 461.894 803.922 461.712C802.604 466.639 801.266 471.566 799.906 476.478L799.854 476.707C798.104 483.045 796.375 489.399 794.604 495.701C792.839 502.108 791.073 508.467 789.266 514.837C788.161 518.785 787.036 522.712 785.927 526.639" fill="#627995"/>
<path d="M810.578 459.264C810.578 454.743 814.245 451.077 818.766 451.077C823.281 451.077 826.948 454.743 826.948 459.264C826.948 463.785 823.281 467.446 818.766 467.446C814.245 467.446 810.578 463.785 810.578 459.264Z" fill="#142D45"/>
</svg>
