<svg width="952" height="168" viewBox="0 0 952 168" fill="none" xmlns="http://www.w3.org/2000/svg">
<path d="M55.5156 151.768C68.5687 141.813 67.3272 132.145 67.3272 132.145C67.3272 132.145 59.3604 131.274 56.0734 119.032C48.1572 124.267 39.671 126.313 35.1288 127.082C35.1244 127.069 35.1194 127.057 35.115 127.045C46.0161 122.16 49.419 115.781 49.419 115.781C49.419 115.781 38.7598 119.627 31.2891 118.161C25.8965 117.104 20.811 110.376 20.811 110.376C20.811 110.376 17.9427 116.267 20.1736 122.557C23.4534 131.807 38.0703 144.971 38.0703 144.971C38.0703 144.971 33.4397 143.529 27.6313 138.995C30.2236 158.771 53.8837 164.594 53.8837 164.594C53.8837 164.594 53.8352 164.577 53.749 164.542C53.7939 164.559 53.8381 164.577 53.8837 164.594C61.1791 162.446 61.839 151.768 61.839 151.768C61.839 151.768 59.9797 151.954 55.5156 151.768Z" fill="#152E45"/>
<path d="M34.2976 108.457C38.9804 110.318 44.5106 109.175 44.5106 109.175L37.812 104.483L25.4572 100.012C25.4572 100.012 29.575 106.58 34.2976 108.457Z" fill="white"/>
<path d="M80.7602 108.457C76.0767 110.318 70.5464 109.175 70.5464 109.175L77.245 104.483L89.5998 100.012C89.5998 100.012 85.4828 106.58 80.7602 108.457Z" fill="white"/>
<path d="M32.0985 115.534C38.2545 116.947 46.0157 111.835 46.0157 111.835C46.0157 111.835 38.3885 112.508 32.9358 111.583C28.198 110.779 22.5302 106.971 22.5302 106.971C22.5302 106.971 25.9424 114.122 32.0985 115.534Z" fill="#637996"/>
<path d="M41.3598 101.261C39.3056 100.836 37.2978 100.349 35.3588 99.815C31.5495 98.7655 27.9924 97.5378 24.7684 96.2579C17.4027 91.8583 12.5034 84.1189 9.39966 77.1944C13.5421 79.2196 17.4947 80.8949 21.0396 82.2603C26.8798 84.5151 31.6183 85.9261 34.2687 86.649C35.6977 91.904 37.3956 96.6831 39.2542 98.943C39.9372 99.7687 40.6427 100.544 41.3598 101.261Z" fill="#152E45"/>
<path d="M33.4602 83.5226C30.3738 82.6737 27.4417 81.7154 24.711 80.7057C23.7013 80.3384 22.7264 79.9604 21.7739 79.5815C12.383 75.0436 7.61042 67.5222 5.58521 63.3921C9.11339 65.0899 12.9226 66.7255 16.5653 68.1763C22.6235 70.5861 28.2168 72.4846 31.2683 73.3219C31.842 76.3626 32.5939 79.9603 33.4602 83.5226Z" fill="#152E45"/>
<path d="M80.4617 63.2599C80.4617 63.2599 76.4229 90.2519 71.1215 96.6882C65.4146 103.63 58.0134 106.538 57.5549 106.716C57.5375 106.722 57.5317 106.722 57.5317 106.722C57.5317 106.722 52.4542 104.829 47.389 100.285L47.3774 100.274C46.2069 99.2241 45.0429 98.0311 43.9354 96.6882C38.6406 90.2519 34.5959 63.2599 34.5959 63.2599H80.4617Z" fill="#152E45"/>
<path d="M69.045 111.835C69.045 111.835 76.8069 116.947 82.963 115.534C89.1183 114.122 92.5313 106.972 92.5313 106.972C92.5313 106.972 86.8635 110.779 82.1256 111.582C76.6729 112.508 69.045 111.835 69.045 111.835Z" fill="#E51641"/>
<path d="M94.8873 122.557C97.1183 116.267 94.2499 110.376 94.2499 110.376C94.2499 110.376 89.1644 117.104 83.7726 118.161C76.3019 119.627 65.642 115.781 65.642 115.781C65.642 115.781 69.0448 122.16 79.9459 127.044C73.7638 145.257 64.4816 151.528 64.4816 151.528C64.4816 151.528 73.7508 150.49 76.94 148.109C71.4728 160.839 61.1779 164.594 61.1779 164.594C61.1779 164.594 84.8373 158.771 87.4304 138.995C81.622 143.529 76.9914 144.971 76.9914 144.971C76.9914 144.971 91.6076 131.807 94.8873 122.557Z" fill="#E51641"/>
<path d="M53.8545 164.583C53.1772 164.418 40.7746 161.158 33.1902 151.802C30.4313 148.394 28.3083 144.172 27.6317 138.997C33.2539 143.386 37.7803 144.877 38.0613 144.964C37.6195 144.556 23.4031 131.666 20.1734 122.556C17.9417 116.268 20.81 110.376 20.81 110.376C20.81 110.376 25.8991 117.106 31.2918 118.161C34.2637 118.747 37.7455 118.483 40.855 117.967C45.5588 117.175 49.4202 115.78 49.4202 115.78C49.4202 115.78 46.018 122.16 35.1176 127.042C41.2969 145.256 50.5791 151.527 50.5791 151.527C50.5791 151.527 41.3077 150.488 38.1243 148.108C43.4133 160.442 53.2468 164.354 53.8545 164.583Z" fill="#637996"/>
<path d="M105.664 77.1946C104.172 80.5106 102.272 84.0214 99.8808 87.2569C97.2935 90.7677 94.1267 93.9693 90.2885 96.2581C85.424 98.1856 79.8017 100.01 73.7036 101.261C74.4207 100.543 75.1262 99.7689 75.8093 98.9432C77.6621 96.6826 79.3657 91.9042 80.7883 86.6492C84.6895 85.5823 93.083 83.0406 102.881 78.5143C103.799 78.0957 104.722 77.6538 105.664 77.1946Z" fill="#0F1124"/>
<path d="M109.479 63.3921C108.32 65.7556 106.265 69.215 102.968 72.5998C100.495 75.1407 97.3106 77.6367 93.2841 79.5815C89.761 80.9867 85.8257 82.3637 81.5978 83.5226C82.4699 79.9603 83.2153 76.3626 83.7947 73.3219C87.8966 72.1978 96.582 69.152 104.826 65.526C106.404 64.8321 107.97 64.1208 109.479 63.3921Z" fill="#0F1124"/>
<path d="M113.701 44.8279C113.018 48.1779 110.982 51.0868 108.056 52.8367L95.3948 60.403C95.3666 60.4204 95.3318 60.4378 95.3086 60.4552L95.171 60.5407L95.108 60.5812C95.0957 60.587 95.0906 60.587 95.0906 60.587L91.138 62.9505C91.8268 62.4456 102.87 54.1673 106.289 42.51C106.289 42.51 101.653 46.1244 93.8339 48.9754C97.4309 32.2123 82.6184 20.7332 82.6184 20.7332C82.6184 20.7332 83.5883 35.1328 68.707 47.237C68.707 47.237 71.839 30.09 57.5314 8.47397C43.2238 30.09 46.3507 47.237 46.3507 47.237C31.4695 35.1328 32.4386 20.7332 32.4386 20.7332C32.4386 20.7332 17.6319 32.2123 21.2289 48.9754C13.4099 46.1244 8.76838 42.51 8.76838 42.51C11.7004 52.4862 20.2134 59.9902 23.0361 62.2617C23.512 62.6405 23.8278 62.8759 23.9256 62.9505L7.00754 52.8367C4.08199 51.0868 2.03939 48.1779 1.35635 44.8279C0.410382 40.1639 -0.530513 32.9931 0.353164 25.2023C4.05881 29.3614 13.7597 35.8267 13.7597 35.8267C13.7597 35.8267 12.1249 25.4203 19.7492 18.4095C27.3792 11.3937 38.8235 7.3433 38.8235 7.3433C38.8235 7.3433 39.2886 11.1924 40.6887 15.2718C41.1305 16.5683 41.6694 17.888 42.3177 19.115C42.3865 19.2476 42.4611 19.3794 42.5299 19.5055C50.0506 6.46614 57.5314 8.7738e-05 57.5314 8.7738e-05C57.5314 8.7738e-05 65.0123 6.46614 72.5271 19.5055C75.3904 14.3823 76.2335 7.3433 76.2335 7.3433C76.2335 7.3433 87.6786 11.3937 95.3086 18.4095C102.939 25.4203 101.304 35.8267 101.304 35.8267C101.304 35.8267 111.004 29.3614 114.71 25.2023C115.593 32.9931 114.652 40.1639 113.701 44.8279Z" fill="#152E45"/>
<path d="M46.0158 61.3461C46.0158 61.3461 67.3588 86.6983 56.6685 106.971C61.9568 111.247 70.6154 102.737 70.6154 102.737L78.4569 82.374L81.5991 60.4972L46.0158 61.3461Z" fill="#0F1124"/>
<path d="M79.6992 64.676L79.663 64.3971L79.6499 64.2965L79.5934 64.211L79.4341 63.9669L79.2052 63.625L79.1204 63.4983L79.0408 63.4715L78.9973 63.4179L78.864 63.2513H78.6504H78.3809L74.2798 61.8845L73.0919 61.4883L72.6464 61.3398L72.5218 61.7925L72.1894 62.9999L71.7968 64.4247L71.4658 65.685L70.8175 68.1716L69.5231 73.1282L69.3551 73.7518C68.977 75.1483 68.5866 76.5933 68.1715 77.9855C67.6928 79.6036 67.2169 81.1769 66.6577 82.648C66.0384 84.2777 65.3945 85.785 64.7448 87.1272C64.3775 87.8964 63.9842 88.6497 63.6445 89.2951C63.5163 89.5131 63.3816 89.7507 63.2461 89.989C62.9709 90.4721 62.713 90.927 62.4334 91.3565C61.4998 92.861 60.5734 94.1314 59.5948 95.2498C59.4202 95.4548 59.2529 95.6366 59.0863 95.8184C58.9777 95.9372 58.8799 96.0429 58.7836 96.1501C58.7118 96.2182 58.622 96.3088 58.5315 96.3986C58.4366 96.4942 58.349 96.5768 58.2642 96.6564C58.1527 96.7622 58.044 96.865 57.9412 96.9708C56.9242 98.0247 54.7252 100.45 54.7034 100.475L54.1377 101.099L54.9714 101.215C54.9845 101.217 55.2981 101.26 55.8044 101.26C56.922 101.26 59.0972 101.048 61.113 99.6327C61.1941 99.5762 61.2796 99.5255 61.3658 99.4741L61.4425 99.4284L61.4795 99.406L61.4925 99.398L61.5056 99.3893L61.5403 99.3647C61.6555 99.2836 61.7714 99.2039 61.888 99.1235C62.1538 98.941 62.4139 98.762 62.6746 98.565L62.6804 98.5614L62.7 98.5462C62.8282 98.4433 62.9434 98.3528 63.0578 98.2623C63.3055 98.0674 63.554 97.8719 63.7944 97.6669L64.8208 96.7629L64.8454 96.7412L64.8874 96.7006C65.5357 96.0625 66.2064 95.4019 66.825 94.6906C68.1317 93.2608 69.229 91.7216 70.2178 90.273L70.2214 90.2679L70.2351 90.2469C71.3651 88.4802 72.243 86.9563 73.01 85.4359C74.8143 81.7498 76.0703 78.0847 76.9641 75.3019C77.4574 73.7757 77.9354 72.1539 78.4685 70.2004L78.604 69.6825C78.7815 69.0082 78.964 68.3121 79.1313 67.6146L79.4333 66.3391L79.5797 65.6756L79.6492 65.3591L79.6601 65.3076C79.6825 65.2077 79.7354 64.9701 79.6992 64.676Z" fill="#0F1124"/>
<path d="M79.6992 58.1069L79.6608 57.8165L79.647 57.7107L79.5891 57.6223L79.4218 57.3666L79.1835 57.0096L79.0951 56.8777L79.0118 56.8502L78.9662 56.7944L78.8271 56.6206H78.604H78.323L74.0429 55.1937L72.8029 54.7808L72.3386 54.6251L72.2082 55.0981L71.862 56.3577L71.452 57.8447L71.1072 59.1601L70.4307 61.7553L69.0798 66.927L68.9038 67.5775C68.5098 69.0355 68.1027 70.5429 67.6696 71.9958C67.1691 73.6843 66.6729 75.3263 66.0898 76.8619C65.4423 78.5619 64.7716 80.1351 64.0929 81.5359C63.7097 82.3385 63.299 83.1244 62.9448 83.798C62.8115 84.0255 62.6703 84.2732 62.529 84.5216C62.2422 85.0265 61.972 85.5009 61.6809 85.9493C60.7066 87.5189 59.7397 88.8451 58.7191 90.012C58.5366 90.2264 58.3627 90.4155 58.1882 90.6052C58.0744 90.7291 57.7036 91.1166 57.6094 91.2108C57.5095 91.3107 57.4189 91.3962 57.3306 91.4802C57.2139 91.5903 57.1002 91.6975 56.993 91.8083C55.9319 92.9071 53.6372 95.4394 53.614 95.4647L53.0244 96.1152L53.8944 96.2369C53.9081 96.239 54.2348 96.2839 54.7636 96.2839C55.9297 96.2839 58.199 96.063 60.3032 94.5861C60.3879 94.5267 60.4778 94.4738 60.5668 94.4202L60.6472 94.3724L60.6849 94.3493L60.6994 94.3406L60.7124 94.3312L60.7487 94.3058C60.8689 94.2211 60.9906 94.1385 61.1115 94.0545C61.3897 93.8632 61.6606 93.6771 61.9336 93.4714L61.938 93.4678L61.959 93.4518C62.093 93.3439 62.2125 93.2505 62.3328 93.1556C62.5913 92.952 62.8506 92.7478 63.1013 92.5348L64.1725 91.591L64.1986 91.5686L64.2421 91.5266C64.9186 90.8602 65.619 90.1714 66.2637 89.4282C67.6283 87.9368 68.772 86.3303 69.8049 84.8179L69.8085 84.8128L69.8223 84.7918C71.0015 82.9477 71.9185 81.357 72.7174 79.7708C74.6014 75.9246 75.9117 72.0994 76.8439 69.1963C77.3603 67.6028 77.8587 65.9108 78.4142 63.8718L78.5562 63.3307C78.7409 62.6274 78.9321 61.9009 79.106 61.173L79.421 59.8424L79.5739 59.1499L79.6463 58.8196L79.6579 58.766C79.6811 58.6617 79.7361 58.414 79.6992 58.1069Z" fill="#0F1124"/>
<path d="M53.0247 78.174H49.6341L45.3657 84.9914L49.6341 91.808H53.0247L48.7562 84.9914L53.0247 78.174Z" fill="white"/>
<path d="M62.0366 91.8081H65.4279L69.6949 84.9908L65.4279 78.1741H62.0366L66.3051 84.9908L62.0366 91.8081Z" fill="white"/>
<path d="M40.3327 146.231C34.1426 145.991 30.1617 141.98 30.1617 141.98C30.1617 141.98 30.2587 146.461 33.1901 151.802C30.4311 148.394 28.3081 144.172 27.6316 138.997C33.2538 143.386 37.7801 144.877 38.0612 144.964C37.6193 144.557 23.403 131.666 20.1732 122.556C17.9416 116.268 20.8099 110.376 20.8099 110.376C20.8099 110.376 25.899 117.106 31.2916 118.161C34.2635 118.747 37.7454 118.482 40.8549 117.967C38.8579 119.561 34.9285 122.252 30.1617 123.164C30.1617 130.811 34.9857 141.011 40.3327 146.231Z" fill="white"/>
<path d="M113.701 44.8278C113.018 48.1778 110.982 51.0867 108.056 52.8366L95.3948 60.403C97.3165 59.2216 107.619 52.6179 109.479 45.8541C111.526 38.3907 111.067 33.5667 111.067 33.5667C111.067 33.5667 103.719 39.3084 97.4027 42.0623C99.3641 34.1686 98.642 26.1655 91.5103 19.5517C84.7813 13.3095 79.0099 10.7685 79.0099 10.7685C79.0099 10.7685 77.433 27.4512 73.1414 36.7849C71.7188 18.1226 57.5315 3.25294 57.5315 3.25294C43.9069 17.1933 41.0501 33.6811 41.0501 33.6811C41.0501 33.6811 38.8533 27.7873 42.5299 19.5054C50.0506 6.46605 57.5315 -3.8147e-06 57.5315 -3.8147e-06C57.5315 -3.8147e-06 65.0123 6.46605 72.5272 19.5054C75.3904 14.3822 76.2335 7.34321 76.2335 7.34321C76.2335 7.34321 87.6786 11.3936 95.3087 18.4095C102.939 25.4202 101.304 35.8266 101.304 35.8266C101.304 35.8266 111.004 29.3613 114.71 25.2022C115.593 32.993 114.652 40.1638 113.701 44.8278Z" fill="#E51641"/>
<path d="M40.6886 15.2716C39.5927 14.2452 38.0209 12.5756 36.9192 10.5903C36.9192 10.5903 25.0214 15.4034 19.7266 26.2516C15.9862 33.9107 19.2442 45.0631 19.2442 45.0631C19.2442 45.0631 10.18 42.1716 3.14681 32.9009C3.14681 44.5923 9.52594 54.299 23.0361 62.2622C23.5127 62.6403 23.8278 62.8757 23.9255 62.9503L7.00747 52.8366C4.08191 51.0866 2.03932 48.1784 1.357 44.8277C0.410309 40.1638 -0.530591 32.9929 0.353086 25.2021C4.05874 29.3612 13.7596 35.8265 13.7596 35.8265C13.7596 35.8265 12.1248 25.4201 19.7491 18.4101C27.3791 11.3935 38.8242 7.34312 38.8242 7.34312C38.8242 7.34312 39.2885 11.1929 40.6886 15.2716Z" fill="#637996"/>
<path d="M80.4617 63.2599C80.4617 63.2599 76.4228 90.2519 71.1215 96.6882C65.4145 103.63 58.0134 106.538 57.5549 106.716C57.5375 106.722 57.5317 106.722 57.5317 106.722C57.5317 106.722 66.3547 99.8151 69.0456 93.189C71.7357 86.5629 76.977 65.1243 76.977 65.1243L61.811 63.2599H80.4617Z" fill="#E51641"/>
<path d="M38.3879 65.5493C38.3879 65.5493 41.79 91.5714 47.3775 100.274C46.2069 99.2239 45.043 98.0309 43.9355 96.6888C38.6406 90.2517 34.596 63.2597 34.596 63.2597H47.5042L38.3879 65.5493Z" fill="#637996"/>
<path d="M33.4601 83.5226C30.3738 82.6737 27.4417 81.7154 24.711 80.7057C20.0297 77.9178 17.1215 74.3439 17.1215 74.3439C17.1215 74.3439 21.4487 76.9624 27.0919 77.7519C18.9635 72.678 16.5652 68.1763 16.5652 68.1763C22.6235 70.5861 28.2167 72.4846 31.2683 73.3219C31.842 76.3626 32.5938 79.9603 33.4601 83.5226Z" fill="#637996"/>
<path d="M41.3598 101.261C39.3056 100.836 37.2977 100.349 35.3587 99.815C26.4039 96.0232 19.2381 88.4504 18.9629 88.1578C19.1983 88.2787 24.6713 91.0775 32.8975 92.2994C27.7924 90.1547 22.5085 84.0443 21.0395 82.2603C26.8798 84.5151 31.6183 85.9261 34.2686 86.649C35.6977 91.904 37.3955 96.6831 39.2541 98.943C39.9372 99.7687 40.6427 100.544 41.3598 101.261Z" fill="#637996"/>
<path d="M81.6034 83.5226C84.6897 82.6737 87.6218 81.7154 90.3518 80.7057C95.0331 77.9178 97.942 74.3439 97.942 74.3439C97.942 74.3439 93.6149 76.9624 87.9717 77.7519C96.1 72.678 98.4983 68.1763 98.4983 68.1763C92.44 70.5861 86.8468 72.4846 83.7945 73.3219C83.2208 76.3626 82.4697 79.9603 81.6034 83.5226Z" fill="#E51641"/>
<path d="M73.7036 101.261C75.7578 100.836 77.7649 100.349 79.7039 99.815C88.6595 96.0232 95.8252 88.4504 96.1005 88.1578C95.8651 88.2787 90.3921 91.0775 82.1659 92.2994C87.271 90.1547 92.5549 84.0443 94.0238 82.2603C88.1836 84.5151 83.4443 85.9261 80.7948 86.649C79.3657 91.904 77.6678 96.6831 75.8092 98.943C75.1262 99.7687 74.4207 100.544 73.7036 101.261Z" fill="#E51641"/>
<path d="M159.292 9.02148L208.923 77.9482C210.25 83.3841 211.582 88.8041 212.922 94.2068C214.266 99.6255 215.616 105.028 216.974 110.415C218.336 115.819 219.706 121.207 221.08 126.579C222.46 131.968 223.848 137.341 225.24 142.703L176.879 81.7015C175.371 75.6695 173.871 69.6242 172.379 63.5655C170.894 57.5282 169.416 51.4775 167.948 45.4108C166.486 39.3655 165.031 33.3068 163.586 27.2295C162.146 21.1775 160.715 15.1068 159.292 9.02148Z" fill="#0F1124"/>
<path d="M363.538 36.0408C362.156 36.0622 360.773 36.0835 359.39 36.1062C358.008 36.1275 356.624 36.1515 355.24 36.1755C355.12 38.0275 354.998 39.8848 354.877 41.7422C354.756 43.6048 354.634 45.4675 354.513 47.3342C354.392 49.2008 354.269 51.0702 354.148 52.9435C354.025 54.8168 353.904 56.6915 353.781 58.5688C355.176 58.5302 356.569 58.4915 357.964 58.4528C359.357 58.4142 360.75 58.3755 362.142 58.3382C363.536 58.2982 364.928 58.2608 366.321 58.2248C367.714 58.1862 369.108 58.1502 370.502 58.1142C370.614 56.2528 370.726 54.3928 370.838 52.5355C370.949 50.6795 371.061 48.8275 371.172 46.9768C371.284 45.1275 371.394 43.2808 371.505 41.4368C371.616 39.5942 371.726 37.7528 371.836 35.9142C370.452 35.9355 369.069 35.9568 367.686 35.9768C366.304 35.9982 364.921 36.0182 363.538 36.0408Z" fill="#152E45"/>
<path d="M568.159 68.8236C568.133 63.0716 568.109 57.3396 568.083 51.6289C568.059 45.9369 568.033 40.2663 568.009 34.6156C566.631 34.6129 565.249 34.6103 563.869 34.6089L559.729 34.6049C558.349 34.6049 556.967 34.6036 555.588 34.6036H551.448C551.441 40.2569 551.433 45.9289 551.425 51.6209C551.416 57.3329 551.408 63.0636 551.399 68.8143C551.389 74.5849 551.381 80.3756 551.372 86.1863C551.364 92.0183 551.355 97.8716 551.348 103.744H555.584C556.997 103.745 558.411 103.745 559.824 103.746C561.239 103.749 562.651 103.75 564.064 103.754C565.476 103.758 566.889 103.762 568.3 103.769C568.279 97.8929 568.255 92.0383 568.232 86.2036C568.207 80.3889 568.184 74.5956 568.159 68.8236Z" fill="#152E45"/>
<path d="M550.004 102.019H537.908C537.908 96.4454 537.93 90.8721 537.93 85.3441C537.93 79.8174 537.953 74.3121 537.953 68.8294C537.953 63.9041 537.977 59.0001 537.977 54.0987V52.4787C538 47.0667 538 41.6774 538 36.3134H549.818C551.114 36.3134 552.432 36.3134 553.75 36.3347C553.773 41.7014 553.797 47.0907 553.82 52.5014V54.1667C553.842 59.0241 553.865 63.9281 553.889 68.8294C553.912 74.3121 553.936 79.8174 553.958 85.3441C553.981 90.8947 554.004 96.4681 554.028 102.043C552.686 102.043 551.345 102.043 550.004 102.019ZM580.232 98.2254C580.116 88.4201 579.977 78.6587 579.862 68.9454C579.793 64.1121 579.722 59.3014 579.653 54.4907C579.608 49.7267 579.537 44.9627 579.469 40.2201C579.353 30.7627 579.237 21.3481 579.098 12.0041H512.582C512.49 21.3481 512.397 30.7387 512.281 40.1987C512.236 44.8707 512.189 49.5427 512.142 54.2361C512.096 59.0934 512.05 63.9961 511.981 68.9001C511.889 78.5907 511.796 88.3507 511.68 98.1574C511.588 108.033 511.472 117.955 511.38 127.945C513.924 127.923 516.468 127.899 518.989 127.877C521.533 127.853 524.077 127.829 526.621 127.829C529.142 127.807 531.686 127.807 534.23 127.784H541.838C545.077 127.784 548.314 127.784 551.553 127.807C554.768 127.807 558.006 127.829 561.244 127.853C564.458 127.877 567.697 127.899 570.934 127.945C574.172 127.969 577.386 128.015 580.625 128.061C580.486 118.047 580.37 108.101 580.232 98.2254Z" fill="white"/>
<path d="M503.817 12.0045C503.678 21.3485 503.562 30.7618 503.424 40.2205C503.377 44.9165 503.308 49.6352 503.238 54.3525C503.169 59.2085 503.1 64.0658 503.03 68.9698C502.914 78.6592 502.776 88.4205 502.637 98.2498C502.521 108.126 502.382 118.07 502.244 128.086C500.046 128.107 497.826 128.154 495.629 128.178C493.409 128.223 491.212 128.27 488.992 128.315C486.794 128.363 484.574 128.409 482.377 128.455C480.157 128.501 477.937 128.547 475.74 128.617C475.97 118.557 476.178 108.565 476.41 98.6432C476.641 88.7672 476.849 78.9605 477.081 69.2232C477.173 64.4138 477.289 59.6258 477.404 54.8618C477.497 50.0045 477.613 45.1712 477.729 40.3605C477.937 30.8552 478.145 21.3952 478.353 12.0045H503.817Z" fill="white"/>
<path d="M469.587 12.0045C469.541 14.0391 469.495 16.0765 469.425 18.1111L469.286 24.2165C469.218 26.2751 469.171 28.3098 469.125 30.3685C469.055 32.4271 469.009 34.4845 468.963 36.5431C465.517 36.5671 462.047 36.5898 458.602 36.6138C455.155 36.6365 451.709 36.6591 448.241 36.6831L437.902 36.7525C434.433 36.7991 430.986 36.8205 427.541 36.8445C427.31 42.3498 427.101 47.8538 426.87 53.3805C426.823 54.5151 426.778 55.6471 426.731 56.8045C426.569 61.2218 426.385 65.6391 426.222 70.0805C425.991 75.6991 425.759 81.3191 425.529 86.9858C425.321 92.6525 425.089 98.3418 424.858 104.054C426.199 104.008 427.541 103.962 428.882 103.916C430.223 103.868 431.587 103.823 432.929 103.776C434.271 103.731 435.613 103.684 436.954 103.662C438.295 103.615 439.637 103.57 440.978 103.523C441.047 101.764 441.094 100.007 441.163 98.2498C441.233 96.5151 441.279 94.7565 441.347 92.9991C441.418 91.2418 441.463 89.5071 441.533 87.7498C441.579 86.0151 441.649 84.2805 441.695 82.5458C441.117 82.5458 440.538 82.5685 439.961 82.5685C439.359 82.5911 438.781 82.5911 438.202 82.6151C437.602 82.6391 437.023 82.6391 436.445 82.6605C435.866 82.6605 435.265 82.6845 434.687 82.7071C434.757 80.5565 434.849 78.4285 434.919 76.2778C435.011 74.1498 435.081 72.0231 435.173 69.8951C435.242 67.7658 435.311 65.6618 435.405 63.5338C435.474 61.4285 435.543 59.3018 435.613 57.1978C438.365 57.1498 441.094 57.1285 443.823 57.0818C446.575 57.0351 449.305 56.9885 452.033 56.9658C454.762 56.9205 457.514 56.8965 460.243 56.8511C462.973 56.8271 465.702 56.7805 468.454 56.7565C468.293 62.6325 468.154 68.5525 467.991 74.4738C467.83 80.4178 467.691 86.4085 467.529 92.3978C467.39 98.4111 467.229 104.448 467.066 110.507C466.905 116.612 466.766 122.719 466.603 128.848C460.822 129.01 455.039 129.195 449.281 129.403C443.499 129.611 437.717 129.819 431.935 130.074C426.153 130.306 420.371 130.559 414.613 130.836C408.83 131.114 403.049 131.415 397.243 131.739C397.751 121.4 398.261 111.132 398.746 100.932C399.231 90.8031 399.718 80.7178 400.203 70.7271C400.411 66.5645 400.619 62.4005 400.805 58.2605C401.105 52.5018 401.383 46.7898 401.661 41.0778C402.123 31.3405 402.609 21.6258 403.071 12.0045H469.587Z" fill="white"/>
<path d="M662.419 55.9079C661.099 55.8839 659.778 55.8613 658.432 55.8386L654.468 55.7693C653.147 55.7453 651.826 55.7226 650.48 55.6999C649.16 55.6759 647.838 55.6533 646.516 55.6533C646.516 55.4439 646.494 55.2359 646.494 55.0266C646.424 53.5199 646.4 52.0133 646.332 50.5066C646.284 48.7906 646.216 47.0999 646.146 45.3826C646.1 43.6906 646.03 41.9759 645.984 40.2826C645.914 38.5919 645.868 36.8986 645.798 35.2066C647.119 35.2293 648.442 35.2293 649.763 35.2533C651.06 35.2533 652.382 35.2533 653.703 35.2759C655.024 35.2759 656.323 35.2986 657.644 35.2986C658.966 35.3226 660.264 35.3226 661.584 35.3453C661.655 37.0386 661.724 38.7533 661.794 40.4453C661.863 42.1599 661.932 43.8773 662.003 45.5919C662.071 47.3079 662.142 49.0226 662.211 50.7386C662.28 52.4079 662.35 54.0999 662.419 55.7919V55.9079ZM690.47 99.6053C689.983 89.4519 689.472 79.3439 688.986 69.3079C688.8 65.2959 688.592 61.2853 688.383 57.2986C688.106 51.3639 687.827 45.4759 687.526 39.5879C687.062 29.8053 686.575 20.0919 686.088 10.4252H619.416C619.671 19.8599 619.927 29.3413 620.159 38.8919C620.298 43.8999 620.414 48.9306 620.576 53.9839C620.67 58.6199 620.808 63.2573 620.924 67.9159C621.179 77.6986 621.434 87.5506 621.688 97.4733C621.944 107.441 622.223 117.48 622.478 127.587C624.679 127.656 626.904 127.725 629.108 127.795C631.334 127.865 633.558 127.935 635.76 128.004C637.986 128.073 640.188 128.165 642.414 128.236C644.615 128.328 646.84 128.397 649.066 128.491C648.928 124.503 648.788 120.516 648.65 116.529C648.51 112.564 648.371 108.601 648.232 104.636C648.094 100.696 647.954 96.7773 647.815 92.8599C647.675 88.9413 647.536 85.0466 647.398 81.1533C648.742 81.1759 650.087 81.2226 651.431 81.2453C652.752 81.2693 654.098 81.3159 655.442 81.3386C656.763 81.3839 658.108 81.4079 659.451 81.4546C660.774 81.4773 662.118 81.5239 663.462 81.5466C663.624 85.4653 663.764 89.3826 663.927 93.3239C664.088 97.2653 664.251 101.228 664.414 105.193C664.575 109.157 664.715 113.144 664.878 117.132C665.039 121.143 665.202 125.153 665.363 129.185C667.59 129.279 669.815 129.372 672.016 129.488C674.242 129.58 676.467 129.696 678.67 129.812C680.895 129.928 683.12 130.044 685.323 130.159C687.55 130.275 689.775 130.391 692 130.507C691.49 120.145 690.979 109.852 690.47 99.6053Z" fill="white"/>
<path d="M770.864 136.025C765.046 135.538 759.227 135.052 753.432 134.61C747.614 134.146 741.794 133.706 735.999 133.289C730.18 132.872 724.386 132.478 718.566 132.108C712.771 131.736 706.975 131.365 701.156 131.017C700.623 120.608 700.09 110.27 699.558 99.9998C699.023 89.7998 698.491 79.6465 697.956 69.5611C697.748 65.6451 697.563 61.7505 697.354 57.8785C697.054 51.8051 696.728 45.7305 696.404 39.7038C695.894 29.8971 695.407 20.1145 694.896 10.4251H720.396C720.86 18.1211 721.347 25.8638 721.811 33.6531C722.275 41.4651 722.762 49.3251 723.248 57.2291C723.295 58.0638 723.34 58.8985 723.411 59.7558C723.806 66.8491 724.246 73.9905 724.686 81.1531C725.172 89.2198 725.66 97.3331 726.17 105.47C727.514 105.541 728.859 105.609 730.203 105.68C731.571 105.773 732.915 105.841 734.26 105.912C735.606 105.981 736.948 106.073 738.318 106.144C739.662 106.213 741.006 106.305 742.374 106.376C742.258 104.729 742.142 103.084 742.05 101.437L741.702 96.4985C741.61 94.8771 741.494 93.2305 741.4 91.6078C741.284 89.9625 741.17 88.3385 741.075 86.7171C743.255 86.8091 745.434 86.9025 747.636 87.0185C749.815 87.1105 751.995 87.2265 754.196 87.3425C756.376 87.4358 758.555 87.5518 760.758 87.6665C762.936 87.7825 765.139 87.8758 767.318 87.9918C767.619 91.9558 767.896 95.8958 768.199 99.8611C768.5 103.848 768.779 107.834 769.079 111.822C769.382 115.833 769.682 119.844 769.984 123.877C770.262 127.91 770.563 131.968 770.864 136.025Z" fill="white"/>
<path d="M319.023 12.0045C318.838 14.1791 318.677 16.3751 318.515 18.5498C318.33 20.7485 318.167 22.9445 318.006 25.1418C317.843 27.3391 317.659 29.5351 317.497 31.7551C317.335 33.9538 317.173 36.1738 316.989 38.3938C313.542 38.4631 310.073 38.5325 306.627 38.5791C303.158 38.6485 299.711 38.7178 296.243 38.7871C292.797 38.8565 289.327 38.9258 285.881 38.9951C282.435 39.0645 278.966 39.1565 275.519 39.2271C275.334 41.0778 275.173 42.9498 275.011 44.8231C274.849 46.6738 274.663 48.5471 274.502 50.4205C274.339 52.2938 274.178 54.1911 273.994 56.0645C273.831 57.9365 273.669 59.8338 273.507 61.7071C276.977 61.5685 280.469 61.4285 283.962 61.2911C287.454 61.1751 290.923 61.0365 294.415 60.8978C297.907 60.7818 301.377 60.6431 304.869 60.5285C308.361 60.4125 311.83 60.2965 315.323 60.1805C315.185 61.9378 315.046 63.7191 314.93 65.5005C314.883 65.9631 314.837 66.4485 314.814 66.9338C314.629 69.2005 314.467 71.4671 314.282 73.7338C314.121 76.0005 313.935 78.2671 313.773 80.5325C313.589 82.8231 313.403 85.1125 313.242 87.3791C309.726 87.5645 306.211 87.7725 302.671 87.9578C299.157 88.1431 295.641 88.3511 292.126 88.5591C288.587 88.7671 285.071 88.9765 281.555 89.1831C278.018 89.3911 274.502 89.5991 270.963 89.8311C270.801 91.7511 270.617 93.6698 270.454 95.5898C270.293 97.5325 270.107 99.4525 269.946 101.395C269.761 103.338 269.599 105.256 269.414 107.199C269.229 109.143 269.067 111.108 268.882 113.051C272.443 112.774 276.005 112.474 279.567 112.196C283.106 111.942 286.667 111.663 290.229 111.41C293.767 111.132 297.329 110.876 300.867 110.623C304.43 110.368 307.967 110.114 311.53 109.883C311.345 112.196 311.161 114.532 310.998 116.867C310.813 119.18 310.629 121.539 310.443 123.875C310.281 126.211 310.097 128.571 309.911 130.907C309.726 133.264 309.565 135.624 309.379 137.983C303.551 138.492 297.746 139.024 291.941 139.556C286.135 140.111 280.307 140.666 274.502 141.267C268.674 141.846 262.846 142.447 257.018 143.072C251.189 143.696 245.361 144.344 239.533 145.015C240.642 133.496 241.775 122.048 242.862 110.692C243.973 99.4058 245.059 88.2111 246.147 77.0885C246.239 76.1391 246.331 75.1911 246.425 74.2431C247.395 64.1578 248.39 54.1431 249.338 44.1991C250.403 33.3991 251.443 22.6671 252.485 12.0045H319.023Z" fill="white"/>
<path d="M850.1 143.907C844.259 143.233 838.393 142.585 832.552 141.959C826.709 141.333 820.891 140.731 815.049 140.128C809.207 139.525 803.389 138.969 797.547 138.412C791.728 137.856 785.909 137.324 780.091 136.813C779.233 125.893 778.399 115.021 777.587 104.243C776.752 93.5546 775.941 82.9146 775.129 72.3439C774.921 69.6772 774.713 66.9892 774.504 64.3226C773.901 56.5346 773.297 48.7906 772.719 41.0719C771.907 30.8026 771.143 20.5786 770.353 10.4252H837.025C837.257 12.7199 837.489 15.0385 837.721 17.3559C837.929 19.6745 838.161 21.9919 838.393 24.3119C838.625 26.6532 838.856 28.9706 839.067 31.3119C839.297 33.6532 839.529 35.9946 839.761 38.3359C836.284 38.2439 832.829 38.1732 829.352 38.0812C825.899 38.0119 822.42 37.9186 818.967 37.8492C815.489 37.7785 812.035 37.6865 808.559 37.6172C805.104 37.5465 801.628 37.4786 798.173 37.4092C798.336 39.2399 798.473 41.0946 798.636 42.9492C798.799 44.7799 798.961 46.6345 799.1 48.4892C799.263 50.3679 799.424 52.2212 799.587 54.0772C799.749 55.9319 799.911 57.8092 800.051 59.6866C803.551 59.8026 807.052 59.9412 810.552 60.0812C814.029 60.2186 817.529 60.3586 821.029 60.4972C824.531 60.6599 828.031 60.7999 831.531 60.9372C835.009 61.1012 838.509 61.2399 842.011 61.4012C842.241 63.7665 842.473 66.1546 842.705 68.5426C842.821 69.7932 842.961 71.0226 843.076 72.2519C843.192 73.4106 843.308 74.5932 843.424 75.7519C843.656 78.1399 843.888 80.5492 844.12 82.9612C844.375 85.3946 844.607 87.8066 844.839 90.2399C841.315 89.9852 837.768 89.7532 834.221 89.5212C830.696 89.2892 827.151 89.0572 823.627 88.8252C820.079 88.5946 816.556 88.3852 813.032 88.1772C809.485 87.9452 805.961 87.7359 802.439 87.5279C802.6 89.4292 802.763 91.3292 802.925 93.2546C803.087 95.1559 803.249 97.0786 803.411 99.0026C803.573 100.904 803.737 102.828 803.899 104.752C804.061 106.676 804.224 108.624 804.385 110.547C807.956 110.825 811.503 111.104 815.072 111.381C818.641 111.66 822.188 111.937 825.759 112.24C829.329 112.541 832.9 112.843 836.469 113.144C840.039 113.445 843.609 113.769 847.18 114.071C847.411 116.552 847.643 119.009 847.899 121.491C848.129 123.947 848.385 126.428 848.617 128.932C848.872 131.412 849.104 133.892 849.357 136.395C849.589 138.899 849.845 141.403 850.1 143.907Z" fill="white"/>
<path d="M350.501 53.7507C350.617 51.9707 350.733 50.1893 350.847 48.408C350.963 46.6507 351.079 44.8707 351.195 43.0893C351.31 41.332 351.426 39.5733 351.542 37.816C352.861 37.792 354.178 37.7707 355.497 37.7467C356.791 37.7227 358.11 37.7 359.429 37.6773C360.747 37.6547 362.065 37.6307 363.361 37.6307L367.315 37.5613C367.199 39.32 367.107 41.0547 366.991 42.812C366.898 44.5693 366.783 46.328 366.691 48.0853C366.575 49.8427 366.482 51.6 366.366 53.3573C366.251 55.1147 366.159 56.896 366.043 58.6547C364.725 58.7013 363.406 58.7227 362.065 58.7707C360.747 58.7933 359.429 58.8387 358.11 58.8627C356.769 58.908 355.45 58.932 354.133 58.9787C352.814 59.024 351.473 59.048 350.154 59.0933C350.27 57.3133 350.386 55.532 350.501 53.7507ZM327.766 12.004C327.026 22.0653 326.286 32.172 325.546 42.372C324.991 49.7267 324.458 57.128 323.903 64.552C323.695 67.4653 323.465 70.4027 323.255 73.34C322.493 83.7947 321.706 94.34 320.943 104.933C320.157 115.619 319.347 126.373 318.561 137.197C320.781 137.012 323.001 136.828 325.222 136.643C327.442 136.457 329.663 136.272 331.883 136.111C334.103 135.925 336.323 135.764 338.543 135.579C340.741 135.416 342.961 135.255 345.182 135.093C345.459 130.907 345.737 126.743 346.014 122.58C346.269 118.441 346.546 114.324 346.823 110.184C347.078 106.091 347.355 101.973 347.633 97.9027C347.887 93.8093 348.142 89.7387 348.419 85.6907C349.761 85.6213 351.102 85.5747 352.421 85.5053C353.762 85.46 355.103 85.3893 356.445 85.344C357.763 85.2747 359.105 85.228 360.446 85.16C361.787 85.112 363.129 85.0667 364.447 84.9973C364.215 89.0213 363.962 93.0467 363.73 97.0933C363.475 101.14 363.245 105.212 362.99 109.281C362.758 113.352 362.505 117.445 362.25 121.563C362.019 125.657 361.765 129.796 361.51 133.937C363.73 133.775 365.95 133.636 368.17 133.473C370.367 133.335 372.587 133.196 374.809 133.057C377.029 132.919 379.25 132.779 381.446 132.641C383.667 132.501 385.887 132.364 388.107 132.248C388.293 128.316 388.501 124.385 388.709 120.476C388.917 116.567 389.102 112.681 389.31 108.796C389.518 104.933 389.703 101.071 389.911 97.2093C390.097 93.3693 390.305 89.5307 390.49 85.6907C389.357 84.5107 388.199 83.332 387.043 82.1533C385.91 80.9733 384.753 79.7933 383.621 78.6133C382.465 77.4347 381.307 76.2307 380.174 75.0533C379.041 73.8733 377.885 72.6933 376.751 71.5133C378.023 70.2187 379.318 68.9453 380.59 67.6973C381.862 66.4253 383.135 65.1533 384.407 63.904C385.678 62.632 386.95 61.384 388.223 60.1347C388.593 59.7653 388.986 59.372 389.379 58.9787C390.258 58.1213 391.137 57.2667 392.015 56.388C392.201 52.6413 392.409 48.8933 392.594 45.1707C392.779 41.4467 392.965 37.7467 393.171 34.0467C393.358 30.3453 393.542 26.668 393.727 22.9907C393.935 19.3133 394.121 15.66 394.306 12.004H327.766Z" fill="white"/>
<path d="M257.355 84.317L264.124 75.4437C259.329 76.105 254.559 76.7823 249.827 77.4783L248.783 88.1837C248.043 95.7703 247.299 103.392 246.545 111.054C245.944 117.338 245.327 123.658 244.709 130.004C244.503 132.114 244.297 134.233 244.091 136.348L256.656 124.496L250.035 140.118C252.231 139.876 254.427 139.628 256.623 139.393C262.461 138.766 268.299 138.165 274.136 137.585C279.684 137.012 285.268 136.477 290.832 135.945L291.588 135.873C296.371 135.434 301.141 134.997 305.925 134.572C305.935 134.444 305.944 134.313 305.953 134.182C306.041 132.994 306.129 131.805 306.221 130.617C306.407 128.289 306.591 125.944 306.751 123.62L306.941 121.208L307.309 116.572C307.372 115.674 307.439 114.769 307.507 113.862C305.619 113.994 303.732 114.128 301.84 114.264L301.132 114.314L300.477 114.361C297.163 114.6 293.831 114.84 290.519 115.098C288.652 115.233 286.812 115.369 284.973 115.508C283.256 115.636 281.541 115.764 279.832 115.888C278.077 116.024 276.3 116.168 274.524 116.312C272.739 116.456 270.955 116.602 269.169 116.74L264.78 117.082L265.197 112.701C265.289 111.737 265.376 110.768 265.461 109.798C265.549 108.813 265.636 107.829 265.729 106.849C265.823 105.882 265.908 104.92 265.995 103.958C266.081 102.989 266.169 102.02 266.261 101.044C266.34 100.108 266.427 99.133 266.515 98.1597C266.601 97.2023 266.687 96.245 266.767 95.2823C266.849 94.313 266.936 93.3477 267.023 92.3837C267.109 91.429 267.196 90.4743 267.276 89.5197L267.544 86.345L270.721 86.1383C274.269 85.9063 277.792 85.697 281.339 85.489L282.212 85.4383L291.908 84.865C295.468 84.6543 298.972 84.4477 302.477 84.2623C304.287 84.1677 306.088 84.0677 307.887 83.9663C308.523 83.9303 309.16 83.8957 309.796 83.8597C309.888 82.669 309.985 81.4743 310.081 80.2797C310.164 79.1303 310.251 77.9903 310.339 76.8503C310.424 75.725 310.511 74.597 310.591 73.4703C310.685 72.309 310.772 71.185 310.857 70.0623C310.868 69.9277 310.879 69.793 310.888 69.6597C299.832 70.8703 288.829 72.193 277.929 73.6037L257.355 84.317Z" fill="#637996"/>
<path d="M385.451 111.768C385.506 110.712 385.558 109.654 385.615 108.598C385.718 106.677 385.815 104.756 385.914 102.834C386.013 100.893 386.111 98.9515 386.217 97.0102C386.309 95.1009 386.407 93.1715 386.506 91.2395C386.577 89.8635 386.646 88.4875 386.715 87.1102C385.957 86.3302 385.19 85.5489 384.425 84.7675C383.813 84.1302 383.245 83.5462 382.677 82.9609C382.099 82.3662 381.523 81.7715 380.951 81.1782C379.813 80.0169 378.647 78.8035 377.506 77.6155C376.943 77.0302 376.375 76.4449 375.807 75.8595C375.23 75.2662 374.654 74.6715 374.083 74.0769L371.593 71.4849L374.111 68.9195C375.399 67.6089 376.71 66.3209 377.998 65.0569C378.558 64.4969 379.118 63.9369 379.677 63.3795C361.715 64.7035 344.175 66.2262 327.367 67.9195C327.339 68.2942 327.311 68.6689 327.283 69.0422C327.17 70.5609 327.055 72.0809 326.947 73.6022L326.353 81.7062L340.507 99.5169L325.686 90.8129C325.334 95.6009 324.981 100.389 324.634 105.2L323.711 117.676C323.329 122.817 322.946 127.976 322.567 133.15L324.915 132.956C327.154 132.768 329.385 132.582 331.614 132.42C332.689 132.33 333.801 132.242 334.914 132.156C336.021 132.07 337.129 131.982 338.237 131.89L341.702 131.637L342.322 122.334C342.559 118.472 342.818 114.612 343.078 110.734L343.131 109.936C343.386 105.853 343.663 101.729 343.942 97.6502C344.195 93.5715 344.45 89.4929 344.729 85.4382L344.953 82.1649L348.229 81.9955C348.895 81.9609 349.562 81.9315 350.226 81.9035C350.895 81.8742 351.565 81.8462 352.227 81.8102C352.951 81.7849 353.61 81.7569 354.267 81.7289C354.951 81.6982 355.634 81.6702 356.318 81.6462C356.937 81.6129 357.63 81.5822 358.325 81.5529C358.967 81.5235 359.611 81.4969 360.255 81.4622C361.655 81.4142 362.965 81.3689 364.253 81.3009L368.379 81.0835L368.142 85.2089C368.03 87.1595 367.913 89.1102 367.794 91.0649C367.67 93.1395 367.543 95.2195 367.425 97.3035C367.293 99.4089 367.167 101.5 367.042 103.593C366.925 105.565 366.807 107.538 366.683 109.513C366.467 113.313 366.23 117.156 365.991 121.017L365.943 121.792C365.791 124.489 365.627 127.217 365.462 129.954C366.275 129.898 367.089 129.842 367.902 129.784L374.578 129.364L381.213 128.948C382.334 128.878 383.453 128.808 384.573 128.74C384.714 125.913 384.863 123.09 385.013 120.28C385.017 120.213 385.021 120.148 385.023 120.081L368.723 107.566L385.451 111.768Z" fill="#637996"/>
<path d="M464.141 80.2493C464.19 78.288 464.239 76.3253 464.293 74.3733C464.371 71.4893 464.445 68.6067 464.518 65.728C464.562 63.984 464.607 62.24 464.651 60.5C464.555 60.5014 464.458 60.5027 464.362 60.504C462.998 60.5213 461.637 60.54 460.275 60.5507C458.941 60.5733 457.567 60.5907 456.195 60.6093C454.827 60.6254 453.458 60.6427 452.095 60.6653C449.406 60.6893 446.749 60.7333 444.069 60.7773L443.885 60.7813C442.502 60.8054 441.121 60.8227 439.734 60.84C439.555 60.8413 439.375 60.844 439.195 60.8467L439.102 63.656C439.009 65.8093 438.941 67.9 438.871 70.0147C438.825 71.1093 438.783 72.1627 438.743 73.216C438.703 74.2893 438.662 75.364 438.615 76.4387C438.59 77.244 438.559 78.0707 438.529 78.9013C438.687 78.8973 438.847 78.8947 439.007 78.8907C439.275 78.8867 439.543 78.8827 439.818 78.8707L439.89 78.868H439.961C440.225 78.868 440.489 78.8627 440.753 78.8573C441.067 78.8507 441.381 78.844 441.695 78.844H445.495L445.394 82.644C445.37 83.5227 445.341 84.4 445.311 85.2787C445.283 86.1347 445.255 86.992 445.231 87.848C445.197 88.7667 445.167 89.6307 445.139 90.496C445.11 91.3773 445.081 92.2587 445.046 93.1453C445.011 94.004 444.983 94.864 444.955 95.7213C444.926 96.616 444.895 97.5093 444.861 98.3973C444.826 99.2667 444.798 100.137 444.769 101.007C444.739 101.895 444.71 102.781 444.675 103.668L444.539 107.103L441.106 107.221L439.054 107.292L437.082 107.36C435.697 107.385 434.377 107.431 433.057 107.476L430.865 107.551L429.009 107.613L424.985 107.753L420.999 107.889L421.161 103.905L421.193 103.123C421.413 97.6773 421.633 92.2533 421.831 86.8507L422.525 69.928C422.607 67.6787 422.695 65.4187 422.783 63.1613C422.817 62.3387 422.849 61.5173 422.881 60.696C416.617 61.008 410.411 61.3587 404.349 61.7413C404.205 64.792 404.053 67.852 403.899 70.912C403.414 80.8974 402.927 90.98 402.442 101.111C402.281 104.501 402.11 107.939 401.943 111.345L407.949 106.665L403.913 116.516L417.509 111.703C417.509 111.703 408.162 123.259 404.311 127.657C407.689 127.48 411.063 127.303 414.434 127.141C420.202 126.863 425.995 126.608 431.787 126.376C437.563 126.121 443.357 125.913 449.147 125.705C453.753 125.539 458.371 125.388 462.995 125.249C463.042 123.393 463.087 121.541 463.133 119.688C463.209 116.593 463.285 113.5 463.367 110.409L463.381 109.925C463.538 104.032 463.695 98.1627 463.83 92.3133C463.847 91.648 463.863 90.9907 463.881 90.328L447.102 72.2947L464.141 80.2493Z" fill="#637996"/>
<path d="M498.728 114.183C498.8 108.851 498.874 103.499 498.937 98.2069L498.954 96.9763C499.088 87.5616 499.22 78.2109 499.33 68.9256L499.484 58.1069C493.894 58.1936 487.885 58.3136 481.018 58.4763C480.933 62.0683 480.85 65.6749 480.781 69.2949C480.657 74.4883 480.541 79.6869 480.424 84.9043C480.321 89.4963 480.218 94.1056 480.109 98.7296C479.986 104.015 479.869 109.32 479.753 114.646C479.678 118.027 479.604 121.418 479.528 124.815C480.45 124.794 481.374 124.774 482.3 124.755L485.05 124.698L488.914 124.616L492.658 124.539L492.948 124.532L485.941 94.6136L498.728 114.183Z" fill="#637996"/>
<path d="M576.34 83.0566C576.279 78.358 576.217 73.6687 576.161 68.99L576.005 58.1273C570.54 58.0353 564.623 57.9633 557.537 57.8993L557.589 68.7847L557.659 85.3286L557.728 102.027L557.744 105.743H554.028C552.665 105.743 551.303 105.743 549.94 105.719H537.908H534.207V102.019C534.207 99.2246 534.213 96.4286 534.219 93.6393C534.225 90.866 534.231 88.0993 534.231 85.3446C534.231 82.5726 534.236 79.806 534.243 77.0447C534.248 74.302 534.253 71.5633 534.253 68.83C534.253 66.362 534.259 63.8993 534.265 61.438C534.268 60.2246 534.271 59.0126 534.273 57.8007C528.075 57.8073 521.888 57.8393 515.809 57.8993C515.773 61.57 515.733 65.2607 515.681 68.9527L515.675 69.594C515.585 79.0713 515.493 88.614 515.381 98.2006C515.336 103.019 515.284 107.858 515.233 112.71C515.213 114.649 515.195 116.597 515.173 118.541L529.964 108.007L519.911 124.17C522.165 124.15 524.397 124.13 526.621 124.13C527.857 124.118 529.132 124.113 530.411 124.106C531.671 124.101 532.933 124.095 534.197 124.085H541.84C545.087 124.085 548.333 124.085 551.58 124.107H551.599C554.789 124.107 558.031 124.13 561.271 124.153C564.501 124.177 567.745 124.199 570.987 124.246C572.947 124.259 574.908 124.282 576.873 124.307C576.825 120.767 576.781 117.235 576.736 113.711C576.669 108.547 576.604 103.405 576.532 98.278C576.508 96.2406 576.48 94.218 576.455 92.186C572.68 88.6313 563.105 79.6766 561.829 79.1313C560.399 78.5166 573.635 82.2846 576.34 83.0566Z" fill="#637996"/>
<path d="M685.928 82.6735L685.281 69.4868C685.147 66.5842 685.001 63.6855 684.851 60.7962C676.725 60.2962 669.292 59.8682 662.224 59.4962L657.471 59.2615C653.781 59.0788 650.068 58.8948 646.333 58.7322C643.516 58.6015 640.656 58.4801 637.795 58.3602C651.171 64.0402 682.163 77.6402 682.163 77.6402L624.512 63.2588L624.632 67.8228L625.397 97.3775C625.513 101.964 625.636 106.564 625.759 111.179C625.872 115.436 625.985 119.705 626.096 123.988L629.224 124.088L635.877 124.296C636.999 124.331 638.115 124.372 639.231 124.413C640.328 124.453 641.425 124.493 642.529 124.528C643.441 124.567 644.333 124.599 645.221 124.632L645.151 122.639L644.945 116.739L627.504 103.401C627.504 103.401 640.607 106.893 644.641 108.085L644.525 104.765L644.109 93.0055L643.691 81.2855L643.552 77.3762L647.461 77.4442C648.144 77.4562 648.827 77.4748 649.509 77.4908C650.172 77.5082 650.833 77.5255 651.495 77.5362C652.159 77.5482 652.827 77.5655 653.499 77.5842C654.165 77.6002 654.836 77.6188 655.507 77.6295C656.228 77.6535 656.889 77.6722 657.555 77.6895C658.228 77.7055 658.903 77.7242 659.58 77.7482C660.179 77.7562 660.847 77.7748 661.519 77.7922C662.185 77.8095 662.856 77.8268 663.527 77.8388L667.023 77.8988L667.169 81.3935C667.251 83.3948 667.328 85.3975 667.405 87.4028C667.479 89.3215 667.553 91.2442 667.632 93.1708L668.12 105.04C668.201 107.063 668.279 109.089 668.355 111.121C668.429 113.072 668.504 115.027 668.583 116.98L668.932 125.625C670.032 125.675 671.124 125.725 672.212 125.783C674.409 125.873 676.649 125.991 678.864 126.108L685.517 126.456L688.093 126.591C687.651 117.611 687.208 108.683 686.765 99.7908C686.491 94.0642 686.209 88.3602 685.928 82.6735Z" fill="#637996"/>
<path d="M766.634 129.024C766.515 127.392 766.395 125.757 766.283 124.132L765.382 112.101C765.23 110.105 765.085 108.106 764.939 106.109C764.795 104.12 764.651 102.13 764.499 100.14C764.349 98.1572 764.205 96.1772 764.059 94.1985C763.995 93.3105 763.93 92.4225 763.863 91.5345H763.85C762.751 91.4812 761.654 91.4291 760.561 91.3718L760.23 91.3531C758.154 91.2438 756.097 91.1358 754.039 91.0491L753.67 91.0292C751.594 90.9198 749.537 90.8118 747.479 90.7225C746.662 90.6812 745.851 90.6412 745.049 90.6038C745.057 90.7438 745.067 90.8838 745.078 91.0225L745.101 91.3478C745.15 92.1972 745.201 93.0012 745.253 93.8078C745.305 94.6371 745.358 95.4652 745.405 96.2878L745.75 101.176C745.843 102.845 745.958 104.461 746.071 106.078L746.366 110.256L742.186 110.08C741.47 110.044 740.761 110 740.054 109.957C739.41 109.92 738.769 109.881 738.125 109.846C737.411 109.81 736.701 109.769 735.993 109.725C735.349 109.686 734.71 109.649 734.069 109.614C732.687 109.544 731.331 109.473 729.953 109.381L728.218 109.29L725.978 109.174L722.675 109.004L722.469 105.702C722.297 102.964 722.135 100.248 721.967 97.5145L708.777 81.2825L721.461 89.2118C721.355 87.4812 721.247 85.7358 721.143 84.0078L720.985 81.3772L720.941 80.6852C720.582 74.8398 720.223 69.0105 719.891 63.2105C713.813 62.7545 707.578 62.3038 701.277 61.8665C701.31 62.5198 701.343 63.1731 701.377 63.8291C701.47 65.6692 701.562 67.5145 701.662 69.3652C702.195 79.4505 702.727 89.6065 703.262 99.8065C703.738 108.988 704.215 118.224 704.691 127.514C709.377 127.802 714.05 128.101 718.722 128.4C724.63 128.776 730.437 129.17 736.265 129.589C742.07 130.006 747.898 130.448 753.726 130.913C754.229 130.95 754.737 130.996 755.239 131.034L741.191 116.736L766.634 129.024Z" fill="#637996"/>
<path d="M845.316 133.218C845.188 131.912 845.061 130.611 844.927 129.31C844.796 127.902 844.663 126.536 844.528 125.179C844.419 124.06 844.309 122.947 844.205 121.838C844.192 121.719 844.181 121.6 844.171 121.482C838.655 122.424 820.583 125.484 819.957 125.227C819.364 124.98 833.235 119.26 838.631 117.054C837.807 116.982 836.981 116.91 836.157 116.84L828.985 116.235L825.448 115.935C821.885 115.634 818.345 115.356 814.784 115.079L809.44 114.663L804.097 114.246L800.955 114L800.689 110.859L800.447 107.959L800.203 105.064L799.716 99.3178L799.229 93.5698L798.748 87.9112L798.384 83.6378L802.657 83.8258C806.188 84.0338 809.72 84.2445 813.275 84.4752C816.788 84.6845 820.316 84.8925 823.868 85.1258L829.121 85.4685L834.464 85.8205C836.567 85.9578 838.651 86.0938 840.724 86.2352C840.628 85.2738 840.531 84.3125 840.431 83.3485L840.388 82.9098L839.913 77.9938H807.132L825.917 73.8018C810.26 71.8645 794.403 70.0738 778.547 68.4592L778.828 72.0552L779.344 78.7792C779.984 87.1338 780.627 95.5285 781.285 103.954C781.925 112.459 782.585 121.032 783.253 129.623L800.351 121.21L792.579 134.228C794.352 134.394 796.125 134.55 797.899 134.72C803.749 135.278 809.577 135.835 815.429 136.438C821.277 137.042 827.1 137.644 832.947 138.271C837.275 138.735 841.615 139.211 845.949 139.699C845.851 138.712 845.756 137.724 845.665 136.738C845.547 135.582 845.431 134.399 845.316 133.218Z" fill="#637996"/>
<path d="M223.325 58.7051C220.231 65.2371 217.137 71.8477 214.017 78.4864C214.069 78.6717 214.122 78.8557 214.175 79.0411C215.841 85.2557 217.534 91.4451 219.226 97.6317C220.971 104.006 222.717 110.38 224.489 116.726C226.261 123.125 228.031 129.472 229.83 135.845C231.629 142.218 233.427 148.592 235.251 154.938C231.783 155.024 204.251 154.35 200.509 154.421C200.509 154.421 191.114 132.09 190.481 129.605C189.238 132.301 180.133 152.204 178.89 155.008C175.797 155.43 141.61 167.289 138.515 167.737C141.901 160.148 145.259 152.637 148.618 145.206C151.95 137.802 155.255 130.477 158.561 123.232C161.841 116.01 165.119 108.845 168.373 101.785C170.778 96.5211 173.186 91.3117 175.565 86.1557C176.385 84.3837 177.205 82.6117 178.025 80.8397C176.385 74.2824 174.771 67.7237 173.131 61.1384C171.519 54.5797 169.933 47.9957 168.319 41.4104C166.733 34.8517 165.146 28.2677 163.586 21.6557C162.025 15.0704 160.465 8.4864 158.931 1.87573L194.499 14.7291C195.107 17.1624 200.821 28.6117 201.455 31.0437C202.645 28.5837 209.134 16.4611 210.27 14.0811L250.483 1.87573C247.522 7.98373 244.534 14.1731 241.546 20.4131C238.53 26.6544 235.517 32.9744 232.474 39.3464C229.434 45.7464 226.393 52.1997 223.325 58.7051Z" fill="white"/>
<path d="M201.424 125.811L220.4 150.731C218.632 150.945 206.547 149.821 203.638 149.749L191.624 116.993L186.644 127.828C185.822 129.596 185.036 131.344 184.234 133.095L182.912 135.987C182.912 135.987 176.504 149.963 175.576 152.035L145.515 162.443C147.835 157.247 150.155 152.069 152.476 146.947C155.796 139.539 159.099 132.22 162.42 124.991C165.686 117.76 168.971 110.601 172.22 103.551C174.326 98.9452 176.415 94.3932 178.504 89.8945C181.091 89.3772 183.663 88.8772 186.215 88.3945C188.428 91.5718 192.106 93.6425 196.266 93.6425C201.995 93.6425 206.798 89.6972 208.119 84.3785C209.1 84.1998 210.1 84.0385 211.099 83.8598C212.42 88.7865 213.759 93.7145 215.116 98.6225L215.17 98.8545C216.919 105.192 218.651 111.548 220.418 117.849C222.186 124.257 223.952 130.613 225.756 136.985C226.863 140.931 227.987 144.857 229.094 148.785L201.424 125.811Z" fill="#637996"/>
<path d="M204.443 81.4094C204.443 76.8881 200.779 73.2241 196.259 73.2241C191.739 73.2241 188.075 76.8881 188.075 81.4094C188.075 85.9294 191.739 89.5934 196.259 89.5934C200.779 89.5934 204.443 85.9294 204.443 81.4094Z" fill="#152E45"/>
<path d="M866.807 57.2765C869.9 63.8085 872.995 70.4191 876.115 77.0578C876.062 77.2431 876.01 77.4271 875.956 77.6125C874.291 83.8271 872.599 90.0165 870.906 96.2031C869.162 102.578 867.415 108.951 865.643 115.298C863.872 121.696 862.1 128.043 860.302 134.416C858.503 140.79 856.706 147.163 854.88 153.51C858.348 153.595 885.882 152.922 889.623 152.992C889.623 152.992 899.016 130.662 899.652 128.176C900.894 130.872 909.999 150.775 911.242 153.579C914.335 154.002 948.522 165.86 951.615 166.308C948.231 158.719 944.872 151.208 941.514 143.778C938.182 136.374 934.876 129.048 931.571 121.803C928.291 114.582 925.012 107.416 921.76 100.356C919.354 95.0925 916.946 89.8831 914.566 84.7271C913.747 82.9551 912.927 81.1831 912.108 79.4111C913.747 72.8538 915.36 66.2951 917 59.7098C918.612 53.1511 920.199 46.5671 921.812 39.9818C923.399 33.4231 924.986 26.8391 926.547 20.2271C928.107 13.6418 929.667 7.05782 931.2 0.447144L895.632 13.3005C895.024 15.7338 889.312 27.1831 888.676 29.6151C887.487 27.1551 880.999 15.0325 879.86 12.6525L839.648 0.447144C842.611 6.55515 845.599 12.7445 848.587 18.9845C851.602 25.2258 854.615 31.5458 857.658 37.9178C860.698 44.3178 863.739 50.7711 866.807 57.2765Z" fill="white"/>
<path d="M888.708 124.382L869.732 149.302C871.499 149.517 883.584 148.393 886.493 148.321L898.508 115.565L903.488 126.399C904.309 128.167 905.095 129.915 905.899 131.666L907.22 134.558C907.22 134.558 913.627 148.534 914.556 150.606L944.617 161.014C942.296 155.818 939.976 150.641 937.656 145.518C934.336 138.11 931.032 130.791 927.712 123.562C924.445 116.331 921.161 109.173 917.912 102.122C915.805 97.5165 913.717 92.9645 911.628 88.4659C909.04 87.9485 906.469 87.4485 903.916 86.9659C901.703 90.1432 898.025 92.2139 893.867 92.2139C888.136 92.2139 883.335 88.2685 882.013 82.9499C881.031 82.7712 880.032 82.6099 879.032 82.4312C877.711 87.3578 876.372 92.2859 875.015 97.1939L874.961 97.4258C873.212 103.763 871.481 110.119 869.713 116.421C867.947 122.829 866.18 129.185 864.376 135.557C863.269 139.502 862.144 143.429 861.037 147.357L888.708 124.382Z" fill="#637996"/>
<path d="M885.688 79.9809C885.688 75.4595 889.352 71.7955 893.872 71.7955C898.391 71.7955 902.055 75.4595 902.055 79.9809C902.055 84.5009 898.391 88.1649 893.872 88.1649C889.352 88.1649 885.688 84.5009 885.688 79.9809Z" fill="#152E45"/>
</svg>
